%FSTAX23Y23*%
%MOIN*%
%SFA1B1*%

%IPPOS*%
%AMD57*
4,1,8,-0.023700,0.000000,-0.023700,0.000000,0.000000,-0.023700,0.000000,-0.023700,0.023700,0.000000,0.023700,0.000000,0.000000,0.023700,0.000000,0.023700,-0.023700,0.000000,0.0*
1,1,0.047370,0.000000,0.000000*
1,1,0.047370,0.000000,0.000000*
1,1,0.047370,0.000000,0.000000*
1,1,0.047370,0.000000,0.000000*
%
%AMD60*
4,1,8,-0.011800,0.020500,-0.011800,0.020500,-0.020500,-0.011800,-0.020500,-0.011800,0.011900,-0.020500,0.011900,-0.020500,0.020500,0.011800,0.020500,0.011800,-0.011800,0.020500,0.0*
1,1,0.047370,0.000000,0.000000*
1,1,0.047370,0.000000,0.000000*
1,1,0.047370,0.000000,0.000000*
1,1,0.047370,0.000000,0.000000*
%
%AMD61*
4,1,8,-0.011800,-0.020500,-0.011800,-0.020500,0.020500,-0.011800,0.020500,-0.011800,0.011800,0.020500,0.011800,0.020500,-0.020500,0.011800,-0.020500,0.011800,-0.011800,-0.020500,0.0*
1,1,0.047370,0.000000,0.000000*
1,1,0.047370,0.000000,0.000000*
1,1,0.047370,0.000000,0.000000*
1,1,0.047370,0.000000,0.000000*
%
%ADD32C,0.035000*%
%ADD33C,0.028000*%
%ADD34C,0.061811*%
%ADD35R,0.061811X0.061811*%
%ADD38R,0.033465X0.011811*%
%ADD41R,0.224409X0.224409*%
%ADD43R,0.011811X0.033465*%
%ADD47R,0.023622X0.031496*%
%ADD56R,0.029134X0.038976*%
G04~CAMADD=57~8~0.0~0.0~473.7~473.7~236.9~0.0~15~0.0~0.0~0.0~0.0~0~0.0~0.0~0.0~0.0~0~0.0~0.0~0.0~90.0~474.0~473.0*
%ADD57D57*%
G04~CAMADD=60~8~0.0~0.0~473.7~473.7~236.9~0.0~15~0.0~0.0~0.0~0.0~0~0.0~0.0~0.0~0.0~0~0.0~0.0~0.0~30.0~474.0~473.0*
%ADD60D60*%
G04~CAMADD=61~8~0.0~0.0~473.7~473.7~236.9~0.0~15~0.0~0.0~0.0~0.0~0~0.0~0.0~0.0~0.0~0~0.0~0.0~0.0~150.0~474.0~473.0*
%ADD61D61*%
%ADD62C,0.023748*%
%ADD63R,0.082803X0.023750*%
%ADD64R,0.039496X0.045401*%
%ADD65R,0.027685X0.043433*%
%ADD66R,0.038976X0.029134*%
%ADD67R,0.051000X0.063000*%
%ADD68R,0.063000X0.051000*%
G36*
X00604Y00755D02*
X00619Y00749D01*
X00632Y00739*
X00643Y00728*
X00651Y00714*
X00656Y00699*
X00658Y00683*
X00657Y00667*
X00652Y00652*
X00648Y00645*
X00581Y00684*
X00513Y00645*
X00509Y00652*
X00505Y00667*
X00503Y00683*
X00505Y00699*
X0051Y00714*
X00519Y00728*
X00529Y00739*
X00542Y00749*
X00557Y00755*
X00573Y00758*
X00589*
X00604Y00755*
G37*
G36*
X-00576D02*
X-00561Y00749D01*
X-00548Y00739*
X-00537Y00728*
X-00529Y00714*
X-00524Y00699*
X-00522Y00683*
X-00523Y00667*
X-00528Y00652*
X-00532Y00645*
X-006Y00684*
X-00667Y00645*
X-00671Y00652*
X-00676Y00667*
X-00677Y00683*
X-00675Y00699*
X-0067Y00714*
X-00662Y00728*
X-00651Y00739*
X-00638Y00749*
X-00623Y00755*
X-00607Y00758*
X-00592*
X-00576Y00755*
G37*
G36*
X00648Y00644D02*
X00645Y00638D01*
X00636Y00628*
X00626Y00619*
X00614Y00612*
X00601Y00607*
X00588Y00604*
X00574Y00604*
X0056Y00607*
X00547Y00612*
X00535Y00619*
X00525Y00628*
X00516Y00639*
X00513Y00645*
X00581Y00684*
X00648Y00644*
G37*
G36*
X-00532D02*
X-00535Y00638D01*
X-00544Y00628*
X-00554Y00619*
X-00566Y00612*
X-00579Y00607*
X-00593Y00604*
X-00606Y00604*
X-0062Y00607*
X-00633Y00612*
X-00645Y00619*
X-00655Y00628*
X-00664Y00639*
X-00667Y00645*
X-00599Y00684*
X-00532Y00644*
G37*
G36*
X-00363Y00547D02*
X-00363Y00547D01*
X-00303Y00513*
X-00244Y00478*
X-00244Y00478*
X-00244Y00478*
X-00247Y00472*
X-00256Y00462*
X-00267Y00453*
X-00279Y00447*
X-00292Y00443*
X-00306Y00442*
X-0032Y00443*
X-00333Y00448*
X-00339Y00451*
X-00345Y00455*
X-00355Y00464*
X-00363Y00475*
X-00369Y00487*
X-00373Y00501*
X-00374Y00515*
X-00371Y00528*
X-00367Y00541*
X-00363Y00547*
X-00363Y00547*
G37*
G36*
X-00833Y00541D02*
X-00828Y00528D01*
X-00826Y00515*
X-00826Y00501*
X-0083Y00487*
X-00836Y00475*
X-00844Y00464*
X-00854Y00455*
X-00866Y00448*
X-00879Y00443*
X-00893Y00442*
X-00907Y00443*
X-0092Y00447*
X-00932Y00453*
X-00943Y00462*
X-00952Y00472*
X-00955Y00478*
X-00955*
X-00836Y00547*
X-00833Y00541*
G37*
G36*
X-01124Y00381D02*
D01*
X-01124*
X-01124*
G37*
G36*
X-00009Y00343D02*
X00056Y00381D01*
X00059Y00375*
X00064Y00362*
X00067Y00348*
X00067Y00335*
X00065Y00321*
X0006Y00308*
X00053Y00296*
X00044Y00286*
X00034Y00277*
X00022Y0027*
X00009Y00266*
X-00004Y00264*
X-00009Y00264*
X-00014Y00264*
X-00027Y00266*
X-00041Y0027*
X-00053Y00277*
X-00063Y00286*
X-00072Y00296*
X-00079Y00308*
X-00084Y00321*
X-00086Y00335*
X-00086Y00348*
X-00083Y00362*
X-00078Y00375*
X-00075Y00381*
X-00009Y00343*
G37*
G36*
X-01124Y0038D02*
X-01124Y00381D01*
X-01121Y00375*
X-01116Y00362*
X-01113Y00348*
X-01113Y00335*
X-01115Y00321*
X-0112Y00308*
X-01127Y00296*
X-01136Y00286*
X-01146Y00277*
X-01146Y00277*
X-01146Y00277*
X-01159Y0027*
X-01172Y00265*
X-01185Y00263*
X-01192Y00264*
X-01192Y00342*
X-01124Y00381*
X-01124Y0038*
G37*
G36*
X01106Y0038D02*
X01106Y0038D01*
X01132Y00366*
X01173Y00342*
Y00342*
X01173Y00341*
X01173Y00294*
Y00264*
X01173Y00264*
Y00263*
X01166Y00263*
X01153Y00265*
X0114Y0027*
X01128Y00277*
X01117Y00285*
X01108Y00296*
X01105Y00302*
X01101Y00308*
X01096Y00321*
X01094Y00335*
X01094Y00348*
X01097Y00362*
X01102Y00375*
X01105Y00381*
X01106Y0038*
G37*
G36*
X-01171Y00066D02*
X-01159Y00061D01*
X-01147Y00054*
X-01137Y00044*
X-01129Y00033*
X-01124Y0002*
X-01121Y00006*
Y-00006*
X-01124Y-0002*
X-01129Y-00033*
X-01137Y-00044*
X-01147Y-00054*
X-01159Y-00061*
X-01171Y-00066*
X-01172Y-00066*
X-01172Y-00066*
X-01185Y-00069*
X-01192Y-00068*
X-01192Y00068*
X-01192Y00068*
Y00068*
X-01185Y00069*
X-01171Y00066*
G37*
G36*
X01173Y-00264D02*
D01*
Y-00342*
X01105Y-00381*
X01102Y-00375*
X01097Y-00362*
X01094Y-00348*
X01094Y-00335*
X01096Y-00321*
X01101Y-00308*
X01108Y-00296*
X01117Y-00286*
X01128Y-00277*
X0114Y-0027*
X01153Y-00266*
X01166Y-00264*
X01173Y-00264*
G37*
G36*
X00009Y-00266D02*
X00022Y-0027D01*
X00034Y-00277*
X00044Y-00286*
X00053Y-00296*
X0006Y-00308*
X00065Y-00321*
X00067Y-00335*
X00067Y-00348*
X00064Y-00362*
X00059Y-00375*
X00056Y-00381*
X-00009Y-00343*
X-00075Y-00381*
X-00078Y-00375*
X-00083Y-00362*
X-00086Y-00348*
X-00086Y-00335*
X-00084Y-00321*
X-00079Y-00308*
X-00072Y-00296*
X-00063Y-00286*
X-00053Y-00277*
X-00041Y-0027*
X-00027Y-00266*
X-00014Y-00264*
X-00009Y-00264*
X-00004Y-00264*
X00009Y-00266*
G37*
G36*
X-01171Y-00265D02*
X-01158Y-0027D01*
X-01146Y-00277*
X-01136Y-00285*
X-01127Y-00296*
X-0112Y-00308*
X-01115Y-00321*
X-01113Y-00334*
X-01113Y-00348*
X-01116Y-00362*
X-01121Y-00375*
X-01124Y-0038*
X-01192Y-00341*
X-01192Y-00263*
X-01185Y-00263*
X-01171Y-00265*
G37*
G36*
X00056Y-00381D02*
D01*
G37*
G36*
X-01192Y-00342D02*
X-01124Y-00381D01*
X-01129Y-00387*
X-0114Y-00399*
X-01153Y-00408*
X-01167Y-00414*
X-01183Y-00418*
X-01199Y-00417*
X-01215Y-00414*
X-01229Y-00407*
X-01242Y-00398*
X-01253Y-00386*
X-01261Y-00372*
X-01266Y-00357*
X-01268Y-00341*
X-01266Y-00325*
X-01261Y-0031*
X-01253Y-00296*
X-01243Y-00284*
X-0123Y-00274*
X-01216Y-00267*
X-012Y-00264*
X-01192Y-00264*
X-01192Y-00342*
G37*
G36*
X-00292Y-00443D02*
X-00279Y-00447D01*
X-00267Y-00453*
X-00256Y-00462*
X-00247Y-00472*
X-00244Y-00478*
X-00303Y-00513*
X-00363Y-00547*
X-00366Y-00541*
X-00371Y-00528*
X-00373Y-00515*
X-00373Y-00501*
X-00369Y-00487*
X-00363Y-00475*
X-00355Y-00464*
X-00345Y-00455*
X-00333Y-00448*
X-0032Y-00443*
X-00306Y-00442*
X-00292Y-00443*
G37*
G36*
X-00879Y-00443D02*
X-00866Y-00448D01*
X-0086Y-00451*
X-00854Y-00455*
X-00844Y-00464*
X-00836Y-00475*
X-0083Y-00487*
X-00826Y-00501*
X-00825Y-00515*
X-00828Y-00528*
X-00832Y-00541*
X-00836Y-00547*
X-00836Y-00547*
X-00836Y-00547*
X-00896Y-00513*
X-00955Y-00478*
X-00955Y-00478*
X-00955Y-00478*
X-00952Y-00472*
X-00943Y-00462*
X-00932Y-00453*
X-0092Y-00447*
X-00907Y-00443*
X-00893Y-00442*
X-00879Y-00443*
G37*
G36*
X00587Y-00604D02*
X00601Y-00607D01*
X00614Y-00612*
X00626Y-00619*
X00636Y-00628*
X00645Y-00639*
X00648Y-00645*
X00645Y-00647*
X00645Y-00647*
X00581Y-00684*
X00516Y-00647*
X00516Y-00646*
X00513Y-00644*
X00516Y-00638*
X00525Y-00628*
X00535Y-00619*
X00547Y-00612*
X0056Y-00607*
X00574Y-00604*
X00587Y-00604*
G37*
G36*
X-00593D02*
X-00579Y-00607D01*
X-00566Y-00612*
X-00554Y-00619*
X-00544Y-00628*
X-00535Y-00639*
X-00532Y-00645*
X-00535Y-00647*
X-00535Y-00647*
X-006Y-00684*
X-00664Y-00647*
X-00664Y-00646*
X-00667Y-00644*
X-00664Y-00638*
X-00655Y-00628*
X-00645Y-00619*
X-00633Y-00612*
X-0062Y-00607*
X-00606Y-00604*
X-00593Y-00604*
G37*
G54D32*
X01114Y00161D03*
G54D33*
X0076Y-00165D03*
G54D34*
X-00518Y-00362D03*
X-00618D03*
G54D35*
X-00718Y-00362D03*
G54D38*
X-00757Y00084D03*
X-00485Y00064D03*
X-00757D03*
Y00044D03*
X-00485Y00084D03*
Y00044D03*
X-00757Y00123D03*
Y00103D03*
Y00025D03*
Y00005D03*
Y-00014D03*
Y-00033D03*
Y-00053D03*
Y-00073D03*
Y-00092D03*
X-00485D03*
Y-00073D03*
Y-00053D03*
Y-00033D03*
Y-00014D03*
Y00005D03*
Y00025D03*
Y00103D03*
Y00123D03*
G54D41*
X-00621Y00015D03*
G54D43*
X-00592Y00151D03*
X-00572D03*
X-00611D03*
X-00729Y-0012D03*
X-0071D03*
X-0069D03*
X-0067D03*
X-00651D03*
X-00631D03*
X-00611D03*
X-00592D03*
X-00572D03*
X-00552D03*
X-00532D03*
X-00513D03*
Y00151D03*
X-00532D03*
X-00552D03*
X-00631D03*
X-00651D03*
X-0067D03*
X-0069D03*
X-0071D03*
X-00729D03*
G54D47*
X-00998Y00301D03*
X-00943D03*
G54D56*
X-00995Y00137D03*
X-0094D03*
G54D57*
X-00006Y-00305D03*
Y00305D03*
X-01163Y00325D03*
X01144Y-00325D03*
X-00318Y-00487D03*
X-00881Y00487D03*
G54D60*
X00581Y-0065D03*
Y0065D03*
X-006Y-0065D03*
Y0065D03*
X-00881Y-00487D03*
X-00318Y00487D03*
G54D61*
X-01163Y-00325D03*
X01144Y00325D03*
X-01163Y0D03*
G54D62*
X-0103Y001D03*
X-01118Y-00253D03*
X-0107Y-00196D03*
X-00313Y00363D03*
X-00329Y-00365D03*
X-00384Y00028D03*
X-00263Y00251D03*
X-00396Y00277D03*
X00251Y-00038D03*
X0024Y-00072D03*
X00278Y-00404D03*
X00321Y-0014D03*
X-01105Y00219D03*
X-00126Y0023D03*
X-00333Y00251D03*
X0027Y00035D03*
X00669Y00072D03*
X00545Y-00274D03*
X00581Y-00337D03*
X-00409Y00208D03*
X-00333D03*
X-00402Y00131D03*
X-00939Y-00137D03*
X-01034Y00325D03*
X00259Y-0023D03*
X00764Y-00393D03*
X00256Y-00406D03*
X-00713Y0045D03*
X00692Y00213D03*
X00322Y00193D03*
X00463Y00268D03*
X00185Y00185D03*
X-00544Y00229D03*
X-00488Y00376D03*
X-00698Y-00255D03*
G54D63*
X-00298Y00183D03*
Y0023D03*
Y00277D03*
G54D64*
X-00678Y-00197D03*
X-00994Y00227D03*
X-00728Y-00197D03*
X-00945Y00227D03*
G54D65*
X-01054Y00211D03*
Y00302D03*
G54D66*
X-0089Y00283D03*
Y00228D03*
G54D67*
X-00915Y0005D03*
X-00988D03*
G54D68*
X-00798Y00248D03*
Y00321D03*
M02*