%FSTAX23Y23*%
%MOIN*%
%SFA1B1*%

%IPPOS*%
%AMD21*
4,1,8,-0.019700,0.000000,-0.019700,0.000000,0.000000,-0.019700,0.000000,-0.019700,0.019700,0.000000,0.019700,0.000000,0.000000,0.019700,0.000000,0.019700,-0.019700,0.000000,0.0*
1,1,0.039370,0.000000,0.000000*
1,1,0.039370,0.000000,0.000000*
1,1,0.039370,0.000000,0.000000*
1,1,0.039370,0.000000,0.000000*
%
%AMD28*
4,1,8,-0.009800,0.017100,-0.009800,0.017100,-0.017100,-0.009800,-0.017100,-0.009800,0.009900,-0.017100,0.009900,-0.017100,0.017100,0.009800,0.017100,0.009800,-0.009800,0.017100,0.0*
1,1,0.039370,0.000000,0.000000*
1,1,0.039370,0.000000,0.000000*
1,1,0.039370,0.000000,0.000000*
1,1,0.039370,0.000000,0.000000*
%
%AMD29*
4,1,8,-0.009800,-0.017100,-0.009800,-0.017100,0.017100,-0.009800,0.017100,-0.009800,0.009800,0.017100,0.009800,0.017100,-0.017100,0.009800,-0.017100,0.009800,-0.009800,-0.017100,0.0*
1,1,0.039370,0.000000,0.000000*
1,1,0.039370,0.000000,0.000000*
1,1,0.039370,0.000000,0.000000*
1,1,0.039370,0.000000,0.000000*
%
%ADD19R,0.025197X0.035039*%
G04~CAMADD=21~8~0.0~0.0~393.7~393.7~196.9~0.0~15~0.0~0.0~0.0~0.0~0~0.0~0.0~0.0~0.0~0~0.0~0.0~0.0~90.0~394.0~393.0*
%ADD21D21*%
G04~CAMADD=28~8~0.0~0.0~393.7~393.7~196.9~0.0~15~0.0~0.0~0.0~0.0~0~0.0~0.0~0.0~0.0~0~0.0~0.0~0.0~30.0~392.0~392.0*
%ADD28D28*%
G04~CAMADD=29~8~0.0~0.0~393.7~393.7~196.9~0.0~15~0.0~0.0~0.0~0.0~0~0.0~0.0~0.0~0.0~0~0.0~0.0~0.0~150.0~392.0~392.0*
%ADD29D29*%
%ADD31C,0.011811*%
%ADD32C,0.035000*%
%ADD33C,0.028000*%
%ADD34C,0.061811*%
%ADD35R,0.061811X0.061811*%
%ADD36C,0.015748*%
%ADD38R,0.033465X0.011811*%
%ADD39R,0.074803X0.015750*%
%ADD40R,0.031496X0.037401*%
%ADD41R,0.224409X0.224409*%
%ADD42R,0.019685X0.035433*%
%ADD43R,0.011811X0.033465*%
%ADD44R,0.035039X0.025197*%
%ADD45R,0.043000X0.055000*%
%ADD46R,0.055000X0.043000*%
%ADD47R,0.023622X0.031496*%
G36*
X00648Y00644D02*
X00645Y00638D01*
X00636Y00628*
X00626Y00619*
X00614Y00612*
X00601Y00607*
X00588Y00604*
X00574Y00604*
X0056Y00607*
X00547Y00612*
X00535Y00619*
X00525Y00628*
X00516Y00639*
X00513Y00645*
X00581Y00684*
X00648Y00644*
G37*
G36*
X-00532D02*
X-00535Y00638D01*
X-00544Y00628*
X-00554Y00619*
X-00566Y00612*
X-00579Y00607*
X-00593Y00604*
X-00606Y00604*
X-0062Y00607*
X-00633Y00612*
X-00645Y00619*
X-00655Y00628*
X-00664Y00639*
X-00667Y00645*
X-00599Y00684*
X-00532Y00644*
G37*
G36*
X-0021Y00459D02*
X-00214Y00451D01*
X-00224Y00437*
X-00237Y00426*
X-00251Y00416*
X-00267Y00409*
X-00284Y00404*
X-00301Y00402*
X-00318Y00403*
X-00335Y00407*
X-00351Y00413*
X-00366Y00422*
X-00379Y00432*
X-00391Y00445*
X-004Y0046*
X-00407Y00476*
X-00411Y00492*
X-00413Y0051*
X-00412Y00527*
X-00408Y00544*
X-00402Y0056*
X-00397Y00567*
X-0021Y00459*
G37*
G36*
X-00797Y00559D02*
X-00791Y00543D01*
X-00787Y00527*
X-00786Y00509*
X-00788Y00492*
X-00792Y00475*
X-00799Y0046*
X-00808Y00445*
X-0082Y00432*
X-00833Y00421*
X-00848Y00413*
X-00864Y00407*
X-00881Y00403*
X-00898Y00402*
X-00915Y00404*
X-00932Y00409*
X-00948Y00416*
X-00962Y00426*
X-00975Y00437*
X-00985Y00451*
X-0099Y00459*
X-00802Y00567*
X-00797Y00559*
G37*
G36*
X-00386Y00303D02*
X-00386Y00295D01*
X-00393Y0029*
X-00398*
X-00402Y00289*
X-00574*
X-00578Y00288*
X-00581Y00285*
X-00599Y00267*
X-00602Y00264*
X-00603Y00259*
Y0019*
X-00611Y00187*
X-00752Y00329*
X-00756Y00331*
X-0076Y00332*
X-00765Y00337*
Y00347*
X-0083*
Y00341*
X-00838Y00337*
X-00858Y00358*
X-00855Y00365*
X-00503*
X-00499Y00361*
X-00493Y00359*
Y00376*
X-00483*
Y00359*
X-00478Y00361*
X-00473Y00366*
X-00471Y00373*
Y00377*
X-00463Y0038*
X-00386Y00303*
G37*
G36*
X00558Y00602D02*
X00559Y00602D01*
X00559Y00602*
X00573Y00599*
X00573Y00599*
X00574Y00599*
X00588Y00599*
X00588Y00599*
X00588Y00599*
X00602Y00602*
X00602Y00602*
X00603Y00602*
X0061Y00604*
X00898Y00317*
X00902Y00314*
X00906Y00314*
X01093*
X01096Y00306*
X01096Y00306*
X01097Y00305*
X01103Y00293*
X01104Y00293*
X01104Y00292*
X01113Y00282*
X01113Y00282*
X01114Y00281*
X01124Y00272*
X01125Y00272*
X01125Y00272*
X01137Y00265*
X01137Y00265*
X01138Y00265*
X01151Y0026*
X01151Y0026*
X01152Y0026*
X01164Y00258*
Y-00258*
X01152Y-0026*
X01151Y-00261*
X01151Y-0026*
X01138Y-00265*
X01137Y-00265*
X01137Y-00265*
X01125Y-00272*
X01125Y-00272*
X01124Y-00273*
X01113Y-00281*
X01113Y-00282*
X01113Y-00282*
X01104Y-00293*
X01104Y-00293*
X01103Y-00293*
X01096Y-00305*
X01096Y-00306*
X01096Y-00306*
X01093Y-00314*
X00906*
X00902Y-00314*
X00898Y-00317*
X0061Y-00605*
X00603Y-00602*
X00602Y-00602*
X00602Y-00602*
X00592Y-006*
Y-00351*
X00596Y-00347*
X00598Y-00342*
X00563*
X00565Y-00347*
X00569Y-00351*
Y-006*
X00559Y-00602*
X00559Y-00602*
X00558Y-00602*
X00545Y-00607*
X00545Y-00607*
X00544Y-00607*
X00533Y-00614*
X00532Y-00614*
X00532Y-00615*
X00521Y-00624*
X00521Y-00624*
X00521Y-00624*
X00513Y-00634*
X00065Y-00375*
X00069Y-00364*
X00069Y-00363*
X0007Y-00363*
X00072Y-00349*
X00072Y-00349*
X00072Y-00348*
X00072Y-00335*
X00072Y-00334*
X00072Y-00334*
X00071Y-00324*
X00076Y-00317*
X00077Y-00316*
X00124*
X00243Y-00434*
X00246Y-00437*
X0025Y-00438*
Y-00438*
X00392*
X00392Y-00438*
X00396Y-00437*
X004Y-00434*
X0054Y-00294*
Y-00279*
X00524*
X00388Y-00415*
X00295*
X00295Y-00415*
X00291Y-00408*
X00291Y-00406*
Y-00401*
X0029Y-00397*
Y-0034*
X00289Y-00335*
X00286Y-00332*
Y-00332*
X00251Y-00296*
Y-00248*
X00257Y-00242*
X00262*
X00266Y-00241*
X00597*
X00752Y-00396*
X00754Y-004*
X00757Y-00403*
X00762Y-00405*
X00767*
X00772Y-00403*
X00775Y-004*
X00777Y-00395*
Y-0039*
X00775Y-00385*
X00772Y-00382*
X00768Y-0038*
X00609Y-00222*
X00606Y-00219*
X00601Y-00218*
X00601*
X00301*
X00298Y-00211*
X00349Y-00159*
Y-00159*
X00352Y-00156*
X00353Y-00152*
Y-0013*
X00352Y-00125*
X00349Y-00122*
Y-00122*
X0034Y-00113*
X00337Y-0011*
X00332Y-00109*
X00332*
X00269*
X00266Y-00102*
X00278Y-00089*
X00281Y-00086*
X00282Y-00082*
Y-00082*
Y00021*
X00286Y00025*
X00288Y0003*
X0027*
Y0004*
X00288*
X00286Y00045*
X00281Y0005*
X00274Y00053*
X00267*
X00267Y00054*
X0027Y00061*
X00655*
X00659Y00057*
X00664Y00055*
Y00072*
Y0009*
X00659Y00088*
X00655Y00084*
X0023*
X00215Y00098*
X00043Y0027*
X00044Y00278*
X00048Y00281*
X00048Y00282*
X00048Y00282*
X00057Y00293*
X00057Y00293*
X00058Y00293*
X00058Y00294*
X00235*
X00235Y00294*
X0024Y00294*
X00243Y00297*
X00551Y00605*
X00558Y00602*
G37*
G36*
X-00331Y00363D02*
Y0036D01*
X-00328Y00353*
X-00323Y00348*
X-00318Y00346*
Y00363*
Y00381*
X-00334Y00393*
X-00331Y004*
X-00319Y00398*
X-00319Y00398*
X-00318Y00398*
X-00301Y00397*
X-00301Y00397*
X-003Y00397*
X-00283Y00399*
X-00283Y00399*
X-00282Y00399*
X-00266Y00404*
X-00265Y00404*
X-00265Y00404*
X-00255Y00409*
X-00249Y00402*
Y00292*
X-00256Y0029*
X-0034*
X-00346Y00296*
Y00333*
Y00333*
X-00347Y00337*
X-00349Y00341*
X-00452Y00444*
X-00447Y00449*
X-00331Y00363*
G37*
G36*
X-00009Y00343D02*
X00056Y00381D01*
X00059Y00375*
X00064Y00362*
X00067Y00348*
X00067Y00335*
X00065Y00321*
X0006Y00308*
X00053Y00296*
X00044Y00286*
X00034Y00277*
X00022Y0027*
X00009Y00266*
X-00004Y00264*
X-00009Y00264*
X-00014Y00264*
X-00027Y00266*
X-00041Y0027*
X-00053Y00277*
X-00063Y00286*
X-00072Y00296*
X-00079Y00308*
X-00084Y00321*
X-00086Y00335*
X-00086Y00348*
X-00083Y00362*
X-00078Y00375*
X-00075Y00381*
X-00009Y00343*
G37*
G36*
X-01121Y00375D02*
X-01116Y00362D01*
X-01113Y00348*
X-01113Y00335*
X-01115Y00321*
X-0112Y00308*
X-01127Y00296*
X-01136Y00286*
X-01146Y00277*
X-01158Y0027*
X-01171Y00266*
X-01185Y00264*
X-01192Y00264*
Y00342*
X-01124Y00381*
X-01121Y00375*
G37*
G36*
X01173Y00341D02*
X01173Y00263D01*
X01166Y00263*
X01153Y00265*
X0114Y0027*
X01128Y00277*
X01117Y00285*
X01108Y00296*
X01101Y00308*
X01097Y00321*
X01094Y00334*
X01094Y00348*
X01097Y00362*
X01102Y00375*
X01106Y0038*
X01173Y00341*
G37*
G36*
X-01114Y00292D02*
X-01114Y0029D01*
X-01111Y00287*
X-01074Y0025*
X-01071Y00247*
X-0107Y00247*
X-01071Y00239*
X-01074*
Y00231*
X-0109*
X-01094Y00235*
X-011Y00237*
Y00219*
Y00202*
X-01094Y00204*
X-0109Y00208*
X-01074*
Y00184*
X-01065*
Y00123*
X-01065Y00123*
X-01064Y00119*
X-01062Y00116*
X-01051Y00105*
X-0103*
Y00095*
X-01048*
X-01046Y0009*
X-01041Y00085*
X-01034Y00082*
X-01032*
Y00014*
Y00014*
X-01031Y00009*
X-01029Y00006*
X-01013Y-00009*
X-01009Y-00012*
X-01005Y-00013*
X-00939*
X-00939Y-00013*
X-00935Y-00012*
X-00932Y-00009*
X-00908Y00014*
Y00014*
X-00905Y00017*
X-00905Y00018*
X-00896*
X-00892Y0001*
X-00926Y-00022*
X-01073*
X-01078Y-00016*
X-01077Y-00009*
X-01077Y-00009*
X-01076Y-00008*
X-01076Y00008*
X-01077Y00008*
X-01077Y00009*
X-01079Y00026*
X-0108Y00026*
X-01079Y00027*
X-01085Y00043*
X-01085Y00043*
X-01085Y00044*
X-01093Y00059*
X-01093Y00059*
X-01094Y0006*
X-01104Y00074*
X-01104Y00074*
X-01104Y00074*
X-01117Y00087*
X-01117Y00087*
X-01117Y00087*
X-01131Y00097*
X-01132Y00097*
X-01132Y00098*
X-01148Y00105*
X-01148Y00105*
X-01148Y00105*
X-01165Y00111*
X-01165Y00111*
X-01166Y00111*
X-01183Y00113*
X-01183Y00113*
Y00258*
X-01172Y0026*
X-01171Y00258*
X-01124Y00212*
X-01121Y00209*
X-01119Y00209*
X-01115Y00204*
X-0111Y00202*
Y00219*
Y00237*
X-01115Y00235*
X-01115Y00234*
X-01145Y00264*
X-01144Y0027*
X-01143Y00273*
X-01143Y00273*
X-01132Y00281*
X-01132Y00282*
X-01132Y00282*
X-01123Y00293*
X-01123Y00293*
X-01122Y00293*
X-01114Y00292*
G37*
G36*
X-00084Y00375D02*
X-00088Y00364D01*
X-00088Y00363*
X-00088Y00363*
X-00091Y00349*
X-00091Y00349*
X-00091Y00348*
X-00091Y00335*
X-00091Y00334*
X-00091Y00334*
X-00089Y0032*
X-00089Y0032*
X-00089Y00319*
X-00084Y00306*
X-00084Y00306*
X-00084Y00305*
X-00077Y00294*
X-00121Y00251*
Y00235*
X-00105*
X-00062Y00278*
X-00056Y00273*
X-00055Y00272*
X-00055Y00272*
X-00043Y00265*
X-00043Y00265*
X-00042Y00265*
X-00029Y0026*
X-00029Y00261*
X-00028Y0026*
X-00015Y00258*
X-00014Y00258*
X-00014Y00258*
X-00009Y00258*
X-00004Y00258*
X-00004Y00258*
X-00003Y00258*
X00009Y0026*
X0001Y00261*
X0001Y0026*
X00019Y00263*
X00199Y00083*
X00217Y00065*
X00254Y00027*
X00255Y00025*
X00259Y00021*
Y-00018*
X00259Y-00019*
X00252Y-00022*
X00137Y00092*
X00134Y00094*
X00129Y00095*
X00129*
X-00273*
X-00277Y00103*
X-0023Y0015*
X-00227Y00153*
X-00226Y00157*
Y00407*
Y00407*
X-00227Y00411*
X-0023Y00415*
X-0023Y00415*
X-0023Y00415*
X-00229Y00426*
X-00221Y00433*
X-00221Y00434*
X-0022Y00434*
X-0021Y00448*
X-00209Y00448*
X-00084Y00375*
G37*
G36*
X-00864Y-00003D02*
Y-00015D01*
X-01034Y-00185*
X-01063*
X-01067Y-00183*
X-01072*
X-01077Y-00185*
X-01081Y-00189*
X-01083Y-00193*
Y-00199*
X-01081Y-00203*
X-01077Y-00207*
X-01072Y-00209*
X-01067*
X-01063Y-00207*
X-01029*
X-01025Y-00206*
X-01021Y-00204*
X-00959Y-00141*
X-0095Y-00143*
X-00949Y-00144*
X-00946Y-00147*
X-00941Y-00149*
X-00936*
X-00931Y-00147*
X-00928Y-00144*
X-00926Y-0014*
X-00804Y-00018*
X-00797Y-00021*
Y-00387*
X-00823Y-00414*
X-0083Y-00417*
X-00845Y-00408*
X-00846Y-00408*
X-00846Y-00408*
X-00862Y-00402*
X-00862Y-00402*
X-00863Y-00401*
X-0088Y-00398*
X-0088Y-00398*
X-00881Y-00398*
X-00898Y-00397*
X-00898Y-00397*
X-00899Y-00397*
X-00916Y-00399*
X-00916Y-00399*
X-00917Y-00399*
X-00933Y-00404*
X-00934Y-00404*
X-00934Y-00404*
X-0095Y-00411*
X-0095Y-00412*
X-00951Y-00412*
X-00965Y-00421*
X-00965Y-00422*
X-00966Y-00422*
X-00978Y-00433*
X-00978Y-00434*
X-00979Y-00434*
X-00989Y-00448*
X-0099Y-00448*
X-01115Y-00375*
X-01111Y-00364*
X-01111Y-00363*
X-01111Y-00363*
X-01108Y-00349*
X-01108Y-00349*
X-01108Y-00348*
X-01108Y-00335*
X-01108Y-00334*
X-01108Y-00334*
X-0111Y-0032*
X-0111Y-0032*
X-0111Y-00319*
X-01115Y-00306*
X-01115Y-00306*
X-01115Y-00305*
X-0112Y-00297*
X-0111Y-00288*
X-01108Y-00284*
X-01107Y-0028*
Y-00267*
X-01103Y-00263*
X-01101Y-00258*
X-01135*
X-01133Y-00263*
X-0113Y-00266*
X-0113Y-00273*
X-01137Y-00278*
X-01143Y-00272*
X-01143Y-00272*
X-01144Y-00272*
X-01156Y-00265*
X-01156Y-00265*
X-01157Y-00265*
X-0117Y-0026*
X-0117Y-0026*
X-01171Y-0026*
X-01183Y-00258*
Y-00114*
X-01183Y-00113*
X-01166Y-00111*
X-01165Y-00111*
X-01165Y-00111*
X-01148Y-00106*
X-01148Y-00105*
X-01148Y-00105*
X-01132Y-00098*
X-01132Y-00097*
X-01131Y-00097*
X-01117Y-00087*
X-01117Y-00087*
X-01117Y-00087*
X-01104Y-00075*
X-01104Y-00074*
X-01104Y-00074*
X-01094Y-0006*
X-01093Y-0006*
X-01093Y-0006*
X-01085Y-00045*
X-00921*
X-00921*
X-00917Y-00044*
X-00913Y-00041*
X-00872Y0*
X-00864Y-00003*
G37*
G36*
X-01166Y00105D02*
X-0115Y001D01*
X-01135Y00093*
X-0112Y00083*
X-01108Y00071*
X-01098Y00057*
X-0109Y00041*
X-01085Y00025*
X-01082Y00008*
X-01082Y-00008*
X-01085Y-00025*
X-0109Y-00042*
X-01098Y-00057*
X-01108Y-00071*
X-01121Y-00083*
X-01135Y-00093*
X-0115Y-00101*
X-01167Y-00106*
X-01184Y-00108*
X-01192Y-00108*
X-01192Y00108*
X-01184Y00108*
X-01166Y00105*
G37*
G36*
X00009Y-00266D02*
X00022Y-0027D01*
X00034Y-00277*
X00044Y-00286*
X00053Y-00296*
X0006Y-00308*
X00065Y-00321*
X00067Y-00335*
X00067Y-00348*
X00064Y-00362*
X00059Y-00375*
X00056Y-00381*
X-00009Y-00343*
X-00075Y-00381*
X-00078Y-00375*
X-00083Y-00362*
X-00086Y-00348*
X-00086Y-00335*
X-00084Y-00321*
X-00079Y-00308*
X-00072Y-00296*
X-00063Y-00286*
X-00053Y-00277*
X-00041Y-0027*
X-00027Y-00266*
X-00014Y-00264*
X-00009Y-00264*
X-00004Y-00264*
X00009Y-00266*
G37*
G36*
X-01171Y-00265D02*
X-01158Y-0027D01*
X-01146Y-00277*
X-01136Y-00285*
X-01127Y-00296*
X-0112Y-00308*
X-01115Y-00321*
X-01113Y-00334*
X-01113Y-00348*
X-01116Y-00362*
X-01121Y-00375*
X-01124Y-0038*
X-01192Y-00341*
X-01192Y-00263*
X-01185Y-00263*
X-01171Y-00265*
G37*
G36*
X01173Y-00264D02*
D01*
Y-00342*
X01105Y-00381*
X01102Y-00375*
X01097Y-00362*
X01094Y-00348*
X01094Y-00335*
X01096Y-00321*
X01101Y-00308*
X01108Y-00296*
X01117Y-00286*
X01128Y-00277*
X0114Y-0027*
X01153Y-00266*
X01166Y-00264*
X01173Y-00264*
G37*
G36*
X00056Y-00381D02*
D01*
G37*
G36*
X-00284Y-00404D02*
X-00267Y-00409D01*
X-00251Y-00416*
X-00237Y-00426*
X-00224Y-00437*
X-00214Y-00451*
X-00209Y-00459*
X-00397Y-00567*
X-00402Y-00559*
X-00408Y-00543*
X-00412Y-00527*
X-00413Y-00509*
X-00411Y-00492*
X-00407Y-00475*
X-004Y-0046*
X-00391Y-00445*
X-00379Y-00432*
X-00366Y-00421*
X-00351Y-00413*
X-00335Y-00407*
X-00318Y-00403*
X-00301Y-00402*
X-00284Y-00404*
G37*
G36*
X-00881Y-00403D02*
X-00864Y-00407D01*
X-00848Y-00413*
X-00833Y-00422*
X-0082Y-00432*
X-00808Y-00445*
X-00799Y-0046*
X-00792Y-00476*
X-00788Y-00492*
X-00786Y-0051*
X-00787Y-00527*
X-00791Y-00544*
X-00797Y-0056*
X-00802Y-00567*
X-00989Y-00459*
X-00985Y-00451*
X-00975Y-00437*
X-00962Y-00426*
X-00948Y-00416*
X-00932Y-00409*
X-00915Y-00404*
X-00898Y-00402*
X-00881Y-00403*
G37*
G36*
X00587Y-00604D02*
X00601Y-00607D01*
X00614Y-00612*
X00626Y-00619*
X00636Y-00628*
X00645Y-00639*
X00648Y-00645*
X00581Y-00684*
X00513Y-00644*
X00516Y-00638*
X00525Y-00628*
X00535Y-00619*
X00547Y-00612*
X0056Y-00607*
X00574Y-00604*
X00587Y-00604*
G37*
G36*
X-00593D02*
X-00579Y-00607D01*
X-00566Y-00612*
X-00554Y-00619*
X-00544Y-00628*
X-00535Y-00639*
X-00532Y-00645*
X-006Y-00684*
X-00667Y-00644*
X-00664Y-00638*
X-00655Y-00628*
X-00645Y-00619*
X-00633Y-00612*
X-0062Y-00607*
X-00606Y-00604*
X-00593Y-00604*
G37*
M02*