%FSTAX23Y23*%
%MOIN*%
%SFA1B1*%

%IPPOS*%
%ADD48C,0.020000*%
%ADD49C,0.009843*%
%ADD50C,0.006000*%
%ADD51C,0.007874*%
%ADD52C,0.003937*%
%ADD53C,0.003150*%
%ADD54C,0.003000*%
G54D48*
X00106Y00291D02*
D01*
X00106Y00292*
X00106Y00293*
X00106Y00294*
X00106Y00295*
X00106Y00296*
X00105Y00297*
X00105Y00298*
X00104Y00299*
X00104Y003*
X00103Y003*
X00102Y00301*
X00101Y00302*
X00101Y00303*
X001Y00303*
X00099Y00304*
X00098Y00304*
X00097Y00305*
X00096Y00305*
X00095Y00305*
X00094Y00306*
X00093Y00306*
X00092Y00306*
X00091*
X0009Y00306*
X00089Y00306*
X00088Y00305*
X00087Y00305*
X00086Y00305*
X00085Y00304*
X00084Y00304*
X00083Y00303*
X00082Y00303*
X00081Y00302*
X00081Y00301*
X0008Y003*
X00079Y003*
X00079Y00299*
X00078Y00298*
X00078Y00297*
X00077Y00296*
X00077Y00295*
X00077Y00294*
X00077Y00293*
X00076Y00292*
X00076Y00291*
X00076Y0029*
X00077Y00289*
X00077Y00288*
X00077Y00287*
X00077Y00286*
X00078Y00285*
X00078Y00284*
X00079Y00283*
X00079Y00282*
X0008Y00281*
X00081Y0028*
X00081Y0028*
X00082Y00279*
X00083Y00278*
X00084Y00278*
X00085Y00277*
X00086Y00277*
X00087Y00277*
X00088Y00276*
X00089Y00276*
X0009Y00276*
X00091Y00276*
X00092*
X00093Y00276*
X00094Y00276*
X00095Y00276*
X00096Y00277*
X00097Y00277*
X00098Y00277*
X00099Y00278*
X001Y00278*
X00101Y00279*
X00101Y0028*
X00102Y0028*
X00103Y00281*
X00104Y00282*
X00104Y00283*
X00105Y00284*
X00105Y00285*
X00106Y00286*
X00106Y00287*
X00106Y00288*
X00106Y00289*
X00106Y0029*
X00106Y00291*
X00176Y-00139D02*
D01*
X00176Y-00138*
X00176Y-00137*
X00176Y-00136*
X00175Y-00135*
X00175Y-00134*
X00175Y-00133*
X00174Y-00132*
X00174Y-00131*
X00173Y-00131*
X00172Y-0013*
X00172Y-00129*
X00171Y-00128*
X0017Y-00128*
X00169Y-00127*
X00168Y-00126*
X00168Y-00126*
X00167Y-00126*
X00166Y-00125*
X00165Y-00125*
X00164Y-00125*
X00163Y-00125*
X00161Y-00124*
X0016*
X00159Y-00125*
X00158Y-00125*
X00157Y-00125*
X00156Y-00125*
X00155Y-00126*
X00154Y-00126*
X00153Y-00126*
X00153Y-00127*
X00152Y-00128*
X00151Y-00128*
X0015Y-00129*
X00149Y-0013*
X00149Y-00131*
X00148Y-00131*
X00148Y-00132*
X00147Y-00133*
X00147Y-00134*
X00147Y-00135*
X00146Y-00136*
X00146Y-00137*
X00146Y-00138*
X00146Y-00139*
X00146Y-0014*
X00146Y-00142*
X00146Y-00143*
X00147Y-00144*
X00147Y-00145*
X00147Y-00146*
X00148Y-00146*
X00148Y-00147*
X00149Y-00148*
X00149Y-00149*
X0015Y-0015*
X00151Y-00151*
X00152Y-00151*
X00153Y-00152*
X00153Y-00152*
X00154Y-00153*
X00155Y-00153*
X00156Y-00154*
X00157Y-00154*
X00158Y-00154*
X00159Y-00154*
X0016Y-00154*
X00161*
X00163Y-00154*
X00164Y-00154*
X00165Y-00154*
X00166Y-00154*
X00167Y-00153*
X00168Y-00153*
X00168Y-00152*
X00169Y-00152*
X0017Y-00151*
X00171Y-00151*
X00172Y-0015*
X00172Y-00149*
X00173Y-00148*
X00174Y-00147*
X00174Y-00146*
X00175Y-00146*
X00175Y-00145*
X00175Y-00144*
X00176Y-00143*
X00176Y-00142*
X00176Y-0014*
X00176Y-00139*
X00688Y0023D02*
D01*
X00688Y00231*
X00688Y00232*
X00688Y00233*
X00687Y00234*
X00687Y00235*
X00687Y00236*
X00686Y00237*
X00686Y00238*
X00685Y00239*
X00684Y0024*
X00684Y0024*
X00683Y00241*
X00682Y00242*
X00681Y00242*
X0068Y00243*
X00679Y00243*
X00678Y00244*
X00678Y00244*
X00677Y00244*
X00675Y00245*
X00674Y00245*
X00673Y00245*
X00672*
X00671Y00245*
X0067Y00245*
X00669Y00244*
X00668Y00244*
X00667Y00244*
X00666Y00243*
X00665Y00243*
X00664Y00242*
X00664Y00242*
X00663Y00241*
X00662Y0024*
X00661Y0024*
X00661Y00239*
X0066Y00238*
X0066Y00237*
X00659Y00236*
X00659Y00235*
X00658Y00234*
X00658Y00233*
X00658Y00232*
X00658Y00231*
X00658Y0023*
X00658Y00229*
X00658Y00228*
X00658Y00227*
X00658Y00226*
X00659Y00225*
X00659Y00224*
X0066Y00223*
X0066Y00222*
X00661Y00221*
X00661Y0022*
X00662Y0022*
X00663Y00219*
X00664Y00218*
X00664Y00218*
X00665Y00217*
X00666Y00216*
X00667Y00216*
X00668Y00216*
X00669Y00215*
X0067Y00215*
X00671Y00215*
X00672Y00215*
X00673*
X00674Y00215*
X00675Y00215*
X00677Y00215*
X00678Y00216*
X00678Y00216*
X00679Y00216*
X0068Y00217*
X00681Y00218*
X00682Y00218*
X00683Y00219*
X00684Y0022*
X00684Y0022*
X00685Y00221*
X00686Y00222*
X00686Y00223*
X00687Y00224*
X00687Y00225*
X00687Y00226*
X00688Y00227*
X00688Y00228*
X00688Y00229*
X00688Y0023*
G54D49*
X-00754Y00167D02*
D01*
X-00754Y00168*
X-00754Y00168*
X-00754Y00168*
X-00754Y00169*
X-00754Y00169*
X-00754Y00169*
X-00754Y0017*
X-00755Y0017*
X-00755Y0017*
X-00755Y00171*
X-00755Y00171*
X-00756Y00171*
X-00756Y00171*
X-00756Y00171*
X-00756Y00172*
X-00757Y00172*
X-00757Y00172*
X-00757Y00172*
X-00758Y00172*
X-00758Y00172*
X-00758Y00172*
X-00759Y00172*
X-00759*
X-00759Y00172*
X-0076Y00172*
X-0076Y00172*
X-0076Y00172*
X-00761Y00172*
X-00761Y00172*
X-00761Y00172*
X-00762Y00171*
X-00762Y00171*
X-00762Y00171*
X-00762Y00171*
X-00763Y00171*
X-00763Y0017*
X-00763Y0017*
X-00763Y0017*
X-00763Y00169*
X-00763Y00169*
X-00764Y00169*
X-00764Y00168*
X-00764Y00168*
X-00764Y00168*
X-00764Y00167*
X-00764Y00167*
X-00764Y00167*
X-00764Y00166*
X-00764Y00166*
X-00763Y00166*
X-00763Y00165*
X-00763Y00165*
X-00763Y00165*
X-00763Y00164*
X-00763Y00164*
X-00762Y00164*
X-00762Y00164*
X-00762Y00163*
X-00762Y00163*
X-00761Y00163*
X-00761Y00163*
X-00761Y00163*
X-0076Y00163*
X-0076Y00163*
X-0076Y00162*
X-00759Y00162*
X-00759Y00162*
X-00759*
X-00758Y00162*
X-00758Y00162*
X-00758Y00163*
X-00757Y00163*
X-00757Y00163*
X-00757Y00163*
X-00756Y00163*
X-00756Y00163*
X-00756Y00163*
X-00756Y00164*
X-00755Y00164*
X-00755Y00164*
X-00755Y00164*
X-00755Y00165*
X-00754Y00165*
X-00754Y00165*
X-00754Y00166*
X-00754Y00166*
X-00754Y00166*
X-00754Y00167*
X-00754Y00167*
X-00754Y00167*
G54D50*
X-0094Y00088D02*
X-00885D01*
Y00013D02*
Y00088D01*
X-01019Y00013D02*
X-00885D01*
X-01019D02*
Y00088D01*
X-0094*
X-0076Y00217D02*
Y00273D01*
X-00835Y00217D02*
X-0076D01*
X-00835D02*
Y00351D01*
X-0076*
Y00273D02*
Y00351D01*
G54D51*
X-01003Y0027D02*
X-00934D01*
X-01004Y00332D02*
X-00935D01*
X-0108Y00222D02*
Y00291D01*
X-01029Y0019D02*
Y00291D01*
G54D52*
X-00911Y00214D02*
Y00296D01*
X-00868Y00215D02*
Y00296D01*
X-01008Y00115D02*
X-00926D01*
X-01008Y00159D02*
X-00927D01*
G54D53*
X-0089Y00248D02*
Y00252D01*
Y0026D02*
Y00263D01*
X-00897Y0026D02*
X-00882D01*
X-00897Y00252D02*
X-00882D01*
X-00963Y00137D02*
X-00959D01*
X-00975D02*
X-00971D01*
Y00129D02*
Y00145D01*
X-00963Y00129D02*
Y00145D01*
G54D54*
X01063Y-00327D02*
X01061Y-00331D01*
Y-00323*
X01063Y-00327*
X01065Y-00324*
X0107Y-00323*
X01073*
X01077Y-00324*
X0108Y-00327*
X01081Y-0033*
X01083Y-00334*
Y-00341*
X01081Y-00345*
X0108Y-00348*
X01077Y-00351*
X01073Y-00352*
X0107*
X01065Y-00351*
X01063Y-00348*
X01073Y-00323D02*
X01075Y-00324D01*
X01078Y-00327*
X0108Y-0033*
X01081Y-00334*
Y-00341*
X0108Y-00345*
X01078Y-00348*
X01075Y-00351*
X01073Y-00352*
X01063Y-00341D02*
Y-00352D01*
X01061Y-00341D02*
Y-00352D01*
X01067Y-00341D02*
X01057D01*
X01049Y-00323D02*
Y-00352D01*
X01047Y-00323D02*
X0103Y-0035D01*
X01047Y-00325D02*
X0103Y-00352D01*
Y-00323D02*
Y-00352D01*
X01053Y-00323D02*
X01047D01*
X01034D02*
X01026D01*
X01053Y-00352D02*
X01044D01*
X01018Y-00323D02*
Y-00352D01*
X01016Y-00323D02*
Y-00352D01*
X01022Y-00323D02*
X01008D01*
X01004Y-00324*
X01001Y-00327*
X00999Y-0033*
X00998Y-00334*
Y-00341*
X00999Y-00345*
X01001Y-00348*
X01004Y-00351*
X01008Y-00352*
X01022*
X01008Y-00323D02*
X01005Y-00324D01*
X01002Y-00327*
X01001Y-0033*
X00999Y-00334*
Y-00341*
X01001Y-00345*
X01002Y-00348*
X01005Y-00351*
X01008Y-00352*
X01063Y00352D02*
X01061Y00348D01*
Y00357*
X01063Y00352*
X01065Y00355*
X0107Y00357*
X01073*
X01077Y00355*
X0108Y00352*
X01081Y00349*
X01083Y00345*
Y00338*
X01081Y00334*
X0108Y00331*
X01077Y00328*
X01073Y00327*
X0107*
X01065Y00328*
X01063Y00331*
X01073Y00357D02*
X01075Y00355D01*
X01078Y00352*
X0108Y00349*
X01081Y00345*
Y00338*
X0108Y00334*
X01078Y00331*
X01075Y00328*
X01073Y00327*
X01063Y00338D02*
Y00327D01*
X01061Y00338D02*
Y00327D01*
X01067Y00338D02*
X01057D01*
X01049Y00357D02*
Y00327D01*
X01047Y00357D02*
X0103Y00329D01*
X01047Y00354D02*
X0103Y00327D01*
Y00357D02*
Y00327D01*
X01053Y00357D02*
X01047D01*
X01034D02*
X01026D01*
X01053Y00327D02*
X01044D01*
X01018Y00357D02*
Y00327D01*
X01016Y00357D02*
Y00327D01*
X01022Y00357D02*
X01008D01*
X01004Y00355*
X01001Y00352*
X00999Y00349*
X00998Y00345*
Y00338*
X00999Y00334*
X01001Y00331*
X01004Y00328*
X01008Y00327*
X01022*
X01008Y00357D02*
X01005Y00355D01*
X01002Y00352*
X01001Y00349*
X00999Y00345*
Y00338*
X01001Y00334*
X01002Y00331*
X01005Y00328*
X01008Y00327*
X00568Y-00572D02*
X0057Y-00568D01*
Y-00577*
X00568Y-00572*
X00566Y-00575*
X00561Y-00577*
X00558*
X00554Y-00575*
X00551Y-00572*
X0055Y-00569*
X00549Y-00565*
Y-00558*
X0055Y-00554*
X00551Y-00551*
X00554Y-00548*
X00558Y-00547*
X00561*
X00566Y-00548*
X00568Y-00551*
X00558Y-00577D02*
X00556Y-00575D01*
X00553Y-00572*
X00551Y-00569*
X0055Y-00565*
Y-00558*
X00551Y-00554*
X00553Y-00551*
X00556Y-00548*
X00558Y-00547*
X00568Y-00558D02*
Y-00547D01*
X0057Y-00558D02*
Y-00547D01*
X00564Y-00558D02*
X00574D01*
X00582Y-00577D02*
Y-00547D01*
X00584Y-00577D02*
X00601Y-00549D01*
X00584Y-00574D02*
X00601Y-00547D01*
Y-00577D02*
Y-00547D01*
X00578Y-00577D02*
X00584D01*
X00597D02*
X00605D01*
X00578Y-00547D02*
X00587D01*
X00613Y-00577D02*
Y-00547D01*
X00615Y-00577D02*
Y-00547D01*
X00609Y-00577D02*
X00623D01*
X00627Y-00575*
X0063Y-00572*
X00632Y-00569*
X00633Y-00565*
Y-00558*
X00632Y-00554*
X0063Y-00551*
X00627Y-00548*
X00623Y-00547*
X00609*
X00623Y-00577D02*
X00626Y-00575D01*
X00629Y-00572*
X0063Y-00569*
X00632Y-00565*
Y-00558*
X0063Y-00554*
X00629Y-00551*
X00626Y-00548*
X00623Y-00547*
X00568Y00567D02*
X0057Y00571D01*
Y00563*
X00568Y00567*
X00566Y00564*
X00561Y00563*
X00558*
X00554Y00564*
X00551Y00567*
X0055Y0057*
X00549Y00574*
Y00581*
X0055Y00585*
X00551Y00588*
X00554Y00591*
X00558Y00592*
X00561*
X00566Y00591*
X00568Y00588*
X00558Y00563D02*
X00556Y00564D01*
X00553Y00567*
X00551Y0057*
X0055Y00574*
Y00581*
X00551Y00585*
X00553Y00588*
X00556Y00591*
X00558Y00592*
X00568Y00581D02*
Y00592D01*
X0057Y00581D02*
Y00592D01*
X00564Y00581D02*
X00574D01*
X00582Y00563D02*
Y00592D01*
X00584Y00563D02*
X00601Y0059D01*
X00584Y00565D02*
X00601Y00592D01*
Y00563D02*
Y00592D01*
X00578Y00563D02*
X00584D01*
X00597D02*
X00605D01*
X00578Y00592D02*
X00587D01*
X00613Y00563D02*
Y00592D01*
X00615Y00563D02*
Y00592D01*
X00609Y00563D02*
X00623D01*
X00627Y00564*
X0063Y00567*
X00632Y0057*
X00633Y00574*
Y00581*
X00632Y00585*
X0063Y00588*
X00627Y00591*
X00623Y00592*
X00609*
X00623Y00563D02*
X00626Y00564D01*
X00629Y00567*
X0063Y0057*
X00632Y00574*
Y00581*
X0063Y00585*
X00629Y00588*
X00626Y00591*
X00623Y00592*
X-00031Y-00252D02*
X-00029Y-00248D01*
Y-00257*
X-00031Y-00252*
X-00033Y-00255*
X-00038Y-00257*
X-00041*
X-00045Y-00255*
X-00048Y-00252*
X-00049Y-00249*
X-00051Y-00245*
Y-00238*
X-00049Y-00234*
X-00048Y-00231*
X-00045Y-00228*
X-00041Y-00227*
X-00038*
X-00033Y-00228*
X-00031Y-00231*
X-00041Y-00257D02*
X-00043Y-00255D01*
X-00046Y-00252*
X-00048Y-00249*
X-00049Y-00245*
Y-00238*
X-00048Y-00234*
X-00046Y-00231*
X-00043Y-00228*
X-00041Y-00227*
X-00031Y-00238D02*
Y-00227D01*
X-00029Y-00238D02*
Y-00227D01*
X-00035Y-00238D02*
X-00025D01*
X-00017Y-00257D02*
Y-00227D01*
X-00015Y-00257D02*
X00001Y-00229D01*
X-00015Y-00254D02*
X00001Y-00227D01*
Y-00257D02*
Y-00227D01*
X-00021Y-00257D02*
X-00015D01*
X-00002D02*
X00005D01*
X-00021Y-00227D02*
X-00012D01*
X00013Y-00257D02*
Y-00227D01*
X00015Y-00257D02*
Y-00227D01*
X00009Y-00257D02*
X00023D01*
X00027Y-00255*
X0003Y-00252*
X00032Y-00249*
X00033Y-00245*
Y-00238*
X00032Y-00234*
X0003Y-00231*
X00027Y-00228*
X00023Y-00227*
X00009*
X00023Y-00257D02*
X00026Y-00255D01*
X00029Y-00252*
X0003Y-00249*
X00032Y-00245*
Y-00238*
X0003Y-00234*
X00029Y-00231*
X00026Y-00228*
X00023Y-00227*
X-00031Y00227D02*
X-00029Y00231D01*
Y00223*
X-00031Y00227*
X-00033Y00224*
X-00038Y00223*
X-00041*
X-00045Y00224*
X-00048Y00227*
X-00049Y0023*
X-00051Y00234*
Y00241*
X-00049Y00245*
X-00048Y00248*
X-00045Y00251*
X-00041Y00252*
X-00038*
X-00033Y00251*
X-00031Y00248*
X-00041Y00223D02*
X-00043Y00224D01*
X-00046Y00227*
X-00048Y0023*
X-00049Y00234*
Y00241*
X-00048Y00245*
X-00046Y00248*
X-00043Y00251*
X-00041Y00252*
X-00031Y00241D02*
Y00252D01*
X-00029Y00241D02*
Y00252D01*
X-00035Y00241D02*
X-00025D01*
X-00017Y00223D02*
Y00252D01*
X-00015Y00223D02*
X00001Y0025D01*
X-00015Y00225D02*
X00001Y00252D01*
Y00223D02*
Y00252D01*
X-00021Y00223D02*
X-00015D01*
X-00002D02*
X00005D01*
X-00021Y00252D02*
X-00012D01*
X00013Y00223D02*
Y00252D01*
X00015Y00223D02*
Y00252D01*
X00009Y00223D02*
X00023D01*
X00027Y00224*
X0003Y00227*
X00032Y0023*
X00033Y00234*
Y00241*
X00032Y00245*
X0003Y00248*
X00027Y00251*
X00023Y00252*
X00009*
X00023Y00223D02*
X00026Y00224D01*
X00029Y00227*
X0003Y0023*
X00032Y00234*
Y00241*
X0003Y00245*
X00029Y00248*
X00026Y00251*
X00023Y00252*
X-00611Y00567D02*
X-00609Y00571D01*
Y00563*
X-00611Y00567*
X-00613Y00564*
X-00618Y00563*
X-00621*
X-00625Y00564*
X-00628Y00567*
X-00629Y0057*
X-00631Y00574*
Y00581*
X-00629Y00585*
X-00628Y00588*
X-00625Y00591*
X-00621Y00592*
X-00618*
X-00613Y00591*
X-00611Y00588*
X-00621Y00563D02*
X-00623Y00564D01*
X-00626Y00567*
X-00628Y0057*
X-00629Y00574*
Y00581*
X-00628Y00585*
X-00626Y00588*
X-00623Y00591*
X-00621Y00592*
X-00611Y00581D02*
Y00592D01*
X-00609Y00581D02*
Y00592D01*
X-00615Y00581D02*
X-00605D01*
X-00597Y00563D02*
Y00592D01*
X-00595Y00563D02*
X-00578Y0059D01*
X-00595Y00565D02*
X-00578Y00592D01*
Y00563D02*
Y00592D01*
X-00601Y00563D02*
X-00595D01*
X-00582D02*
X-00574D01*
X-00601Y00592D02*
X-00592D01*
X-00566Y00563D02*
Y00592D01*
X-00564Y00563D02*
Y00592D01*
X-0057Y00563D02*
X-00556D01*
X-00552Y00564*
X-00549Y00567*
X-00547Y0057*
X-00546Y00574*
Y00581*
X-00547Y00585*
X-00549Y00588*
X-00552Y00591*
X-00556Y00592*
X-0057*
X-00556Y00563D02*
X-00553Y00564D01*
X-0055Y00567*
X-00549Y0057*
X-00547Y00574*
Y00581*
X-00549Y00585*
X-0055Y00588*
X-00553Y00591*
X-00556Y00592*
X-01132Y00257D02*
X-01128Y00255D01*
X-01137*
X-01132Y00257*
X-01135Y00259*
X-01137Y00264*
Y00267*
X-01135Y00271*
X-01132Y00274*
X-01129Y00275*
X-01125Y00277*
X-01118*
X-01114Y00275*
X-01111Y00274*
X-01108Y00271*
X-01107Y00267*
Y00264*
X-01108Y00259*
X-01111Y00257*
X-01137Y00267D02*
X-01135Y00269D01*
X-01132Y00272*
X-01129Y00274*
X-01125Y00275*
X-01118*
X-01114Y00274*
X-01111Y00272*
X-01108Y00269*
X-01107Y00267*
X-01118Y00257D02*
X-01107D01*
X-01118Y00255D02*
X-01107D01*
X-01118Y00261D02*
Y00251D01*
X-01137Y00243D02*
X-01107D01*
X-01137Y00241D02*
X-01109Y00224D01*
X-01134Y00241D02*
X-01107Y00224D01*
X-01137D02*
X-01107D01*
X-01137Y00247D02*
Y00241D01*
Y00228D02*
Y0022D01*
X-01107Y00247D02*
Y00238D01*
X-01137Y00212D02*
X-01107D01*
X-01137Y0021D02*
X-01107D01*
X-01137Y00216D02*
Y00202D01*
X-01135Y00198*
X-01132Y00195*
X-01129Y00193*
X-01125Y00192*
X-01118*
X-01114Y00193*
X-01111Y00195*
X-01108Y00198*
X-01107Y00202*
Y00216*
X-01137Y00202D02*
X-01135Y00199D01*
X-01132Y00196*
X-01129Y00195*
X-01125Y00193*
X-01118*
X-01114Y00195*
X-01111Y00196*
X-01108Y00199*
X-01107Y00202*
X-01016Y-00307D02*
X-01018Y-00311D01*
Y-00303*
X-01016Y-00307*
X-01014Y-00304*
X-01009Y-00303*
X-01006*
X-01002Y-00304*
X-00999Y-00307*
X-00998Y-0031*
X-00997Y-00314*
Y-00321*
X-00998Y-00325*
X-00999Y-00328*
X-01002Y-00331*
X-01006Y-00332*
X-01009*
X-01014Y-00331*
X-01016Y-00328*
X-01006Y-00303D02*
X-01004Y-00304D01*
X-01001Y-00307*
X-00999Y-0031*
X-00998Y-00314*
Y-00321*
X-00999Y-00325*
X-01001Y-00328*
X-01004Y-00331*
X-01006Y-00332*
X-01016Y-00321D02*
Y-00332D01*
X-01018Y-00321D02*
Y-00332D01*
X-01012Y-00321D02*
X-01022D01*
X-0103Y-00303D02*
Y-00332D01*
X-01032Y-00303D02*
X-01049Y-0033D01*
X-01032Y-00305D02*
X-01049Y-00332D01*
Y-00303D02*
Y-00332D01*
X-01026Y-00303D02*
X-01032D01*
X-01045D02*
X-01053D01*
X-01026Y-00332D02*
X-01035D01*
X-01061Y-00303D02*
Y-00332D01*
X-01063Y-00303D02*
Y-00332D01*
X-01057Y-00303D02*
X-01071D01*
X-01075Y-00304*
X-01078Y-00307*
X-0108Y-0031*
X-01081Y-00314*
Y-00321*
X-0108Y-00325*
X-01078Y-00328*
X-01075Y-00331*
X-01071Y-00332*
X-01057*
X-01071Y-00303D02*
X-01074Y-00304D01*
X-01077Y-00307*
X-01078Y-0031*
X-0108Y-00314*
Y-00321*
X-01078Y-00325*
X-01077Y-00328*
X-01074Y-00331*
X-01071Y-00332*
X-00631Y-00592D02*
X-00629Y-00588D01*
Y-00597*
X-00631Y-00592*
X-00633Y-00595*
X-00638Y-00597*
X-00641*
X-00645Y-00595*
X-00648Y-00592*
X-00649Y-00589*
X-00651Y-00585*
Y-00578*
X-00649Y-00574*
X-00648Y-00571*
X-00645Y-00568*
X-00641Y-00567*
X-00638*
X-00633Y-00568*
X-00631Y-00571*
X-00641Y-00597D02*
X-00643Y-00595D01*
X-00646Y-00592*
X-00648Y-00589*
X-00649Y-00585*
Y-00578*
X-00648Y-00574*
X-00646Y-00571*
X-00643Y-00568*
X-00641Y-00567*
X-00631Y-00578D02*
Y-00567D01*
X-00629Y-00578D02*
Y-00567D01*
X-00635Y-00578D02*
X-00625D01*
X-00617Y-00597D02*
Y-00567D01*
X-00615Y-00597D02*
X-00598Y-00569D01*
X-00615Y-00594D02*
X-00598Y-00567D01*
Y-00597D02*
Y-00567D01*
X-00621Y-00597D02*
X-00615D01*
X-00602D02*
X-00594D01*
X-00621Y-00567D02*
X-00612D01*
X-00586Y-00597D02*
Y-00567D01*
X-00584Y-00597D02*
Y-00567D01*
X-0059Y-00597D02*
X-00576D01*
X-00572Y-00595*
X-00569Y-00592*
X-00567Y-00589*
X-00566Y-00585*
Y-00578*
X-00567Y-00574*
X-00569Y-00571*
X-00572Y-00568*
X-00576Y-00567*
X-0059*
X-00576Y-00597D02*
X-00573Y-00595D01*
X-0057Y-00592*
X-00569Y-00589*
X-00567Y-00585*
Y-00578*
X-00569Y-00574*
X-0057Y-00571*
X-00573Y-00568*
X-00576Y-00567*
M02*