%FSTAX23Y23*%
%MOIN*%
%SFA1B1*%

%IPPOS*%
%AMD21*
4,1,8,-0.019700,0.000000,-0.019700,0.000000,0.000000,-0.019700,0.000000,-0.019700,0.019700,0.000000,0.019700,0.000000,0.000000,0.019700,0.000000,0.019700,-0.019700,0.000000,0.0*
1,1,0.039370,0.000000,0.000000*
1,1,0.039370,0.000000,0.000000*
1,1,0.039370,0.000000,0.000000*
1,1,0.039370,0.000000,0.000000*
%
%AMD28*
4,1,8,-0.009800,0.017100,-0.009800,0.017100,-0.017100,-0.009800,-0.017100,-0.009800,0.009900,-0.017100,0.009900,-0.017100,0.017100,0.009800,0.017100,0.009800,-0.009800,0.017100,0.0*
1,1,0.039370,0.000000,0.000000*
1,1,0.039370,0.000000,0.000000*
1,1,0.039370,0.000000,0.000000*
1,1,0.039370,0.000000,0.000000*
%
%AMD29*
4,1,8,-0.009800,-0.017100,-0.009800,-0.017100,0.017100,-0.009800,0.017100,-0.009800,0.009800,0.017100,0.009800,0.017100,-0.017100,0.009800,-0.017100,0.009800,-0.009800,-0.017100,0.0*
1,1,0.039370,0.000000,0.000000*
1,1,0.039370,0.000000,0.000000*
1,1,0.039370,0.000000,0.000000*
1,1,0.039370,0.000000,0.000000*
%
%ADD19R,0.025197X0.035039*%
G04~CAMADD=21~8~0.0~0.0~393.7~393.7~196.9~0.0~15~0.0~0.0~0.0~0.0~0~0.0~0.0~0.0~0.0~0~0.0~0.0~0.0~90.0~394.0~393.0*
%ADD21D21*%
G04~CAMADD=28~8~0.0~0.0~393.7~393.7~196.9~0.0~15~0.0~0.0~0.0~0.0~0~0.0~0.0~0.0~0.0~0~0.0~0.0~0.0~30.0~392.0~392.0*
%ADD28D28*%
G04~CAMADD=29~8~0.0~0.0~393.7~393.7~196.9~0.0~15~0.0~0.0~0.0~0.0~0~0.0~0.0~0.0~0.0~0~0.0~0.0~0.0~150.0~392.0~392.0*
%ADD29D29*%
%ADD38R,0.033465X0.011811*%
%ADD39R,0.074803X0.015750*%
%ADD40R,0.031496X0.037401*%
%ADD41R,0.224409X0.224409*%
%ADD42R,0.019685X0.035433*%
%ADD43R,0.011811X0.033465*%
%ADD44R,0.035039X0.025197*%
%ADD45R,0.043000X0.055000*%
%ADD46R,0.055000X0.043000*%
%ADD47R,0.023622X0.031496*%
G54D19*
X-00995Y00137D03*
X-0094D03*
G54D21*
X-00006Y-00305D03*
Y00305D03*
X-01163Y00325D03*
X01144Y-00325D03*
X-00318Y-00487D03*
X-00881Y00487D03*
G54D28*
X00581Y-0065D03*
Y0065D03*
X-006Y-0065D03*
Y0065D03*
X-00881Y-00487D03*
X-00318Y00487D03*
G54D29*
X-01163Y-00325D03*
X01144Y00325D03*
X-01163Y0D03*
G54D38*
X-00757Y00084D03*
X-00485Y00064D03*
X-00757D03*
Y00044D03*
X-00485Y00084D03*
Y00044D03*
X-00757Y00123D03*
Y00103D03*
Y00025D03*
Y00005D03*
Y-00014D03*
Y-00033D03*
Y-00053D03*
Y-00073D03*
Y-00092D03*
X-00485D03*
Y-00073D03*
Y-00053D03*
Y-00033D03*
Y-00014D03*
Y00005D03*
Y00025D03*
Y00103D03*
Y00123D03*
G54D39*
X-00298Y00183D03*
Y0023D03*
Y00277D03*
G54D40*
X-00678Y-00197D03*
X-00994Y00227D03*
X-00728Y-00197D03*
X-00945Y00227D03*
G54D41*
X-00621Y00015D03*
G54D42*
X-01054Y00211D03*
Y00302D03*
G54D43*
X-00592Y00151D03*
X-00572D03*
X-00611D03*
X-00729Y-0012D03*
X-0071D03*
X-0069D03*
X-0067D03*
X-00651D03*
X-00631D03*
X-00611D03*
X-00592D03*
X-00572D03*
X-00552D03*
X-00532D03*
X-00513D03*
Y00151D03*
X-00532D03*
X-00552D03*
X-00631D03*
X-00651D03*
X-0067D03*
X-0069D03*
X-0071D03*
X-00729D03*
G54D44*
X-0089Y00283D03*
Y00228D03*
G54D45*
X-00915Y0005D03*
X-00988D03*
G54D46*
X-00798Y00248D03*
Y00321D03*
G54D47*
X-00998Y00301D03*
X-00943D03*
M02*