G04*
G04 #@! TF.GenerationSoftware,Altium Limited,Altium Designer,25.8.1 (18)*
G04*
G04 Layer_Physical_Order=3*
G04 Layer_Color=16440176*
%FSLAX44Y44*%
%MOMM*%
G71*
G04*
G04 #@! TF.SameCoordinates,2BA7E10B-6E93-4220-B227-DF091A9E169F*
G04*
G04*
G04 #@! TF.FilePolarity,Positive*
G04*
G01*
G75*
%ADD43C,1.5700*%
%ADD44R,1.5700X1.5700*%
%ADD50C,0.3000*%
%ADD51C,0.4000*%
%ADD52C,1.5240*%
D43*
X-131629Y-92102D02*
D03*
X-157029D02*
D03*
D44*
X-182429D02*
D03*
D50*
X-167894Y-149705D02*
Y103123D01*
D51*
X-261865Y25458D02*
D03*
X-284043Y-64430D02*
D03*
X-271864Y-49913D02*
D03*
X-79542Y92367D02*
D03*
X-83665Y-92809D02*
D03*
X-97536Y7365D02*
D03*
X-66802Y64007D02*
D03*
X-100584Y70611D02*
D03*
X64008Y-9653D02*
D03*
X61214Y-18289D02*
D03*
X70866Y-102617D02*
D03*
X81788Y-35561D02*
D03*
X-280670Y55879D02*
D03*
X-32004Y58673D02*
D03*
X-84582Y64007D02*
D03*
X68834Y9084D02*
D03*
X170180Y18541D02*
D03*
X138589Y-69597D02*
D03*
X147599Y-85681D02*
D03*
X-103886Y53085D02*
D03*
X-84822D02*
D03*
X-102334Y33498D02*
D03*
X-238506Y-34799D02*
D03*
X-262636Y82601D02*
D03*
X66040Y-58421D02*
D03*
X194310Y-99823D02*
D03*
X65278Y-103125D02*
D03*
X-181102Y114553D02*
D03*
X176022Y54355D02*
D03*
X82042Y49275D02*
D03*
X117856Y68325D02*
D03*
X47244Y47243D02*
D03*
X-138185Y58263D02*
D03*
X-124185Y95757D02*
D03*
X-177292Y-64771D02*
D03*
D52*
X283149Y41032D02*
D03*
X193149Y-41968D02*
D03*
M02*
