G04*
G04 #@! TF.GenerationSoftware,Altium Limited,Altium Designer,25.8.1 (18)*
G04*
G04 Layer_Physical_Order=4*
G04 Layer_Color=16711680*
%FSLAX44Y44*%
%MOMM*%
G71*
G04*
G04 #@! TF.SameCoordinates,2BA7E10B-6E93-4220-B227-DF091A9E169F*
G04*
G04*
G04 #@! TF.FilePolarity,Positive*
G04*
G01*
G75*
%ADD26R,0.6400X0.8900*%
G04:AMPARAMS|DCode=28|XSize=1mm|YSize=1mm|CornerRadius=0.5mm|HoleSize=0mm|Usage=FLASHONLY|Rotation=90.000|XOffset=0mm|YOffset=0mm|HoleType=Round|Shape=RoundedRectangle|*
%AMROUNDEDRECTD28*
21,1,1.0000,0.0000,0,0,90.0*
21,1,0.0000,1.0000,0,0,90.0*
1,1,1.0000,0.0000,0.0000*
1,1,1.0000,0.0000,0.0000*
1,1,1.0000,0.0000,0.0000*
1,1,1.0000,0.0000,0.0000*
%
%ADD28ROUNDEDRECTD28*%
G04:AMPARAMS|DCode=32|XSize=1mm|YSize=1mm|CornerRadius=0.5mm|HoleSize=0mm|Usage=FLASHONLY|Rotation=30.000|XOffset=0mm|YOffset=0mm|HoleType=Round|Shape=RoundedRectangle|*
%AMROUNDEDRECTD32*
21,1,1.0000,0.0000,0,0,30.0*
21,1,0.0000,1.0000,0,0,30.0*
1,1,1.0000,0.0000,0.0000*
1,1,1.0000,0.0000,0.0000*
1,1,1.0000,0.0000,0.0000*
1,1,1.0000,0.0000,0.0000*
%
%ADD32ROUNDEDRECTD32*%
G04:AMPARAMS|DCode=33|XSize=1mm|YSize=1mm|CornerRadius=0.5mm|HoleSize=0mm|Usage=FLASHONLY|Rotation=150.000|XOffset=0mm|YOffset=0mm|HoleType=Round|Shape=RoundedRectangle|*
%AMROUNDEDRECTD33*
21,1,1.0000,0.0000,0,0,150.0*
21,1,0.0000,1.0000,0,0,150.0*
1,1,1.0000,0.0000,0.0000*
1,1,1.0000,0.0000,0.0000*
1,1,1.0000,0.0000,0.0000*
1,1,1.0000,0.0000,0.0000*
%
%ADD33ROUNDEDRECTD33*%
%ADD41C,0.8890*%
%ADD42C,0.7112*%
%ADD43C,1.5700*%
%ADD44R,1.5700X1.5700*%
%ADD50C,0.3000*%
%ADD51C,0.4000*%
%ADD53R,0.8500X0.3000*%
%ADD54R,1.9000X0.4001*%
%ADD55R,0.8000X0.9500*%
%ADD56R,5.7000X5.7000*%
%ADD57R,0.5000X0.9000*%
%ADD58R,0.3000X0.8500*%
%ADD59R,0.8900X0.6400*%
%ADD60R,1.0922X1.3970*%
%ADD61R,1.3970X1.0922*%
%ADD62R,0.6000X0.8000*%
G36*
X164770Y163820D02*
X163932Y162284D01*
X161738Y159559D01*
X159094Y157268D01*
X156085Y155483D01*
X152806Y154263D01*
X149363Y153644D01*
X145864Y153648D01*
X142422Y154275D01*
X139146Y155503D01*
X136141Y157294D01*
X133503Y159592D01*
X131315Y162322D01*
X130481Y163860D01*
X130481Y163860D01*
X147613Y173750D01*
X164770Y163820D01*
D02*
G37*
G36*
X-135230D02*
X-136067Y162284D01*
X-138261Y159559D01*
X-140905Y157268D01*
X-143914Y155483D01*
X-147193Y154263D01*
X-150637Y153644D01*
X-154135Y153648D01*
X-157577Y154275D01*
X-160853Y155503D01*
X-163858Y157294D01*
X-166497Y159592D01*
X-168685Y162322D01*
X-169518Y163860D01*
X-169518Y163860D01*
X-152387Y173750D01*
X-135230Y163820D01*
D02*
G37*
G36*
X-53382Y116601D02*
X-54443Y114685D01*
X-57145Y111236D01*
X-60359Y108258D01*
X-64004Y105827D01*
X-67987Y104003D01*
X-72209Y102831D01*
X-76563Y102343D01*
X-80940Y102550D01*
X-85228Y103447D01*
X-89321Y105010D01*
X-93115Y107202D01*
X-96514Y109967D01*
X-99432Y113234D01*
X-101798Y116923D01*
X-103549Y120939D01*
X-104643Y125181D01*
X-105052Y129543D01*
X-104766Y133915D01*
X-103791Y138187D01*
X-102153Y142250D01*
X-101023Y144127D01*
X-101023D01*
X-53382Y116601D01*
D02*
G37*
G36*
X-202692Y142205D02*
X-201056Y138140D01*
X-200084Y133868D01*
X-199801Y129496D01*
X-200212Y125134D01*
X-201309Y120892D01*
X-203063Y116877D01*
X-205431Y113190D01*
X-208351Y109925D01*
X-211752Y107162D01*
X-215547Y104973D01*
X-219641Y103411D01*
X-223930Y102517D01*
X-228307Y102313D01*
X-232660Y102804D01*
X-236882Y103978D01*
X-240864Y105805D01*
X-244507Y108239D01*
X-247719Y111219D01*
X-250419Y114669D01*
X-251479Y116586D01*
X-251479Y116586D01*
X-203821Y144082D01*
X-202692Y142205D01*
D02*
G37*
G36*
X-98146Y77165D02*
X-98231Y75158D01*
X-99934Y73881D01*
X-101235D01*
X-102311Y73435D01*
X-145796D01*
X-145796Y73435D01*
X-146877Y73220D01*
X-147793Y72608D01*
X-152368Y68033D01*
X-152980Y67117D01*
X-153195Y66036D01*
X-153195Y66036D01*
Y48408D01*
X-155195Y47580D01*
X-191253Y83638D01*
X-192169Y84250D01*
X-193250Y84465D01*
X-194520Y85839D01*
Y88371D01*
X-211030D01*
Y86641D01*
X-213030Y85813D01*
X-218150Y90933D01*
X-217322Y92933D01*
X-127782D01*
X-126757Y91908D01*
X-125455Y91369D01*
Y95757D01*
X-122915D01*
Y91369D01*
X-121614Y91908D01*
X-120337Y93185D01*
X-119645Y94854D01*
Y95836D01*
X-117648Y96667D01*
X-98146Y77165D01*
D02*
G37*
G36*
X141940Y152987D02*
X142068Y152992D01*
X142176Y152922D01*
X145618Y152296D01*
X145744Y152323D01*
X145863Y152274D01*
X149361Y152270D01*
X149480Y152319D01*
X149606Y152291D01*
X153049Y152909D01*
X153158Y152979D01*
X153286Y152974D01*
X155140Y153664D01*
X228200Y80604D01*
X229117Y79991D01*
X230198Y79776D01*
X277851D01*
X278535Y77865D01*
X278622Y77770D01*
X278638Y77642D01*
X280384Y74610D01*
X280486Y74532D01*
X280525Y74409D01*
X282782Y71736D01*
X282896Y71677D01*
X282957Y71564D01*
X285653Y69335D01*
X285776Y69297D01*
X285856Y69196D01*
X288906Y67482D01*
X289034Y67467D01*
X289130Y67381D01*
X292436Y66237D01*
X292564Y66245D01*
X292674Y66178D01*
X295794Y65693D01*
Y-65754D01*
X292684Y-66230D01*
X292575Y-66297D01*
X292446Y-66289D01*
X289137Y-67425D01*
X289041Y-67510D01*
X288913Y-67526D01*
X285859Y-69232D01*
X285779Y-69333D01*
X285657Y-69371D01*
X282955Y-71593D01*
X282894Y-71707D01*
X282780Y-71766D01*
X280516Y-74433D01*
X280477Y-74556D01*
X280375Y-74634D01*
X278622Y-77662D01*
X278605Y-77789D01*
X278519Y-77884D01*
X277837Y-79777D01*
X230198D01*
X229117Y-79992D01*
X228200Y-80604D01*
X155119Y-153685D01*
X153259Y-152987D01*
X153131Y-152992D01*
X153023Y-152922D01*
X150423Y-152449D01*
Y-89278D01*
X151448Y-88253D01*
X151987Y-86952D01*
X143211D01*
X143750Y-88253D01*
X144775Y-89278D01*
Y-152438D01*
X142149Y-152909D01*
X142041Y-152979D01*
X141913Y-152974D01*
X138634Y-154195D01*
X138540Y-154283D01*
X138413Y-154301D01*
X135403Y-156085D01*
X135326Y-156188D01*
X135204Y-156229D01*
X132560Y-158520D01*
X132503Y-158635D01*
X132390Y-158697D01*
X130390Y-161180D01*
X16590Y-95478D01*
X17734Y-92521D01*
X17731Y-92393D01*
X17802Y-92285D01*
X18464Y-88850D01*
X18438Y-88724D01*
X18489Y-88606D01*
X18530Y-85108D01*
X18482Y-84988D01*
X18511Y-84863D01*
X18086Y-82345D01*
X19306Y-80543D01*
X19620Y-80345D01*
X31646D01*
X61757Y-110456D01*
X61757Y-110456D01*
X62673Y-111068D01*
X63754Y-111284D01*
X63754Y-111283D01*
X99727D01*
X99727Y-111284D01*
X100808Y-111068D01*
X101724Y-110456D01*
X137319Y-74861D01*
Y-70867D01*
X133325D01*
X98557Y-105635D01*
X75155D01*
X75035Y-105542D01*
X73984Y-103635D01*
X74136Y-103268D01*
Y-101967D01*
X73690Y-100891D01*
Y-86361D01*
X73475Y-85280D01*
X72863Y-84364D01*
X72863Y-84364D01*
X63784Y-75285D01*
Y-63191D01*
X65389Y-61691D01*
X66690D01*
X67766Y-61245D01*
X151738D01*
X191092Y-100599D01*
X191538Y-101676D01*
X192458Y-102595D01*
X193659Y-103093D01*
X194960D01*
X196162Y-102595D01*
X197082Y-101676D01*
X197580Y-100474D01*
Y-99173D01*
X197082Y-97971D01*
X196162Y-97051D01*
X195086Y-96605D01*
X154905Y-56424D01*
X153989Y-55812D01*
X152908Y-55597D01*
X152908Y-55597D01*
X76703D01*
X75874Y-53597D01*
X88865Y-40606D01*
X88865Y-40606D01*
X89477Y-39690D01*
X89692Y-38609D01*
Y-33021D01*
X89477Y-31940D01*
X88865Y-31024D01*
X88865Y-31024D01*
X86579Y-28738D01*
X85663Y-28126D01*
X84582Y-27911D01*
X84582Y-27911D01*
X68359D01*
X67594Y-26063D01*
X70831Y-22826D01*
X71443Y-21910D01*
X71658Y-20829D01*
X71658Y-20829D01*
Y5488D01*
X72683Y6512D01*
X73222Y7814D01*
X68834D01*
Y10354D01*
X73222D01*
X72683Y11656D01*
X71406Y12933D01*
X69737Y13624D01*
X67931D01*
X67848Y13717D01*
X68744Y15717D01*
X166584D01*
X167608Y14692D01*
X168910Y14153D01*
Y18541D01*
Y22929D01*
X167608Y22390D01*
X166584Y21365D01*
X58471D01*
X54726Y25110D01*
X11101Y68735D01*
X11198Y70732D01*
X12244Y71593D01*
X12305Y71707D01*
X12419Y71766D01*
X14682Y74433D01*
X14722Y74556D01*
X14824Y74634D01*
X14860Y74696D01*
X59921D01*
X59921Y74696D01*
X61002Y74911D01*
X61918Y75524D01*
X140079Y153685D01*
X141940Y152987D01*
D02*
G37*
G36*
X-84082Y92234D02*
Y91464D01*
X-83391Y89796D01*
X-82114Y88519D01*
X-80812Y87979D01*
Y92367D01*
Y96842D01*
X-84961Y99943D01*
X-84119Y101810D01*
X-81221Y101204D01*
X-81108Y101226D01*
X-81004Y101177D01*
X-76628Y100970D01*
X-76520Y101009D01*
X-76410Y100977D01*
X-72056Y101465D01*
X-71955Y101521D01*
X-71842Y101507D01*
X-67620Y102678D01*
X-67529Y102748D01*
X-67415Y102753D01*
X-64898Y103905D01*
X-63277Y102284D01*
Y74270D01*
X-65066Y73763D01*
Y73763D01*
X-86606D01*
X-87974Y75197D01*
Y84668D01*
X-87974Y84668D01*
X-88189Y85749D01*
X-88801Y86665D01*
X-114918Y112782D01*
X-113605Y114298D01*
X-84082Y92234D01*
D02*
G37*
G36*
X-2400Y87176D02*
X14278Y96781D01*
X15189Y95288D01*
X16452Y92025D01*
X17114Y88590D01*
X17155Y85092D01*
X16573Y81642D01*
X15387Y78351D01*
X13634Y75323D01*
X11371Y72655D01*
X8669Y70432D01*
X5615Y68726D01*
X2306Y67589D01*
X-1152Y67059D01*
X-2400Y67093D01*
X-3649Y67059D01*
X-7107Y67589D01*
X-10416Y68726D01*
X-13470Y70432D01*
X-16171Y72655D01*
X-18435Y75323D01*
X-20187Y78351D01*
X-21374Y81642D01*
X-21956Y85092D01*
X-21915Y88590D01*
X-21253Y92025D01*
X-19990Y95288D01*
X-19079Y96781D01*
Y96781D01*
X-2400Y87176D01*
D02*
G37*
G36*
X-284777Y95288D02*
X-283514Y92025D01*
X-282852Y88590D01*
X-282811Y85092D01*
X-283393Y81642D01*
X-284580Y78351D01*
X-286332Y75323D01*
X-288596Y72655D01*
X-291297Y70432D01*
X-294351Y68726D01*
X-297660Y67589D01*
X-301118Y67059D01*
X-302867Y67106D01*
X-302867Y67106D01*
Y86888D01*
X-285688Y96781D01*
X-284777Y95288D01*
D02*
G37*
G36*
X298113Y86865D02*
X298091Y67041D01*
X296342Y66999D01*
X292885Y67536D01*
X289579Y68680D01*
X286529Y70394D01*
X283833Y72623D01*
X281575Y75296D01*
X279830Y78328D01*
X278651Y81622D01*
X278077Y85073D01*
X278126Y88571D01*
X278796Y92005D01*
X280066Y95265D01*
X280981Y96756D01*
X280981D01*
X298113Y86865D01*
D02*
G37*
G36*
X-283092Y74184D02*
X-283025Y73848D01*
X-282413Y72932D01*
X-273015Y63534D01*
X-272099Y62922D01*
X-271909Y62884D01*
X-272106Y60884D01*
X-272926D01*
Y58703D01*
X-277074D01*
X-278099Y59728D01*
X-279400Y60267D01*
Y55879D01*
Y51491D01*
X-278099Y52030D01*
X-277074Y53055D01*
X-272926D01*
Y46804D01*
X-270710D01*
Y31479D01*
X-270710Y31479D01*
X-270495Y30398D01*
X-269883Y29482D01*
X-267129Y26728D01*
X-261865D01*
Y24188D01*
X-266253D01*
X-265714Y22886D01*
X-264436Y21609D01*
X-262768Y20918D01*
X-262247D01*
Y3576D01*
X-262247Y3576D01*
X-262032Y2495D01*
X-261420Y1579D01*
X-257334Y-2506D01*
X-257334Y-2506D01*
X-256418Y-3119D01*
X-255337Y-3333D01*
X-238746D01*
X-238745Y-3334D01*
X-237665Y-3119D01*
X-236748Y-2506D01*
X-230652Y3590D01*
X-230652Y3590D01*
X-230040Y4506D01*
X-230007Y4671D01*
X-227607D01*
X-226778Y2671D01*
X-235250Y-5801D01*
X-272571D01*
X-273868Y-4279D01*
X-273574Y-2448D01*
X-273601Y-2336D01*
X-273557Y-2230D01*
X-273556Y2151D01*
X-273599Y2257D01*
X-273573Y2369D01*
X-274265Y6695D01*
X-274325Y6793D01*
X-274316Y6907D01*
X-275684Y11070D01*
X-275759Y11157D01*
X-275768Y11271D01*
X-277778Y15164D01*
X-277865Y15238D01*
X-277893Y15350D01*
X-280492Y18876D01*
X-280591Y18936D01*
X-280636Y19041D01*
X-283761Y22112D01*
X-283867Y22155D01*
X-283928Y22252D01*
X-287500Y24790D01*
X-287612Y24815D01*
X-287687Y24901D01*
X-291615Y26842D01*
X-291730Y26849D01*
X-291818Y26923D01*
X-296004Y28217D01*
X-296118Y28206D01*
X-296217Y28265D01*
X-300554Y28881D01*
X-300595Y28912D01*
Y65749D01*
X-297827Y66173D01*
X-297465Y65632D01*
X-285715Y53882D01*
X-285715Y53882D01*
X-284799Y53270D01*
X-284403Y53191D01*
X-283242Y52030D01*
X-281940Y51491D01*
Y55879D01*
Y60267D01*
X-283242Y59728D01*
X-283407Y59562D01*
X-291027Y67181D01*
X-290826Y68630D01*
X-290425Y69369D01*
X-290404Y69387D01*
X-287722Y71593D01*
X-287662Y71707D01*
X-287547Y71766D01*
X-285284Y74433D01*
X-285245Y74556D01*
X-285143Y74634D01*
X-283092Y74184D01*
D02*
G37*
G36*
X-21390Y95478D02*
X-22535Y92521D01*
X-22532Y92393D01*
X-22603Y92285D01*
X-23265Y88850D01*
X-23239Y88724D01*
X-23290Y88606D01*
X-23330Y85108D01*
X-23283Y84988D01*
X-23311Y84863D01*
X-22729Y81413D01*
X-22661Y81304D01*
X-22667Y81176D01*
X-21481Y77884D01*
X-21394Y77789D01*
X-21377Y77662D01*
X-19776Y74896D01*
X-30734Y63937D01*
Y59943D01*
X-26740D01*
X-15972Y70711D01*
X-14343Y69371D01*
X-14220Y69333D01*
X-14140Y69232D01*
X-11086Y67526D01*
X-10958Y67510D01*
X-10862Y67425D01*
X-7553Y66289D01*
X-7425Y66297D01*
X-7315Y66230D01*
X-3857Y65700D01*
X-3732Y65731D01*
X-3612Y65685D01*
X-2400Y65718D01*
X-1189Y65685D01*
X-1069Y65731D01*
X-944Y65700D01*
X2514Y66230D01*
X2624Y66297D01*
X2753Y66289D01*
X4841Y67006D01*
X50732Y21116D01*
X55304Y16544D01*
X55304Y16544D01*
X64737Y7110D01*
X64985Y6512D01*
X66009Y5488D01*
Y-4778D01*
X65952Y-4856D01*
X64009Y-5661D01*
X34971Y23378D01*
X34054Y23990D01*
X32974Y24205D01*
X32973Y24205D01*
X-69555D01*
X-70384Y26205D01*
X-58455Y38134D01*
X-57843Y39050D01*
X-57628Y40131D01*
Y103454D01*
X-57628Y103454D01*
X-57843Y104535D01*
X-58455Y105451D01*
X-58548Y105544D01*
X-58589Y105625D01*
X-58387Y108212D01*
X-56211Y110228D01*
X-56163Y110332D01*
X-56063Y110388D01*
X-53361Y113837D01*
X-53261Y113878D01*
X-21390Y95478D01*
D02*
G37*
G36*
X-219548Y-916D02*
Y-3960D01*
X-262677Y-47089D01*
X-270138D01*
X-271214Y-46643D01*
X-272515D01*
X-273717Y-47141D01*
X-274636Y-48061D01*
X-275134Y-49263D01*
Y-50564D01*
X-274636Y-51766D01*
X-273717Y-52685D01*
X-272515Y-53183D01*
X-271214D01*
X-270138Y-52738D01*
X-261508D01*
X-261507Y-52738D01*
X-260427Y-52523D01*
X-259510Y-51910D01*
X-243624Y-36024D01*
X-241321Y-36549D01*
X-241278Y-36651D01*
X-240359Y-37571D01*
X-239157Y-38069D01*
X-237856D01*
X-236654Y-37571D01*
X-235734Y-36651D01*
X-235288Y-35575D01*
X-204468Y-4756D01*
X-202468Y-5584D01*
Y-98475D01*
X-209244Y-105250D01*
X-210998Y-106012D01*
X-214791Y-103820D01*
X-214905Y-103805D01*
X-214988Y-103727D01*
X-219081Y-102163D01*
X-219196Y-102166D01*
X-219290Y-102101D01*
X-223579Y-101204D01*
X-223692Y-101226D01*
X-223796Y-101177D01*
X-228172Y-100970D01*
X-228280Y-101009D01*
X-228390Y-100977D01*
X-232744Y-101465D01*
X-232845Y-101521D01*
X-232958Y-101507D01*
X-237180Y-102678D01*
X-237271Y-102748D01*
X-237385Y-102753D01*
X-241369Y-104577D01*
X-241447Y-104661D01*
X-241559Y-104683D01*
X-245204Y-107115D01*
X-245268Y-107210D01*
X-245375Y-107250D01*
X-248589Y-110228D01*
X-248637Y-110332D01*
X-248737Y-110388D01*
X-251439Y-113837D01*
X-251540Y-113878D01*
X-283436Y-95463D01*
X-282283Y-92504D01*
X-282285Y-92376D01*
X-282214Y-92268D01*
X-281544Y-88835D01*
X-281570Y-88709D01*
X-281519Y-88591D01*
X-281470Y-85092D01*
X-281518Y-84973D01*
X-281488Y-84848D01*
X-282062Y-81397D01*
X-282131Y-81287D01*
X-282124Y-81159D01*
X-283303Y-77865D01*
X-283389Y-77770D01*
X-283406Y-77642D01*
X-284542Y-75669D01*
X-282046Y-73173D01*
X-281434Y-72257D01*
X-281219Y-71176D01*
X-281219Y-71176D01*
Y-68026D01*
X-280194Y-67002D01*
X-279655Y-65700D01*
X-288431D01*
X-287892Y-67002D01*
X-287076Y-67818D01*
X-287144Y-69516D01*
X-288865Y-70621D01*
X-290421Y-69335D01*
X-290544Y-69297D01*
X-290623Y-69196D01*
X-293673Y-67482D01*
X-293801Y-67467D01*
X-293897Y-67381D01*
X-297204Y-66237D01*
X-297332Y-66245D01*
X-297442Y-66178D01*
X-300595Y-65687D01*
Y-28960D01*
X-300572Y-28942D01*
X-296234Y-28329D01*
X-296136Y-28271D01*
X-296021Y-28282D01*
X-291835Y-26990D01*
X-291747Y-26917D01*
X-291632Y-26909D01*
X-287703Y-24971D01*
X-287627Y-24885D01*
X-287515Y-24860D01*
X-283942Y-22324D01*
X-283881Y-22227D01*
X-283775Y-22184D01*
X-280648Y-19115D01*
X-280603Y-19010D01*
X-280504Y-18951D01*
X-277902Y-15426D01*
X-277875Y-15315D01*
X-277787Y-15240D01*
X-275828Y-11449D01*
X-234080D01*
X-234080Y-11449D01*
X-232999Y-11234D01*
X-232083Y-10622D01*
X-221548Y-87D01*
X-219548Y-916D01*
D02*
G37*
G36*
X-296410Y26904D02*
X-292224Y25609D01*
X-288296Y23669D01*
X-284724Y21131D01*
X-281599Y18060D01*
X-278999Y14534D01*
X-276990Y10640D01*
X-275622Y6478D01*
X-274930Y2152D01*
X-274932Y-2230D01*
X-275626Y-6556D01*
X-276997Y-10717D01*
X-279008Y-14609D01*
X-281610Y-18134D01*
X-284737Y-21203D01*
X-288311Y-23738D01*
X-292240Y-25676D01*
X-296427Y-26968D01*
X-300765Y-27581D01*
X-302955Y-27541D01*
Y-27541D01*
X-302938Y27480D01*
X-300748Y27520D01*
X-296410Y26904D01*
D02*
G37*
G36*
X2306Y-67589D02*
X5615Y-68726D01*
X8669Y-70432D01*
X11371Y-72655D01*
X13634Y-75323D01*
X15387Y-78351D01*
X16573Y-81642D01*
X17155Y-85092D01*
X17114Y-88590D01*
X16452Y-92025D01*
X15189Y-95288D01*
X14278Y-96781D01*
X-2400Y-87176D01*
X-19079Y-96781D01*
X-19990Y-95288D01*
X-21253Y-92025D01*
X-21915Y-88590D01*
X-21956Y-85092D01*
X-21374Y-81642D01*
X-20187Y-78351D01*
X-18435Y-75323D01*
X-16171Y-72655D01*
X-13470Y-70432D01*
X-10416Y-68726D01*
X-7107Y-67589D01*
X-3649Y-67059D01*
X-2400Y-67093D01*
X-1152Y-67059D01*
X2306Y-67589D01*
D02*
G37*
G36*
X-297653Y-67536D02*
X-294347Y-68680D01*
X-291297Y-70394D01*
X-288600Y-72623D01*
X-286343Y-75296D01*
X-284597Y-78328D01*
X-283419Y-81622D01*
X-282845Y-85073D01*
X-282893Y-88571D01*
X-283564Y-92005D01*
X-284834Y-95265D01*
X-285749Y-96756D01*
Y-96756D01*
X-302880Y-86865D01*
X-302859Y-67041D01*
X-301110Y-66999D01*
X-297653Y-67536D01*
D02*
G37*
G36*
X298099Y-67106D02*
X298099D01*
Y-86888D01*
X280921Y-96781D01*
X280009Y-95288D01*
X278747Y-92025D01*
X278084Y-88590D01*
X278044Y-85092D01*
X278626Y-81642D01*
X279812Y-78351D01*
X281565Y-75323D01*
X283828Y-72655D01*
X286530Y-70432D01*
X289584Y-68726D01*
X292893Y-67589D01*
X296351Y-67059D01*
X298099Y-67106D01*
D02*
G37*
G36*
X14278Y-96781D02*
X14278D01*
D01*
X14278D01*
D02*
G37*
G36*
X-72140Y-102804D02*
X-67918Y-103978D01*
X-63936Y-105805D01*
X-60293Y-108239D01*
X-57081Y-111219D01*
X-54381Y-114669D01*
X-53321Y-116586D01*
X-100979Y-144082D01*
X-102108Y-142205D01*
X-103744Y-138140D01*
X-104716Y-133868D01*
X-105000Y-129496D01*
X-104588Y-125134D01*
X-103491Y-120892D01*
X-101737Y-116877D01*
X-99369Y-113190D01*
X-96449Y-109925D01*
X-93048Y-107162D01*
X-89253Y-104973D01*
X-85159Y-103411D01*
X-80870Y-102517D01*
X-76493Y-102313D01*
X-72140Y-102804D01*
D02*
G37*
G36*
X-223860Y-102550D02*
X-219572Y-103447D01*
X-215479Y-105011D01*
X-211685Y-107202D01*
X-208286Y-109967D01*
X-205368Y-113234D01*
X-203002Y-116923D01*
X-201251Y-120939D01*
X-200157Y-125181D01*
X-199748Y-129543D01*
X-200034Y-133915D01*
X-201009Y-138187D01*
X-202647Y-142250D01*
X-203777Y-144127D01*
Y-144127D01*
X-251418Y-116601D01*
X-250357Y-114685D01*
X-247655Y-111236D01*
X-244441Y-108259D01*
X-240796Y-105827D01*
X-236813Y-104003D01*
X-232591Y-102831D01*
X-228237Y-102343D01*
X-223860Y-102550D01*
D02*
G37*
G36*
X149334Y-153648D02*
X152776Y-154275D01*
X156052Y-155503D01*
X159057Y-157294D01*
X161696Y-159592D01*
X163884Y-162322D01*
X164718Y-163860D01*
X164718D01*
X147586Y-173750D01*
X130429Y-163820D01*
X131266Y-162284D01*
X133461Y-159559D01*
X136105Y-157268D01*
X139114Y-155483D01*
X142392Y-154263D01*
X145836Y-153644D01*
X149334Y-153648D01*
D02*
G37*
G36*
X-150665D02*
X-147223Y-154275D01*
X-143947Y-155503D01*
X-140942Y-157294D01*
X-138303Y-159592D01*
X-136116Y-162322D01*
X-135282Y-163860D01*
X-135282D01*
X-152413Y-173750D01*
X-169570Y-163820D01*
X-168733Y-162284D01*
X-166539Y-159559D01*
X-163895Y-157268D01*
X-160886Y-155483D01*
X-157607Y-154263D01*
X-154164Y-153644D01*
X-150665Y-153648D01*
D02*
G37*
%LPC*%
G36*
X118506Y71595D02*
X117205D01*
X116129Y71149D01*
X68326D01*
X67245Y70934D01*
X66329Y70322D01*
X66329Y70322D01*
X46467Y50461D01*
X45392Y50015D01*
X44472Y49095D01*
X43974Y47893D01*
Y46592D01*
X44472Y45391D01*
X45392Y44471D01*
X46593Y43973D01*
X47894D01*
X49096Y44471D01*
X50016Y45391D01*
X50462Y46467D01*
X69496Y65501D01*
X116129D01*
X117205Y65055D01*
X118506D01*
X119708Y65553D01*
X120628Y66473D01*
X121126Y67674D01*
Y68975D01*
X120628Y70177D01*
X119708Y71097D01*
X118506Y71595D01*
D02*
G37*
G36*
X176672Y57625D02*
X175371D01*
X174295Y57179D01*
X87122D01*
X87122Y57179D01*
X86041Y56964D01*
X85125Y56352D01*
X85125Y56352D01*
X81265Y52493D01*
X80190Y52047D01*
X79270Y51127D01*
X78772Y49925D01*
Y48624D01*
X79270Y47422D01*
X80190Y46503D01*
X81391Y46005D01*
X82692D01*
X83894Y46503D01*
X84814Y47422D01*
X85260Y48499D01*
X88292Y51531D01*
X174295D01*
X175371Y51085D01*
X176672D01*
X177874Y51583D01*
X178794Y52502D01*
X179292Y53704D01*
Y55005D01*
X178794Y56207D01*
X177874Y57127D01*
X176672Y57625D01*
D02*
G37*
G36*
X284286Y46747D02*
X282013D01*
X279912Y45877D01*
X278304Y44269D01*
X277434Y42169D01*
Y39895D01*
X278304Y37795D01*
X279912Y36187D01*
X282013Y35317D01*
X284286D01*
X286387Y36187D01*
X287994Y37795D01*
X288864Y39895D01*
Y42169D01*
X287994Y44269D01*
X286387Y45877D01*
X284286Y46747D01*
D02*
G37*
G36*
X171450Y22929D02*
Y19811D01*
X174568D01*
X174029Y21112D01*
X172752Y22390D01*
X171450Y22929D01*
D02*
G37*
G36*
X174568Y17271D02*
X171450D01*
Y14153D01*
X172752Y14692D01*
X174029Y15969D01*
X174568Y17271D01*
D02*
G37*
G36*
X194109Y-37142D02*
X192189D01*
X190415Y-37877D01*
X189058Y-39234D01*
X188323Y-41008D01*
Y-42928D01*
X189058Y-44702D01*
X190415Y-46059D01*
X192189Y-46794D01*
X194109D01*
X195883Y-46059D01*
X197240Y-44702D01*
X197975Y-42928D01*
Y-41008D01*
X197240Y-39234D01*
X195883Y-37877D01*
X194109Y-37142D01*
D02*
G37*
G36*
X139859Y-65209D02*
Y-68327D01*
X142977D01*
X142438Y-67025D01*
X141160Y-65748D01*
X139859Y-65209D01*
D02*
G37*
G36*
X137319D02*
X136017Y-65748D01*
X134740Y-67025D01*
X134201Y-68327D01*
X137319D01*
Y-65209D01*
D02*
G37*
G36*
X142977Y-70867D02*
X139859D01*
Y-73985D01*
X141160Y-73446D01*
X142438Y-72169D01*
X142977Y-70867D01*
D02*
G37*
G36*
X148869Y-81293D02*
Y-84411D01*
X151987D01*
X151448Y-83110D01*
X150171Y-81833D01*
X148869Y-81293D01*
D02*
G37*
G36*
X146329D02*
X145028Y-81833D01*
X143750Y-83110D01*
X143211Y-84411D01*
X146329D01*
Y-81293D01*
D02*
G37*
G36*
X196277Y-87261D02*
X193277D01*
X192305Y-87663D01*
X191903Y-88635D01*
Y-89619D01*
X192305Y-90591D01*
X193277Y-90994D01*
X196277D01*
X197249Y-90591D01*
X197652Y-89619D01*
Y-88635D01*
X197249Y-87663D01*
X196277Y-87261D01*
D02*
G37*
G36*
X207233Y-87795D02*
X204233D01*
X203261Y-88198D01*
X202859Y-89170D01*
Y-90154D01*
X203261Y-91126D01*
X204233Y-91529D01*
X207233D01*
X208206Y-91126D01*
X208608Y-90154D01*
Y-89170D01*
X208206Y-88198D01*
X207233Y-87795D01*
D02*
G37*
G36*
X110168Y-119564D02*
X102168D01*
X101196Y-119967D01*
X100793Y-120939D01*
Y-129923D01*
X101196Y-130895D01*
X102168Y-131298D01*
X110168D01*
X111140Y-130895D01*
X111542Y-129923D01*
Y-120939D01*
X111140Y-119967D01*
X110168Y-119564D01*
D02*
G37*
G36*
X-78272Y96755D02*
Y93637D01*
X-75154D01*
X-75693Y94939D01*
X-76970Y96216D01*
X-78272Y96755D01*
D02*
G37*
G36*
X-75154Y91097D02*
X-78272D01*
Y87979D01*
X-76970Y88519D01*
X-75693Y89796D01*
X-75154Y91097D01*
D02*
G37*
G36*
X-33274Y63061D02*
X-34576Y62522D01*
X-35853Y61245D01*
X-36392Y59943D01*
X-33274D01*
Y63061D01*
D02*
G37*
G36*
X-27616Y57403D02*
X-30734D01*
Y54285D01*
X-29432Y54824D01*
X-28155Y56101D01*
X-27616Y57403D01*
D02*
G37*
G36*
X-33274D02*
X-36392D01*
X-35853Y56101D01*
X-34576Y54824D01*
X-33274Y54285D01*
Y57403D01*
D02*
G37*
G36*
X-282773Y-60042D02*
Y-63160D01*
X-279655D01*
X-280194Y-61858D01*
X-281471Y-60581D01*
X-282773Y-60042D01*
D02*
G37*
G36*
X-285313D02*
X-286615Y-60581D01*
X-287892Y-61858D01*
X-288431Y-63160D01*
X-285313D01*
Y-60042D01*
D02*
G37*
%LPD*%
D26*
X-252825Y34925D02*
D03*
X-238825D02*
D03*
D28*
X-1679Y-77521D02*
D03*
Y77521D02*
D03*
X-295468Y82601D02*
D03*
X290700Y-82601D02*
D03*
X-80899Y-123901D02*
D03*
X-223901Y123901D02*
D03*
D32*
X147599Y-165199D02*
D03*
Y165199D02*
D03*
X-152400Y-165199D02*
D03*
Y165199D02*
D03*
X-223901Y-123901D02*
D03*
X-80899Y123901D02*
D03*
D33*
X-295468Y-82601D02*
D03*
X290700Y82601D02*
D03*
X-295501Y-0D02*
D03*
D41*
X283149Y41032D02*
D03*
D42*
X193149Y-41968D02*
D03*
D43*
X-131629Y-92102D02*
D03*
X-157029D02*
D03*
D44*
X-182429D02*
D03*
D50*
X-267886Y31479D02*
X-261865Y25458D01*
X-284043Y-71176D02*
Y-64430D01*
X-295468Y-82601D02*
X-284043Y-71176D01*
X-271864Y-49913D02*
X-261507D01*
X-286876Y-8625D02*
X-234080D01*
X-222250Y3205D01*
X-295501Y-0D02*
X-286876Y-8625D01*
X-238745Y-509D02*
X-232649Y5587D01*
X-259422Y3576D02*
X-255337Y-509D01*
X-238745D01*
X-151061Y153474D02*
X-120749Y123162D01*
X-120749D02*
X-79542Y92367D01*
X-151061Y153474D02*
Y163860D01*
X-90799Y44449D02*
Y84668D01*
X-223901Y123901D02*
X-130031D01*
X-90799Y84668D01*
X-131540Y114553D02*
X-95250Y78263D01*
X-181102Y114553D02*
X-131540D01*
X-95250Y50799D02*
Y78263D01*
X-152400Y165199D02*
X-151061Y163860D01*
X-150371Y-35286D02*
X-92848Y-92809D01*
X-150371Y-35286D02*
Y-30619D01*
X-92848Y-92809D02*
X-83665D01*
X-261507Y-49913D02*
X-216724Y-5129D01*
X-259422Y21058D02*
X-257095Y23386D01*
X-258795Y40924D02*
X-250190Y49529D01*
X-259422Y3576D02*
Y21058D01*
X-267886Y31479D02*
Y55879D01*
X-258795Y29327D02*
X-257095Y27627D01*
X-258795Y29327D02*
Y40924D01*
X-257095Y23386D02*
Y27627D01*
X66758Y9084D02*
X68834Y7008D01*
X52729Y23113D02*
X57301Y18541D01*
X-1679Y77521D02*
X52729Y23113D01*
X57301Y18541D02*
X66758Y9084D01*
X-84582Y58494D02*
Y64007D01*
X-267886Y57767D02*
X-252602D01*
X-280670Y55879D02*
X-267886D01*
X-283718D02*
X-280670D01*
X-177292Y-64771D02*
Y-50285D01*
X-66802Y64007D02*
Y70493D01*
X-130371Y38353D02*
X-96895D01*
X-239541Y72047D02*
X-233331D01*
X-267886Y70030D02*
Y76453D01*
X-262636D01*
X-170371Y38353D02*
X-165370D01*
X-160371D01*
X-226060Y39115D02*
Y58047D01*
X-238825Y34797D02*
Y34925D01*
Y28626D02*
Y34797D01*
X-230378D01*
X-180371Y-39797D02*
Y-30619D01*
Y-39797D02*
X-166673Y-42622D01*
X-157029Y-52266D01*
Y-92102D02*
Y-52266D01*
X-267886Y55879D02*
Y57767D01*
X-123371Y11381D02*
X-101346D01*
X-100536Y12191D01*
X-30480D01*
X7874Y-26163D01*
X63500D01*
X68834Y-20829D01*
Y7008D01*
X-123371Y1381D02*
X-103520D01*
X-97536Y7365D01*
X-75836Y70493D02*
X-66802D01*
X-145796Y70611D02*
X-100584D01*
X-150371Y66036D02*
X-145796Y70611D01*
X-150371Y38381D02*
Y66036D01*
X-123371Y26381D02*
X-74202D01*
X-60452Y40131D01*
Y103454D01*
X-80899Y123901D02*
X-60452Y103454D01*
X-170371Y38381D02*
Y51859D01*
X-181610Y63099D02*
X-170371Y51859D01*
X-202775Y63099D02*
X-181610D01*
X-253540Y70030D02*
Y76570D01*
X-267886Y70030D02*
X-253540D01*
X-239541Y72047D02*
Y76570D01*
X-252825Y34925D02*
Y40131D01*
X-249252Y43703D01*
X-237887D01*
X-233331Y48259D01*
Y72047D01*
X-226069D01*
X-251191Y12926D02*
Y22451D01*
X-252825Y24084D02*
X-251191Y22451D01*
X-252825Y24084D02*
Y34925D01*
X-202775Y81641D02*
X-193250D01*
X-155371Y43761D01*
Y38381D02*
Y43761D01*
X-238825Y28626D02*
X-232649Y22451D01*
Y12926D02*
Y22451D01*
X32974Y21381D02*
X64008Y-9653D01*
X-123371Y21381D02*
X32974D01*
X-123371Y16381D02*
X-110745D01*
X-110363Y16763D01*
X26162D01*
X61214Y-18289D01*
X70866Y-102617D02*
Y-86361D01*
X60960Y-76455D02*
X70866Y-86361D01*
X60960Y-76455D02*
Y-55373D01*
X64008Y-52325D01*
X73152D01*
X86868Y-38609D01*
Y-33021D01*
X84582Y-30735D02*
X86868Y-33021D01*
X5842Y-30735D02*
X84582D01*
X-21275Y-3619D02*
X5842Y-30735D01*
X-123371Y-3619D02*
X-21275D01*
X3753Y-35561D02*
X81788D01*
X-23189Y-8619D02*
X3753Y-35561D01*
X-123371Y-8619D02*
X-23189D01*
X-13156Y77521D02*
X-1679D01*
X-32004Y58673D02*
X-13156Y77521D01*
X66758Y9084D02*
X68834D01*
X-84582Y58494D02*
X-75836D01*
X230198Y82601D02*
X290700D01*
X147599Y165199D02*
X230198Y82601D01*
X-1679Y77521D02*
X59921D01*
X147599Y165199D01*
X57301Y18541D02*
X170180D01*
X-1679Y-77521D02*
X32816D01*
X63754Y-108459D01*
X99727D01*
X138589Y-69597D01*
X147599Y-165199D02*
X230198Y-82601D01*
X290700D01*
X147599Y-165199D02*
Y-85681D01*
X-145371Y38381D02*
Y62100D01*
X-144437Y63033D01*
X-113834D01*
X-103886Y53085D01*
X-84822D02*
X-78232Y46495D01*
X-75836D01*
X-165370Y-36307D02*
Y-30619D01*
Y-36307D02*
X-146050Y-55627D01*
X-80899Y-123901D01*
X-123371Y31381D02*
X-104451D01*
X-102334Y33498D01*
X-202726Y26381D02*
X-192371D01*
X-216724Y12383D02*
X-202726Y26381D01*
X-216724Y-5129D02*
Y12383D01*
X-238506Y-34799D02*
X-202326Y1381D01*
X-192371D01*
X-267886Y76453D02*
Y76844D01*
X-262636Y76453D02*
Y82601D01*
X-240102Y51997D02*
Y57767D01*
X-250190Y49529D02*
X-240102Y51997D01*
X-232649Y5587D02*
Y12926D01*
X66040Y-58421D02*
X152908D01*
X194310Y-99823D01*
X-3540Y-34307D02*
X65278Y-103125D01*
X-10596Y-34307D02*
X-3540D01*
X-31284Y-13619D02*
X-10596Y-34307D01*
X-123371Y-13619D02*
X-31284D01*
X-172465Y-81281D02*
Y-50285D01*
Y-81281D02*
X-171450Y-82296D01*
Y-146149D02*
Y-82296D01*
Y-146149D02*
X-152400Y-165199D01*
X-135371Y38381D02*
Y43190D01*
X-133096Y45465D01*
X-100584D01*
X-95250Y50799D01*
X87122Y54355D02*
X176022D01*
X82042Y49275D02*
X87122Y54355D01*
X68326Y68325D02*
X117856D01*
X47244Y47243D02*
X68326Y68325D01*
X-140371Y38381D02*
Y56077D01*
X-138185Y58263D01*
X-240102Y57767D02*
Y63063D01*
X-242570Y65531D02*
X-240102Y63063D01*
X-271018Y65531D02*
X-242570D01*
X-280416Y74929D02*
X-271018Y65531D01*
X-280416Y74929D02*
Y76270D01*
X-265755Y90931D01*
X-222143D01*
X-212852Y81641D01*
X-202775D01*
X-295468Y82601D02*
X-283158D01*
X-270002Y95757D01*
X-124185D01*
X-184965Y-70306D02*
Y-50285D01*
Y-70306D02*
X-182429Y-72843D01*
Y-92102D02*
Y-72843D01*
X-177292Y-50285D02*
X-172465D01*
X-199644Y-3619D02*
X-192371D01*
X-199644Y-99644D02*
Y-3619D01*
X-223901Y-123901D02*
X-199644Y-99644D01*
X-222250Y3205D02*
Y15874D01*
X-206744Y31381D01*
X-192371D01*
X-130371Y38353D02*
Y38381D01*
X-96895Y38353D02*
X-90799Y44449D01*
X-295468Y67629D02*
Y82601D01*
Y67629D02*
X-283718Y55879D01*
X-226069Y58047D02*
X-226060D01*
X-230378Y34797D02*
X-226060Y39115D01*
X-253540Y76570D02*
X-239541D01*
X-211270Y63099D02*
X-202775D01*
X-220218Y72047D02*
X-211270Y63099D01*
X-226069Y72047D02*
X-220218D01*
X-160371Y38353D02*
Y38381D01*
X-165370Y38353D02*
Y38381D01*
X-170371Y38353D02*
Y38381D01*
X-157871Y3881D02*
X-138056D01*
X-130556Y11381D01*
X-123371D01*
X-184965Y-50285D02*
Y-41809D01*
X-185370Y-41403D02*
X-184965Y-41809D01*
X-185370Y-41403D02*
Y-30619D01*
D51*
X-261865Y25458D02*
D03*
X-284043Y-64430D02*
D03*
X-271864Y-49913D02*
D03*
X-79542Y92367D02*
D03*
X-83665Y-92809D02*
D03*
X-97536Y7365D02*
D03*
X-66802Y64007D02*
D03*
X-100584Y70611D02*
D03*
X64008Y-9653D02*
D03*
X61214Y-18289D02*
D03*
X70866Y-102617D02*
D03*
X81788Y-35561D02*
D03*
X-280670Y55879D02*
D03*
X-32004Y58673D02*
D03*
X-84582Y64007D02*
D03*
X68834Y9084D02*
D03*
X170180Y18541D02*
D03*
X138589Y-69597D02*
D03*
X147599Y-85681D02*
D03*
X-103886Y53085D02*
D03*
X-84822D02*
D03*
X-102334Y33498D02*
D03*
X-238506Y-34799D02*
D03*
X-262636Y82601D02*
D03*
X66040Y-58421D02*
D03*
X194310Y-99823D02*
D03*
X65278Y-103125D02*
D03*
X-181102Y114553D02*
D03*
X176022Y54355D02*
D03*
X82042Y49275D02*
D03*
X117856Y68325D02*
D03*
X47244Y47243D02*
D03*
X-138185Y58263D02*
D03*
X-124185Y95757D02*
D03*
X-177292Y-64771D02*
D03*
D53*
X-192371Y21381D02*
D03*
X-123371Y16381D02*
D03*
X-192371D02*
D03*
Y11381D02*
D03*
X-123371Y21381D02*
D03*
Y11381D02*
D03*
X-192371Y31381D02*
D03*
Y26381D02*
D03*
Y6381D02*
D03*
Y1381D02*
D03*
Y-3619D02*
D03*
Y-8619D02*
D03*
Y-13619D02*
D03*
Y-18619D02*
D03*
Y-23619D02*
D03*
X-123371D02*
D03*
Y-18619D02*
D03*
Y-13619D02*
D03*
Y-8619D02*
D03*
Y-3619D02*
D03*
Y1381D02*
D03*
Y6381D02*
D03*
Y26381D02*
D03*
Y31381D02*
D03*
D54*
X-75836Y46495D02*
D03*
Y58494D02*
D03*
Y70493D02*
D03*
D55*
X-172465Y-50285D02*
D03*
X-252602Y57767D02*
D03*
X-184965Y-50285D02*
D03*
X-240102Y57767D02*
D03*
D56*
X-157871Y3881D02*
D03*
D57*
X-267886Y53844D02*
D03*
Y76844D02*
D03*
D58*
X-150371Y38381D02*
D03*
X-145371D02*
D03*
X-155371D02*
D03*
X-185370Y-30619D02*
D03*
X-180371D02*
D03*
X-175370D02*
D03*
X-170371D02*
D03*
X-165370D02*
D03*
X-160371D02*
D03*
X-155371D02*
D03*
X-150371D02*
D03*
X-145371D02*
D03*
X-140371D02*
D03*
X-135371D02*
D03*
X-130371D02*
D03*
Y38381D02*
D03*
X-135371D02*
D03*
X-140371D02*
D03*
X-160371D02*
D03*
X-165370D02*
D03*
X-170371D02*
D03*
X-175370D02*
D03*
X-180371D02*
D03*
X-185370D02*
D03*
D59*
X-226069Y72047D02*
D03*
Y58047D02*
D03*
D60*
X-232649Y12926D02*
D03*
X-251191D02*
D03*
D61*
X-202775Y63099D02*
D03*
Y81641D02*
D03*
D62*
X-253540Y76570D02*
D03*
X-239541D02*
D03*
M02*
