G04*
G04 #@! TF.GenerationSoftware,Altium Limited,Altium Designer,25.8.1 (18)*
G04*
G04 Layer_Color=16711935*
%FSLAX44Y44*%
%MOMM*%
G71*
G04*
G04 #@! TF.SameCoordinates,2BA7E10B-6E93-4220-B227-DF091A9E169F*
G04*
G04*
G04 #@! TF.FilePolarity,Negative*
G04*
G01*
G75*
%ADD35R,0.7400X0.9900*%
G04:AMPARAMS|DCode=36|XSize=1.2032mm|YSize=1.2032mm|CornerRadius=0.6016mm|HoleSize=0mm|Usage=FLASHONLY|Rotation=90.000|XOffset=0mm|YOffset=0mm|HoleType=Round|Shape=RoundedRectangle|*
%AMROUNDEDRECTD36*
21,1,1.2032,0.0000,0,0,90.0*
21,1,0.0000,1.2032,0,0,90.0*
1,1,1.2032,0.0000,0.0000*
1,1,1.2032,0.0000,0.0000*
1,1,1.2032,0.0000,0.0000*
1,1,1.2032,0.0000,0.0000*
%
%ADD36ROUNDEDRECTD36*%
G04:AMPARAMS|DCode=39|XSize=1.2032mm|YSize=1.2032mm|CornerRadius=0.6016mm|HoleSize=0mm|Usage=FLASHONLY|Rotation=30.000|XOffset=0mm|YOffset=0mm|HoleType=Round|Shape=RoundedRectangle|*
%AMROUNDEDRECTD39*
21,1,1.2032,0.0000,0,0,30.0*
21,1,0.0000,1.2032,0,0,30.0*
1,1,1.2032,0.0000,0.0000*
1,1,1.2032,0.0000,0.0000*
1,1,1.2032,0.0000,0.0000*
1,1,1.2032,0.0000,0.0000*
%
%ADD39ROUNDEDRECTD39*%
G04:AMPARAMS|DCode=40|XSize=1.2032mm|YSize=1.2032mm|CornerRadius=0.6016mm|HoleSize=0mm|Usage=FLASHONLY|Rotation=150.000|XOffset=0mm|YOffset=0mm|HoleType=Round|Shape=RoundedRectangle|*
%AMROUNDEDRECTD40*
21,1,1.2032,0.0000,0,0,150.0*
21,1,0.0000,1.2032,0,0,150.0*
1,1,1.2032,0.0000,0.0000*
1,1,1.2032,0.0000,0.0000*
1,1,1.2032,0.0000,0.0000*
1,1,1.2032,0.0000,0.0000*
%
%ADD40ROUNDEDRECTD40*%
%ADD41C,0.8890*%
%ADD42C,0.7112*%
%ADD43C,1.5700*%
%ADD44R,1.5700X1.5700*%
%ADD45C,0.6032*%
%ADD53R,0.8500X0.3000*%
%ADD56R,5.7000X5.7000*%
%ADD58R,0.3000X0.8500*%
%ADD62R,0.6000X0.8000*%
%ADD63R,2.1032X0.6033*%
%ADD64R,1.0032X1.1532*%
%ADD65R,0.7032X1.1032*%
%ADD66R,0.9900X0.7400*%
%ADD67R,1.2954X1.6002*%
%ADD68R,1.6002X1.2954*%
G36*
X153602Y191945D02*
X157319Y190313D01*
X160621Y187953D01*
X163369Y184964D01*
X165443Y181474D01*
X166757Y177633D01*
X167254Y173604D01*
X166912Y169559D01*
X165747Y165671D01*
X164778Y163887D01*
Y163887D01*
X147599Y173778D01*
X130421Y163887D01*
X129452Y165671D01*
X128287Y169559D01*
X127945Y173604D01*
X128442Y177633D01*
X129755Y181474D01*
X131830Y184964D01*
X134577Y187953D01*
X137880Y190313D01*
X141597Y191945D01*
X145570Y192779D01*
X149629D01*
X153602Y191945D01*
D02*
G37*
G36*
X-146397D02*
X-142680Y190313D01*
X-139378Y187953D01*
X-136631Y184964D01*
X-134556Y181474D01*
X-133243Y177633D01*
X-132746Y173604D01*
X-133087Y169559D01*
X-134252Y165671D01*
X-135222Y163887D01*
Y163887D01*
X-152400Y173778D01*
X-169578Y163887D01*
X-170548Y165671D01*
X-171713Y169559D01*
X-172054Y173604D01*
X-171558Y177633D01*
X-170244Y181474D01*
X-168169Y184964D01*
X-165422Y187953D01*
X-162120Y190313D01*
X-158403Y191945D01*
X-154430Y192779D01*
X-150370D01*
X-146397Y191945D01*
D02*
G37*
G36*
X164770Y163820D02*
X163932Y162284D01*
X161738Y159559D01*
X159094Y157268D01*
X156085Y155483D01*
X152806Y154263D01*
X149363Y153644D01*
X145864Y153648D01*
X142422Y154275D01*
X139146Y155503D01*
X136141Y157294D01*
X133503Y159592D01*
X131315Y162322D01*
X130481Y163860D01*
X130481Y163860D01*
X147613Y173750D01*
X164770Y163820D01*
D02*
G37*
G36*
X-135230D02*
X-136067Y162284D01*
X-138261Y159559D01*
X-140905Y157268D01*
X-143914Y155483D01*
X-147193Y154263D01*
X-150637Y153644D01*
X-154135Y153648D01*
X-157577Y154275D01*
X-160853Y155503D01*
X-163858Y157294D01*
X-166497Y159592D01*
X-168685Y162322D01*
X-169518Y163860D01*
X-169518Y163860D01*
X-152387Y173750D01*
X-135230Y163820D01*
D02*
G37*
G36*
X-92289Y139060D02*
X-92277Y139080D01*
X-77174Y130346D01*
X-62065Y121637D01*
X-62076Y121617D01*
X-62023Y121586D01*
X-62856Y120043D01*
X-65104Y117351D01*
X-67840Y115159D01*
X-70958Y113554D01*
X-74333Y112600D01*
X-77829Y112336D01*
X-81309Y112771D01*
X-84633Y113888D01*
X-86165Y114774D01*
X-87704Y115661D01*
X-90333Y117981D01*
X-92450Y120777D01*
X-93969Y123937D01*
X-94830Y127337D01*
X-94999Y130839D01*
X-94469Y134305D01*
X-93261Y137598D01*
X-92343Y139091D01*
X-92289Y139060D01*
D02*
G37*
G36*
X-211602Y137587D02*
X-210390Y134297D01*
X-209856Y130831D01*
X-210020Y127328D01*
X-210877Y123928D01*
X-212392Y120765D01*
X-214505Y117967D01*
X-217131Y115644D01*
X-220167Y113888D01*
X-223491Y112771D01*
X-226971Y112336D01*
X-230467Y112600D01*
X-233842Y113554D01*
X-236960Y115159D01*
X-239697Y117351D01*
X-241944Y120043D01*
X-242778Y121586D01*
X-242778D01*
X-212523Y139080D01*
X-211602Y137587D01*
D02*
G37*
G36*
X-285740Y96820D02*
D01*
X-285740D01*
X-285740D01*
D02*
G37*
G36*
X-2400Y87176D02*
X14278Y96781D01*
X15189Y95288D01*
X16452Y92025D01*
X17114Y88590D01*
X17155Y85092D01*
X16573Y81642D01*
X15387Y78351D01*
X13634Y75323D01*
X11371Y72655D01*
X8669Y70432D01*
X5615Y68726D01*
X2306Y67589D01*
X-1152Y67059D01*
X-2400Y67093D01*
X-3649Y67059D01*
X-7107Y67589D01*
X-10416Y68726D01*
X-13470Y70432D01*
X-16171Y72655D01*
X-18435Y75323D01*
X-20187Y78351D01*
X-21374Y81642D01*
X-21956Y85092D01*
X-21915Y88590D01*
X-21253Y92025D01*
X-19990Y95288D01*
X-19079Y96781D01*
Y96781D01*
X-2400Y87176D01*
D02*
G37*
G36*
X-285709Y96769D02*
X-285688Y96781D01*
X-284777Y95288D01*
X-283514Y92025D01*
X-282852Y88590D01*
X-282811Y85092D01*
X-283393Y81642D01*
X-284580Y78351D01*
X-286332Y75323D01*
X-288596Y72655D01*
X-291297Y70432D01*
X-291328Y70415D01*
X-291330Y70413D01*
X-294388Y68700D01*
X-297702Y67557D01*
X-301166Y67023D01*
X-302918Y67067D01*
X-302895Y86887D01*
X-285740Y96820D01*
X-285709Y96769D01*
D02*
G37*
G36*
X280977Y96749D02*
X280981Y96756D01*
X280981D01*
X287540Y92969D01*
X298099Y86888D01*
Y86873D01*
X298113Y86865D01*
X298099Y74678D01*
Y67106D01*
X298091Y67106D01*
X298091Y67041D01*
X296342Y66999D01*
X292885Y67536D01*
X289579Y68680D01*
X286529Y70394D01*
X283833Y72623D01*
X281575Y75296D01*
X280695Y76826D01*
X279812Y78351D01*
X278626Y81642D01*
X278044Y85092D01*
X278084Y88590D01*
X278747Y92025D01*
X280009Y95288D01*
X280921Y96781D01*
Y96781D01*
X280977Y96749D01*
D02*
G37*
G36*
X-297687Y16945D02*
X-294415Y15672D01*
X-291462Y13774D01*
X-288944Y11327D01*
X-286963Y8429D01*
X-285596Y5196D01*
X-284899Y1755D01*
Y-1755D01*
X-285596Y-5196D01*
X-286963Y-8429D01*
X-288944Y-11327D01*
X-291462Y-13774D01*
X-294415Y-15672D01*
X-297687Y-16945D01*
X-297715Y-16950D01*
X-297726Y-16954D01*
X-301181Y-17554D01*
X-302934Y-17505D01*
X-302934D01*
X-302957Y17443D01*
X-302900Y17444D01*
Y17493D01*
X-301146Y17544D01*
X-297687Y16945D01*
D02*
G37*
G36*
X298099Y-67106D02*
X298099D01*
Y-86888D01*
X280921Y-96781D01*
D01*
X280921D01*
X280009Y-95288D01*
X278747Y-92025D01*
X278084Y-88590D01*
X278044Y-85092D01*
X278626Y-81642D01*
X279812Y-78351D01*
X281565Y-75323D01*
X283828Y-72655D01*
X286530Y-70432D01*
X289584Y-68726D01*
X292893Y-67589D01*
X296351Y-67059D01*
X296351D01*
D01*
X298099Y-67106D01*
D02*
G37*
G36*
X2306Y-67589D02*
X5615Y-68726D01*
X8669Y-70432D01*
X11371Y-72655D01*
X13634Y-75323D01*
X15387Y-78351D01*
X16573Y-81642D01*
X17155Y-85092D01*
X17114Y-88590D01*
X16452Y-92025D01*
X15189Y-95288D01*
X14278Y-96781D01*
X-2400Y-87176D01*
X-19079Y-96781D01*
X-19990Y-95288D01*
X-21253Y-92025D01*
X-21915Y-88590D01*
X-21956Y-85092D01*
X-21374Y-81642D01*
X-20187Y-78351D01*
X-18435Y-75323D01*
X-16171Y-72655D01*
X-13470Y-70432D01*
X-10416Y-68726D01*
X-7107Y-67589D01*
X-3649Y-67059D01*
X-2400Y-67093D01*
X-1152Y-67059D01*
X2306Y-67589D01*
D02*
G37*
G36*
X-297653Y-67536D02*
X-294347Y-68680D01*
X-291297Y-70394D01*
X-288600Y-72623D01*
X-286343Y-75296D01*
X-284597Y-78328D01*
X-283419Y-81622D01*
X-282845Y-85073D01*
X-282893Y-88571D01*
X-283564Y-92005D01*
X-284834Y-95265D01*
X-285749Y-96756D01*
Y-96756D01*
X-302880Y-86865D01*
X-302859Y-67041D01*
X-301110Y-66999D01*
X-297653Y-67536D01*
D02*
G37*
G36*
X14278Y-96781D02*
X14278D01*
D01*
X14278D01*
D02*
G37*
G36*
X-302895Y-86887D02*
X-285740Y-96820D01*
X-286800Y-98551D01*
X-289585Y-101504D01*
X-292917Y-103823D01*
X-296655Y-105407D01*
X-300638Y-106190D01*
X-304697Y-106138D01*
X-308659Y-105253D01*
X-312354Y-103574D01*
X-315626Y-101171D01*
X-318335Y-98147D01*
X-320365Y-94632D01*
X-321629Y-90774D01*
X-322074Y-86740D01*
X-321681Y-82699D01*
X-320466Y-78826D01*
X-318482Y-75285D01*
X-315812Y-72226D01*
X-312571Y-69782D01*
X-308898Y-68055D01*
X-304947Y-67120D01*
X-302918Y-67067D01*
X-302918Y-67067D01*
X-302895Y-86887D01*
D02*
G37*
G36*
X-74333Y-112600D02*
X-70958Y-113554D01*
X-67840Y-115159D01*
X-65104Y-117351D01*
X-62856Y-120043D01*
X-62023Y-121586D01*
D01*
Y-121586D01*
X-77150Y-130333D01*
X-92277Y-139080D01*
X-93198Y-137587D01*
X-94410Y-134297D01*
X-94944Y-130831D01*
X-94780Y-127329D01*
X-93923Y-123928D01*
X-92408Y-120766D01*
X-90295Y-117967D01*
X-87669Y-115644D01*
X-84633Y-113888D01*
X-81309Y-112771D01*
X-77829Y-112336D01*
X-74333Y-112600D01*
D02*
G37*
G36*
X-223491Y-112771D02*
X-220167Y-113888D01*
X-218636Y-114774D01*
X-217097Y-115661D01*
X-214467Y-117981D01*
X-212350Y-120777D01*
X-210831Y-123937D01*
X-209970Y-127337D01*
X-209801Y-130839D01*
X-210331Y-134305D01*
X-211539Y-137598D01*
X-212457Y-139091D01*
D01*
X-212457Y-139091D01*
X-212457Y-139091D01*
X-212511Y-139060D01*
X-212523Y-139080D01*
D01*
X-212523Y-139080D01*
X-212523Y-139080D01*
X-227626Y-130346D01*
X-242735Y-121637D01*
X-242724Y-121617D01*
X-242778Y-121586D01*
X-241944Y-120043D01*
X-239697Y-117351D01*
X-236960Y-115159D01*
X-233842Y-113554D01*
X-230467Y-112600D01*
X-226971Y-112336D01*
X-223491Y-112771D01*
D02*
G37*
G36*
X149334Y-153648D02*
X152776Y-154275D01*
X156052Y-155503D01*
X159057Y-157294D01*
X161696Y-159592D01*
X163884Y-162322D01*
X164718Y-163860D01*
X164718D01*
X163885Y-164340D01*
X163910Y-164387D01*
X147599Y-173778D01*
X131289Y-164387D01*
X131318Y-164334D01*
X130429Y-163820D01*
X131266Y-162284D01*
X133461Y-159559D01*
X136105Y-157268D01*
X139114Y-155483D01*
X142392Y-154263D01*
X145836Y-153644D01*
X149334Y-153648D01*
D02*
G37*
G36*
X-150665D02*
X-147223Y-154275D01*
X-143947Y-155503D01*
X-140942Y-157294D01*
X-138303Y-159592D01*
X-136116Y-162322D01*
X-135282Y-163860D01*
X-135282D01*
X-136115Y-164340D01*
X-136089Y-164387D01*
X-152400Y-173778D01*
X-168711Y-164387D01*
X-168682Y-164334D01*
X-169570Y-163820D01*
X-168733Y-162284D01*
X-166539Y-159559D01*
X-163895Y-157268D01*
X-160886Y-155483D01*
X-157607Y-154263D01*
X-154164Y-153644D01*
X-150665Y-153648D01*
D02*
G37*
D35*
X-252825Y34925D02*
D03*
X-238825D02*
D03*
D36*
X-1679Y-77521D02*
D03*
Y77521D02*
D03*
X-295468Y82601D02*
D03*
X290700Y-82601D02*
D03*
X-80899Y-123901D02*
D03*
X-223901Y123901D02*
D03*
D39*
X147599Y-165199D02*
D03*
Y165199D02*
D03*
X-152400Y-165199D02*
D03*
Y165199D02*
D03*
X-223901Y-123901D02*
D03*
X-80899Y123901D02*
D03*
D40*
X-295468Y-82601D02*
D03*
X290700Y82601D02*
D03*
X-295501Y-0D02*
D03*
D41*
X283149Y41032D02*
D03*
D42*
X193149Y-41968D02*
D03*
D43*
X-131629Y-92102D02*
D03*
X-157029D02*
D03*
D44*
X-182429D02*
D03*
D45*
X-261865Y25458D02*
D03*
X-284043Y-64430D02*
D03*
X-271864Y-49913D02*
D03*
X-79542Y92367D02*
D03*
X-83665Y-92809D02*
D03*
X-97536Y7365D02*
D03*
X-66802Y64007D02*
D03*
X-100584Y70611D02*
D03*
X64008Y-9653D02*
D03*
X61214Y-18289D02*
D03*
X70866Y-102617D02*
D03*
X81788Y-35561D02*
D03*
X-280670Y55879D02*
D03*
X-32004Y58673D02*
D03*
X-84582Y64007D02*
D03*
X68834Y9084D02*
D03*
X170180Y18541D02*
D03*
X138589Y-69597D02*
D03*
X147599Y-85681D02*
D03*
X-103886Y53085D02*
D03*
X-84822D02*
D03*
X-102334Y33498D02*
D03*
X-238506Y-34799D02*
D03*
X-262636Y82601D02*
D03*
X66040Y-58421D02*
D03*
X194310Y-99823D02*
D03*
X65278Y-103125D02*
D03*
X-181102Y114553D02*
D03*
X176022Y54355D02*
D03*
X82042Y49275D02*
D03*
X117856Y68325D02*
D03*
X47244Y47243D02*
D03*
X-138185Y58263D02*
D03*
X-124185Y95757D02*
D03*
X-177292Y-64771D02*
D03*
D53*
X-192371Y21381D02*
D03*
X-123371Y16381D02*
D03*
X-192371D02*
D03*
Y11381D02*
D03*
X-123371Y21381D02*
D03*
Y11381D02*
D03*
X-192371Y31381D02*
D03*
Y26381D02*
D03*
Y6381D02*
D03*
Y1381D02*
D03*
Y-3619D02*
D03*
Y-8619D02*
D03*
Y-13619D02*
D03*
Y-18619D02*
D03*
Y-23619D02*
D03*
X-123371D02*
D03*
Y-18619D02*
D03*
Y-13619D02*
D03*
Y-8619D02*
D03*
Y-3619D02*
D03*
Y1381D02*
D03*
Y6381D02*
D03*
Y26381D02*
D03*
Y31381D02*
D03*
D56*
X-157871Y3881D02*
D03*
D58*
X-150371Y38381D02*
D03*
X-145371D02*
D03*
X-155371D02*
D03*
X-185370Y-30619D02*
D03*
X-180371D02*
D03*
X-175370D02*
D03*
X-170371D02*
D03*
X-165370D02*
D03*
X-160371D02*
D03*
X-155371D02*
D03*
X-150371D02*
D03*
X-145371D02*
D03*
X-140371D02*
D03*
X-135371D02*
D03*
X-130371D02*
D03*
Y38381D02*
D03*
X-135371D02*
D03*
X-140371D02*
D03*
X-160371D02*
D03*
X-165370D02*
D03*
X-170371D02*
D03*
X-175370D02*
D03*
X-180371D02*
D03*
X-185370D02*
D03*
D62*
X-253540Y76570D02*
D03*
X-239541D02*
D03*
D63*
X-75836Y46495D02*
D03*
Y58494D02*
D03*
Y70493D02*
D03*
D64*
X-172465Y-50285D02*
D03*
X-252602Y57767D02*
D03*
X-184965Y-50285D02*
D03*
X-240102Y57767D02*
D03*
D65*
X-267886Y53844D02*
D03*
Y76844D02*
D03*
D66*
X-226069Y72047D02*
D03*
Y58047D02*
D03*
D67*
X-232649Y12926D02*
D03*
X-251191D02*
D03*
D68*
X-202775Y63099D02*
D03*
Y81641D02*
D03*
M02*
