G04*
G04 #@! TF.GenerationSoftware,Altium Limited,Altium Designer,25.8.1 (18)*
G04*
G04 Layer_Physical_Order=1*
G04 Layer_Color=255*
%FSLAX44Y44*%
%MOMM*%
G71*
G04*
G04 #@! TF.SameCoordinates,2BA7E10B-6E93-4220-B227-DF091A9E169F*
G04*
G04*
G04 #@! TF.FilePolarity,Positive*
G04*
G01*
G75*
%ADD18R,0.3000X0.5556*%
%ADD19R,0.3048X0.3048*%
%ADD20R,0.8128X0.8128*%
%ADD21R,0.3048X0.3048*%
%ADD22R,0.8000X0.6556*%
%ADD23R,1.2546X1.4562*%
%ADD24R,0.7000X0.7000*%
%ADD25R,0.9906X1.0922*%
%ADD26R,0.6400X0.8900*%
%ADD27R,0.7000X0.6500*%
G04:AMPARAMS|DCode=28|XSize=1mm|YSize=1mm|CornerRadius=0.5mm|HoleSize=0mm|Usage=FLASHONLY|Rotation=90.000|XOffset=0mm|YOffset=0mm|HoleType=Round|Shape=RoundedRectangle|*
%AMROUNDEDRECTD28*
21,1,1.0000,0.0000,0,0,90.0*
21,1,0.0000,1.0000,0,0,90.0*
1,1,1.0000,0.0000,0.0000*
1,1,1.0000,0.0000,0.0000*
1,1,1.0000,0.0000,0.0000*
1,1,1.0000,0.0000,0.0000*
%
%ADD28ROUNDEDRECTD28*%
%ADD29R,0.9500X0.8000*%
%ADD30R,0.7800X0.7400*%
%ADD31R,0.9906X2.9972*%
G04:AMPARAMS|DCode=32|XSize=1mm|YSize=1mm|CornerRadius=0.5mm|HoleSize=0mm|Usage=FLASHONLY|Rotation=30.000|XOffset=0mm|YOffset=0mm|HoleType=Round|Shape=RoundedRectangle|*
%AMROUNDEDRECTD32*
21,1,1.0000,0.0000,0,0,30.0*
21,1,0.0000,1.0000,0,0,30.0*
1,1,1.0000,0.0000,0.0000*
1,1,1.0000,0.0000,0.0000*
1,1,1.0000,0.0000,0.0000*
1,1,1.0000,0.0000,0.0000*
%
%ADD32ROUNDEDRECTD32*%
G04:AMPARAMS|DCode=33|XSize=1mm|YSize=1mm|CornerRadius=0.5mm|HoleSize=0mm|Usage=FLASHONLY|Rotation=150.000|XOffset=0mm|YOffset=0mm|HoleType=Round|Shape=RoundedRectangle|*
%AMROUNDEDRECTD33*
21,1,1.0000,0.0000,0,0,150.0*
21,1,0.0000,1.0000,0,0,150.0*
1,1,1.0000,0.0000,0.0000*
1,1,1.0000,0.0000,0.0000*
1,1,1.0000,0.0000,0.0000*
1,1,1.0000,0.0000,0.0000*
%
%ADD33ROUNDEDRECTD33*%
%ADD34R,0.8000X0.8000*%
%ADD41C,0.8890*%
%ADD42C,0.7112*%
%ADD43C,1.5700*%
%ADD44R,1.5700X1.5700*%
%ADD46R,0.9906X0.9906*%
%ADD47R,1.0414X2.2098*%
%ADD48R,0.9906X0.9906*%
%ADD49R,2.2098X1.0414*%
%ADD50C,0.3000*%
%ADD51C,0.4000*%
G36*
X163910Y164387D02*
X163116Y162923D01*
X161034Y160324D01*
X158522Y158138D01*
X155660Y156435D01*
X152541Y155268D01*
X149264Y154675D01*
X145934D01*
X142657Y155268D01*
X139538Y156435D01*
X136677Y158138D01*
X134165Y160324D01*
X132082Y162923D01*
X131289Y164387D01*
X131289Y164387D01*
X147599Y173778D01*
X163910Y164387D01*
D02*
G37*
G36*
X-136089D02*
X-136883Y162923D01*
X-138966Y160324D01*
X-141478Y158138D01*
X-144339Y156435D01*
X-147458Y155268D01*
X-150735Y154675D01*
X-154065D01*
X-157342Y155268D01*
X-160461Y156435D01*
X-163322Y158138D01*
X-165834Y160324D01*
X-167917Y162923D01*
X-168711Y164387D01*
X-168710Y164387D01*
X-152400Y173778D01*
X-136089Y164387D01*
D02*
G37*
G36*
X-103440Y142849D02*
X-103428Y142764D01*
X-105066Y138701D01*
X-105065Y138586D01*
X-105132Y138493D01*
X-106106Y134221D01*
X-106087Y134108D01*
X-106138Y134005D01*
X-106424Y129633D01*
X-106387Y129525D01*
X-106421Y129415D01*
X-106012Y125053D01*
X-105958Y124951D01*
X-105974Y124838D01*
X-104880Y120595D01*
X-104811Y120504D01*
X-104809Y120389D01*
X-103057Y116373D01*
X-102975Y116293D01*
X-102955Y116181D01*
X-100590Y112492D01*
X-100496Y112427D01*
X-100458Y112319D01*
X-98579Y110215D01*
X-103457Y105337D01*
X-124816D01*
X-125897Y105122D01*
X-126813Y104510D01*
X-126813Y104510D01*
X-132553Y98770D01*
X-133166Y97854D01*
X-133380Y96773D01*
X-133380Y96773D01*
Y95564D01*
X-133715Y93703D01*
X-142655D01*
Y82263D01*
X-141010D01*
Y59989D01*
X-141455Y58913D01*
Y57612D01*
X-141010Y56536D01*
Y-85545D01*
X-141010Y-85545D01*
X-140795Y-86626D01*
X-140182Y-87542D01*
X-139767Y-87957D01*
X-140127Y-88581D01*
X-140749Y-90901D01*
Y-93302D01*
X-140127Y-95622D01*
X-138926Y-97701D01*
X-137228Y-99399D01*
X-135149Y-100600D01*
X-132829Y-101222D01*
X-130428D01*
X-128108Y-100600D01*
X-126029Y-99399D01*
X-125475Y-98845D01*
X-123475Y-99674D01*
Y-132279D01*
X-145666Y-154471D01*
X-146976Y-153980D01*
X-147105Y-153985D01*
X-147213Y-153915D01*
X-150490Y-153322D01*
X-150616Y-153349D01*
X-150735Y-153300D01*
X-154065D01*
X-154184Y-153349D01*
X-154310Y-153322D01*
X-157587Y-153915D01*
X-157695Y-153985D01*
X-157824Y-153980D01*
X-159135Y-154471D01*
X-165897Y-147708D01*
X-166813Y-147096D01*
X-167894Y-146881D01*
X-168975Y-147096D01*
X-169891Y-147708D01*
X-170504Y-148624D01*
X-170718Y-149705D01*
X-170504Y-150786D01*
X-169891Y-151702D01*
X-165404Y-156189D01*
X-165473Y-158188D01*
X-166737Y-159288D01*
X-166794Y-159403D01*
X-166907Y-159465D01*
X-168702Y-161704D01*
X-201360Y-142849D01*
X-201372Y-142764D01*
X-199734Y-138701D01*
X-199735Y-138586D01*
X-199668Y-138493D01*
X-198694Y-134221D01*
X-198713Y-134108D01*
X-198662Y-134005D01*
X-198376Y-129633D01*
X-198413Y-129525D01*
X-198379Y-129415D01*
X-198788Y-125053D01*
X-198842Y-124951D01*
X-198826Y-124838D01*
X-199920Y-120595D01*
X-199989Y-120504D01*
X-199991Y-120389D01*
X-201742Y-116373D01*
X-201825Y-116293D01*
X-201845Y-116181D01*
X-204210Y-112492D01*
X-204305Y-112427D01*
X-204342Y-112319D01*
X-207261Y-109051D01*
X-207365Y-109001D01*
X-207419Y-108900D01*
X-210818Y-106136D01*
X-210928Y-106103D01*
X-210998Y-106012D01*
X-214791Y-103820D01*
X-214905Y-103805D01*
X-214988Y-103727D01*
X-219081Y-102163D01*
X-219196Y-102166D01*
X-219290Y-102101D01*
X-223579Y-101204D01*
X-223692Y-101226D01*
X-223796Y-101177D01*
X-228172Y-100970D01*
X-228280Y-101009D01*
X-228390Y-100977D01*
X-232744Y-101465D01*
X-232845Y-101521D01*
X-232958Y-101507D01*
X-234090Y-101821D01*
X-235682Y-100610D01*
Y-36526D01*
X-235236Y-35450D01*
Y-34149D01*
X-235734Y-32947D01*
X-236654Y-32027D01*
X-237856Y-31529D01*
X-239157D01*
X-240359Y-32027D01*
X-241278Y-32947D01*
X-241776Y-34149D01*
Y-35450D01*
X-241331Y-36526D01*
Y-104560D01*
X-241369Y-104577D01*
X-241447Y-104661D01*
X-241559Y-104683D01*
X-245204Y-107115D01*
X-245268Y-107210D01*
X-245375Y-107250D01*
X-248589Y-110228D01*
X-248637Y-110332D01*
X-248737Y-110388D01*
X-251439Y-113837D01*
X-251540Y-113878D01*
X-284290Y-94970D01*
X-283249Y-92297D01*
X-283251Y-92168D01*
X-283180Y-92061D01*
X-282543Y-88792D01*
X-282569Y-88666D01*
X-282518Y-88548D01*
X-282473Y-85218D01*
X-282521Y-85098D01*
X-282492Y-84973D01*
X-283040Y-81688D01*
X-283109Y-81579D01*
X-283102Y-81451D01*
X-283957Y-79069D01*
X-282989Y-77297D01*
X-282712Y-77069D01*
X-281073D01*
X-281073Y-77069D01*
X-279992Y-76854D01*
X-279076Y-76242D01*
X-259029Y-56194D01*
X-258417Y-55278D01*
X-258202Y-54197D01*
X-258202Y-54197D01*
Y9531D01*
X-256354Y10296D01*
X-182556Y-63501D01*
X-178562D01*
Y-59507D01*
X-258849Y20780D01*
Y22053D01*
X-258016Y22886D01*
X-257477Y24188D01*
X-261865D01*
Y25458D01*
X-263135D01*
Y30243D01*
X-263810Y30695D01*
Y53767D01*
X-263810Y53767D01*
X-264025Y54848D01*
X-264638Y55764D01*
X-285296Y76422D01*
X-284331Y78093D01*
X-284314Y78221D01*
X-284227Y78316D01*
X-283703Y79776D01*
X-264363D01*
X-263287Y79331D01*
X-261986D01*
X-260910Y79776D01*
X-188417D01*
X-188416Y79776D01*
X-187335Y79991D01*
X-186419Y80604D01*
X-165897Y101126D01*
X-150403Y116620D01*
X-150403Y116620D01*
X-149791Y117536D01*
X-149576Y118617D01*
Y153488D01*
X-147213Y153915D01*
X-147105Y153985D01*
X-146976Y153980D01*
X-143857Y155147D01*
X-143763Y155235D01*
X-143636Y155254D01*
X-140774Y156957D01*
X-140697Y157060D01*
X-140575Y157101D01*
X-138063Y159288D01*
X-138006Y159403D01*
X-137893Y159465D01*
X-136098Y161704D01*
X-103440Y142849D01*
D02*
G37*
G36*
X105874Y127765D02*
X112313D01*
Y125225D01*
X105874D01*
Y120255D01*
X109489D01*
Y88853D01*
X109489Y88853D01*
X109704Y87772D01*
X110316Y86856D01*
X115097Y82076D01*
X116013Y81463D01*
X116189Y81428D01*
X116362Y80890D01*
X116400Y79347D01*
X115859Y78985D01*
X115246Y78069D01*
X115031Y76988D01*
Y70051D01*
X114673Y69186D01*
X113718Y68745D01*
X112586Y68445D01*
X105040Y75991D01*
X104123Y76603D01*
X103042Y76818D01*
X103042Y76818D01*
X78592D01*
Y101172D01*
X65638D01*
Y76818D01*
X63606D01*
Y80217D01*
X51160D01*
Y67771D01*
X63606D01*
Y71170D01*
X101873D01*
X108764Y64278D01*
Y60893D01*
X107859D01*
Y56829D01*
X105319D01*
Y60893D01*
X102859D01*
Y56829D01*
X100319D01*
Y60893D01*
X97525D01*
Y60893D01*
X95653D01*
Y60893D01*
X92859D01*
Y56829D01*
X90319D01*
Y60893D01*
X87859D01*
Y56829D01*
Y52765D01*
X89320D01*
X89592Y52358D01*
X92640Y49310D01*
X92640Y49310D01*
X93556Y48698D01*
X94637Y48482D01*
X94637Y48483D01*
X98806D01*
X98806Y48482D01*
X99887Y48698D01*
X100803Y49310D01*
X101765Y50272D01*
X103765Y49443D01*
Y45933D01*
X99985D01*
Y40599D01*
X106589D01*
X113399D01*
X115193Y41500D01*
X115985Y40910D01*
Y40599D01*
X122589D01*
X129193D01*
Y41214D01*
X129985Y41820D01*
X131985Y40833D01*
Y40599D01*
X138589D01*
Y38059D01*
X131985D01*
Y32725D01*
X135765D01*
Y25933D01*
X131985D01*
Y20599D01*
X138589D01*
X145193D01*
Y25933D01*
X141413D01*
Y32008D01*
X142130Y32725D01*
X145193D01*
Y35788D01*
X146966Y37561D01*
X148813Y36795D01*
Y34543D01*
X148813Y34543D01*
X149029Y33462D01*
X149641Y32546D01*
X150564Y31623D01*
X149735Y29623D01*
X147295D01*
Y19035D01*
Y9035D01*
X152059D01*
X153247Y7186D01*
X152738Y5893D01*
X152525D01*
Y4653D01*
X152146D01*
X151065Y4438D01*
X150149Y3826D01*
X150149Y3826D01*
X148476Y2153D01*
X145193D01*
Y5933D01*
X141254D01*
Y12725D01*
X145193D01*
Y18059D01*
X138589D01*
X131985D01*
Y12725D01*
X135605D01*
Y5933D01*
X131985D01*
Y599D01*
X138589D01*
Y-1941D01*
X131985D01*
Y-7275D01*
X135765D01*
Y-14067D01*
X131985D01*
Y-19401D01*
X138589D01*
X145193D01*
Y-14067D01*
X141413D01*
Y-7275D01*
X145193D01*
Y-3496D01*
X149645D01*
X149645Y-3496D01*
X150726Y-3280D01*
X150908Y-3159D01*
X151933Y-2573D01*
X153795Y-3344D01*
Y-10965D01*
Y-19107D01*
X152525D01*
Y-20377D01*
X147295D01*
Y-30965D01*
Y-40965D01*
X152059D01*
X153247Y-42814D01*
X152738Y-44107D01*
X152525D01*
Y-45346D01*
X147258D01*
X145193Y-43281D01*
Y-41941D01*
X138589D01*
X131985D01*
Y-46989D01*
X130404Y-48258D01*
X129193Y-47166D01*
Y-41941D01*
X122589D01*
Y-39401D01*
X129193D01*
Y-34067D01*
X125413D01*
Y-27275D01*
X129193D01*
Y-21941D01*
X122589D01*
X115985D01*
Y-27275D01*
X119765D01*
Y-34067D01*
X115985D01*
X115985Y-34067D01*
Y-34067D01*
X114639Y-32727D01*
X111187Y-29275D01*
X112015Y-27275D01*
X113193D01*
Y-21941D01*
X106589D01*
Y-19401D01*
X113193D01*
Y-14067D01*
X109413D01*
Y-7275D01*
X113193D01*
Y-1941D01*
X106589D01*
X99985D01*
Y-7275D01*
X103765D01*
Y-14067D01*
X99985D01*
Y-14174D01*
X97985Y-15162D01*
X97193Y-14556D01*
Y-14067D01*
X95979D01*
X93413Y-11501D01*
Y-7275D01*
X97193D01*
Y-1941D01*
X90589D01*
Y599D01*
X97193D01*
Y5933D01*
X93413D01*
Y12725D01*
X97193D01*
Y18059D01*
X90589D01*
X83985D01*
Y12725D01*
X87765D01*
Y5933D01*
X83985D01*
Y2153D01*
X81193D01*
Y5933D01*
X77413D01*
Y12725D01*
X81193D01*
Y18059D01*
X74589D01*
Y20599D01*
X81193D01*
Y25933D01*
X77413D01*
Y32725D01*
X81193D01*
Y38059D01*
X74589D01*
Y40599D01*
X81193D01*
Y44157D01*
X81242Y44615D01*
X82199Y44892D01*
X83985Y43383D01*
Y40599D01*
X89319D01*
Y45933D01*
X86153D01*
X85716Y46419D01*
X85026Y47933D01*
X85312Y48624D01*
Y49925D01*
X84964Y50765D01*
X85319Y51709D01*
Y56829D01*
Y60893D01*
X82525D01*
Y60893D01*
X80653D01*
X80653Y60893D01*
X77859D01*
Y56829D01*
X75319D01*
Y60893D01*
X72859D01*
Y56829D01*
X70319D01*
Y60893D01*
X67525D01*
Y59623D01*
X60652D01*
Y60893D01*
X57859D01*
Y56829D01*
X55318D01*
Y60893D01*
X52524D01*
Y59106D01*
X52105Y58826D01*
X50073Y56794D01*
X49461Y55878D01*
X49246Y54797D01*
X49246Y54797D01*
Y52118D01*
X47894Y50513D01*
X46593D01*
X45392Y50015D01*
X44472Y49095D01*
X44026Y48019D01*
X39012Y43005D01*
X38400Y42089D01*
X38185Y41008D01*
X38185Y41008D01*
Y19702D01*
X13831D01*
Y6748D01*
X38185D01*
Y4716D01*
X34786D01*
Y-7730D01*
X47232D01*
Y-7730D01*
X48991Y-8311D01*
Y-10457D01*
X48991Y-10457D01*
X48991Y-10457D01*
Y-30885D01*
X48991Y-30885D01*
X49207Y-31966D01*
X49819Y-32882D01*
X52105Y-35168D01*
X52105Y-35168D01*
X52524Y-35449D01*
Y-37235D01*
X53794D01*
Y-49107D01*
X52524D01*
Y-50347D01*
X7096D01*
X-44153Y902D01*
X-45070Y1514D01*
X-46150Y1729D01*
X-46151Y1729D01*
X-68631D01*
Y5445D01*
X-74651D01*
Y-1095D01*
X-75921D01*
Y-2365D01*
X-83211D01*
Y-7635D01*
X-81941Y-8325D01*
Y-10770D01*
X-87762D01*
X-88842Y-10985D01*
X-89759Y-11598D01*
X-89759Y-11598D01*
X-89901Y-11740D01*
X-94226D01*
Y-9294D01*
X-103856D01*
Y-4834D01*
X-94226D01*
Y5706D01*
X-94226D01*
X-94508Y6129D01*
X-94266Y6714D01*
Y8015D01*
X-94764Y9217D01*
X-95199Y9653D01*
X-94514Y11653D01*
X-64723D01*
X-64723Y11652D01*
X-63642Y11868D01*
X-62726Y12480D01*
X-8568Y66638D01*
X-7553Y66289D01*
X-7425Y66297D01*
X-7315Y66230D01*
X-3857Y65700D01*
X-3732Y65731D01*
X-3612Y65685D01*
X-2400Y65718D01*
X-1189Y65685D01*
X-1069Y65731D01*
X-944Y65700D01*
X2514Y66230D01*
X2624Y66297D01*
X2753Y66289D01*
X6061Y67425D01*
X6158Y67510D01*
X6286Y67526D01*
X9340Y69232D01*
X9419Y69333D01*
X9542Y69371D01*
X12244Y71593D01*
X12305Y71707D01*
X12419Y71766D01*
X14682Y74433D01*
X14722Y74556D01*
X14824Y74634D01*
X16576Y77662D01*
X16594Y77789D01*
X16680Y77884D01*
X17866Y81176D01*
X17860Y81304D01*
X17929Y81413D01*
X18100Y82431D01*
X34174Y98505D01*
X36174Y97676D01*
Y76534D01*
X49128D01*
Y101172D01*
X45296D01*
X44531Y103020D01*
X49160Y107649D01*
X51160Y106820D01*
Y97489D01*
X63606D01*
Y108935D01*
X65532D01*
X65532Y108934D01*
X66613Y109150D01*
X67529Y109762D01*
X88038Y130271D01*
X105874D01*
Y127765D01*
D02*
G37*
G36*
X-53382Y116601D02*
X-54443Y114685D01*
X-57145Y111236D01*
X-60359Y108258D01*
X-64004Y105827D01*
X-67987Y104003D01*
X-72209Y102831D01*
X-76563Y102343D01*
X-80940Y102550D01*
X-85228Y103447D01*
X-89321Y105010D01*
X-93115Y107202D01*
X-96514Y109967D01*
X-99432Y113234D01*
X-101798Y116923D01*
X-103549Y120939D01*
X-104643Y125181D01*
X-105052Y129543D01*
X-104766Y133915D01*
X-103791Y138187D01*
X-102153Y142250D01*
X-101023Y144127D01*
X-101023D01*
X-53382Y116601D01*
D02*
G37*
G36*
X-202692Y142205D02*
X-201056Y138140D01*
X-200084Y133868D01*
X-199801Y129496D01*
X-200212Y125134D01*
X-201309Y120892D01*
X-203063Y116877D01*
X-205431Y113190D01*
X-208351Y109925D01*
X-211752Y107162D01*
X-215547Y104973D01*
X-219641Y103411D01*
X-223930Y102517D01*
X-228307Y102313D01*
X-232660Y102804D01*
X-236882Y103978D01*
X-240864Y105805D01*
X-244507Y108239D01*
X-247719Y111219D01*
X-250419Y114669D01*
X-251479Y116586D01*
X-251479Y116586D01*
X-203821Y144082D01*
X-202692Y142205D01*
D02*
G37*
G36*
X-21390Y95478D02*
X-22535Y92521D01*
X-22532Y92393D01*
X-22603Y92285D01*
X-23265Y88850D01*
X-23239Y88724D01*
X-23290Y88606D01*
X-23330Y85108D01*
X-23283Y84988D01*
X-23311Y84863D01*
X-22729Y81413D01*
X-22661Y81304D01*
X-22667Y81176D01*
X-21481Y77884D01*
X-21394Y77789D01*
X-21377Y77662D01*
X-19624Y74634D01*
X-19522Y74556D01*
X-19483Y74433D01*
X-17220Y71766D01*
X-17105Y71707D01*
X-17045Y71593D01*
X-15610Y70413D01*
X-15425Y67769D01*
X-25492Y57701D01*
X-27464Y58558D01*
Y59576D01*
X-28155Y61245D01*
X-29432Y62522D01*
X-30734Y63061D01*
Y58673D01*
X-33274D01*
Y63061D01*
X-34576Y62522D01*
X-35600Y61497D01*
X-62137D01*
X-63532Y63356D01*
Y64657D01*
X-64030Y65859D01*
X-64950Y66779D01*
X-66026Y67225D01*
X-71409Y72608D01*
X-72325Y73220D01*
X-73406Y73435D01*
X-73406Y73435D01*
X-98858D01*
X-99934Y73881D01*
X-101235D01*
X-102437Y73383D01*
X-103356Y72463D01*
X-103854Y71261D01*
Y69960D01*
X-103356Y68759D01*
X-104257Y66831D01*
X-118972D01*
X-121361Y69220D01*
Y80993D01*
X-118445D01*
Y85159D01*
X-110072D01*
X-110071Y85159D01*
X-108991Y85374D01*
X-108075Y85986D01*
X-104517Y89543D01*
X-83138D01*
X-82114Y88519D01*
X-80812Y87979D01*
Y92367D01*
Y96755D01*
X-82114Y96216D01*
X-83138Y95192D01*
X-105687D01*
X-105687Y95192D01*
X-106768Y94977D01*
X-107684Y94365D01*
X-107684Y94364D01*
X-111241Y90807D01*
X-118445D01*
Y94487D01*
X-124185D01*
Y97027D01*
X-119797D01*
X-120071Y97688D01*
X-119244Y99362D01*
X-118900Y99688D01*
X-102288D01*
X-102288Y99688D01*
X-101207Y99903D01*
X-100290Y100515D01*
X-95556Y105250D01*
X-93802Y106012D01*
X-90009Y103820D01*
X-89895Y103805D01*
X-89812Y103726D01*
X-85719Y102163D01*
X-85604Y102166D01*
X-85510Y102101D01*
X-81221Y101204D01*
X-81108Y101226D01*
X-81004Y101177D01*
X-76628Y100970D01*
X-76520Y101009D01*
X-76410Y100977D01*
X-72056Y101465D01*
X-71955Y101521D01*
X-71842Y101507D01*
X-67620Y102678D01*
X-67529Y102748D01*
X-67415Y102753D01*
X-63431Y104577D01*
X-63353Y104661D01*
X-63241Y104683D01*
X-59596Y107115D01*
X-59532Y107210D01*
X-59425Y107250D01*
X-56211Y110228D01*
X-56163Y110332D01*
X-56063Y110388D01*
X-53361Y113837D01*
X-53261Y113878D01*
X-21390Y95478D01*
D02*
G37*
G36*
X224760Y101240D02*
Y95695D01*
X230305D01*
X231647Y94352D01*
X230882Y92505D01*
X230800D01*
Y87734D01*
X235569D01*
Y87817D01*
X237417Y88583D01*
X245396Y80604D01*
X245396Y80604D01*
X246313Y79991D01*
X247393Y79776D01*
X278936D01*
X279460Y78316D01*
X279546Y78221D01*
X279563Y78093D01*
X281228Y75209D01*
X281330Y75131D01*
X281369Y75008D01*
X283521Y72467D01*
X283636Y72408D01*
X283696Y72294D01*
X286267Y70177D01*
X286390Y70139D01*
X286469Y70038D01*
X287876Y69251D01*
Y63473D01*
X276960Y52557D01*
X275112Y53322D01*
Y68563D01*
X275112Y68564D01*
X274897Y69644D01*
X274285Y70561D01*
X271476Y73370D01*
X270559Y73982D01*
X269479Y74197D01*
X269478Y74197D01*
X230378D01*
X230378Y74197D01*
X229297Y73982D01*
X228381Y73370D01*
X228381Y73370D01*
X221424Y66413D01*
X219972Y65263D01*
Y65263D01*
X219972Y65263D01*
X207526D01*
Y51801D01*
X210925D01*
Y48215D01*
X207364Y44653D01*
X197313D01*
X196484Y46653D01*
X204220Y54390D01*
X204221Y54390D01*
X204833Y55306D01*
X205048Y56387D01*
X205048Y56387D01*
Y87595D01*
X206896Y88361D01*
X210789Y84467D01*
X210789Y84467D01*
X211705Y83855D01*
X212786Y83640D01*
X212786Y83640D01*
X223489D01*
Y80424D01*
X228260D01*
Y86465D01*
Y92505D01*
X223489D01*
Y89289D01*
X213956D01*
X205048Y98197D01*
Y107793D01*
X208663D01*
Y114723D01*
X210511Y115489D01*
X224760Y101240D01*
D02*
G37*
G36*
X298130Y86890D02*
X298152Y68069D01*
X296488Y68025D01*
X293196Y68529D01*
X290047Y69612D01*
X287141Y71238D01*
X284571Y73355D01*
X282419Y75897D01*
X280753Y78781D01*
X279629Y81915D01*
X279080Y85200D01*
X279125Y88529D01*
X279762Y91798D01*
X280971Y94901D01*
X281842Y96320D01*
X281842D01*
X298130Y86890D01*
D02*
G37*
G36*
X-285738Y94901D02*
X-284529Y91798D01*
X-283892Y88529D01*
X-283847Y85200D01*
X-284396Y81915D01*
X-285521Y78781D01*
X-287186Y75897D01*
X-289338Y73355D01*
X-291908Y71238D01*
X-294814Y69612D01*
X-297964Y68529D01*
X-301255Y68025D01*
X-302920Y68069D01*
Y68069D01*
X-302897Y86890D01*
X-286609Y96320D01*
X-285738Y94901D01*
D02*
G37*
G36*
X-279128Y62267D02*
X-279400Y61480D01*
Y55879D01*
X-280670D01*
Y54609D01*
X-285058D01*
X-284519Y53307D01*
X-283242Y52030D01*
X-281573Y51339D01*
X-280124D01*
X-280112Y51327D01*
Y21330D01*
X-282112Y20492D01*
X-283761Y22112D01*
X-283867Y22155D01*
X-283928Y22252D01*
X-287500Y24789D01*
X-287612Y24815D01*
X-287687Y24901D01*
X-291615Y26842D01*
X-291730Y26849D01*
X-291818Y26923D01*
X-296004Y28217D01*
X-296118Y28206D01*
X-296217Y28265D01*
X-300555Y28881D01*
X-300595Y28912D01*
Y66735D01*
X-297756Y67170D01*
X-297645Y67237D01*
X-297517Y67229D01*
X-294368Y68312D01*
X-294271Y68397D01*
X-294143Y68412D01*
X-291237Y70038D01*
X-291157Y70139D01*
X-291034Y70177D01*
X-288843Y71982D01*
X-279128Y62267D01*
D02*
G37*
G36*
X-2400Y87176D02*
X14278Y96781D01*
X15189Y95288D01*
X16452Y92025D01*
X17114Y88590D01*
X17155Y85092D01*
X16573Y81642D01*
X15387Y78351D01*
X13634Y75323D01*
X11371Y72655D01*
X8669Y70432D01*
X5615Y68726D01*
X2306Y67589D01*
X-1152Y67059D01*
X-2400Y67093D01*
X-3649Y67059D01*
X-7107Y67589D01*
X-10416Y68726D01*
X-13470Y70432D01*
X-16171Y72655D01*
X-18435Y75323D01*
X-20187Y78351D01*
X-21374Y81642D01*
X-21956Y85092D01*
X-21915Y88590D01*
X-21253Y92025D01*
X-19990Y95288D01*
X-19079Y96781D01*
Y96781D01*
X-2400Y87176D01*
D02*
G37*
G36*
X191597Y73924D02*
X175245Y57573D01*
X174170Y57127D01*
X173250Y56207D01*
X172752Y55005D01*
Y53704D01*
X173250Y52502D01*
X174099Y51653D01*
X174081Y51280D01*
X173602Y49653D01*
X163860D01*
Y54355D01*
X163645Y55436D01*
X163033Y56352D01*
X163033Y56352D01*
X160653Y58732D01*
Y60893D01*
X157859D01*
Y56829D01*
X155319D01*
Y60893D01*
X152525D01*
Y59623D01*
X140653D01*
Y60893D01*
X137859D01*
Y56829D01*
X135319D01*
Y60893D01*
X132525D01*
Y59623D01*
X120653D01*
Y60893D01*
X117859D01*
Y56829D01*
X115319D01*
Y60893D01*
X114413D01*
Y64315D01*
X115025Y64791D01*
X116413Y65383D01*
X117205Y65055D01*
X118506D01*
X119708Y65553D01*
X120628Y66473D01*
X121126Y67674D01*
Y68975D01*
X120680Y70051D01*
Y72468D01*
X126565D01*
Y74164D01*
X184621D01*
X185702Y74379D01*
X186618Y74991D01*
X187230Y75908D01*
X187445Y76988D01*
Y88495D01*
X191597D01*
Y73924D01*
D02*
G37*
G36*
X226784Y59002D02*
Y36975D01*
X219462Y29653D01*
X160653D01*
Y30559D01*
X156589D01*
Y33099D01*
X160653D01*
Y34005D01*
X210058D01*
X210058Y34004D01*
X211139Y34220D01*
X212055Y34832D01*
X223739Y46516D01*
X223739Y46516D01*
X224351Y47432D01*
X224566Y48513D01*
Y59925D01*
X224784Y60071D01*
X226784Y59002D01*
D02*
G37*
G36*
X-122139Y62010D02*
X-122139Y62010D01*
X-121223Y61398D01*
X-120142Y61182D01*
X-120142Y61183D01*
X-88178D01*
X-87154Y60158D01*
X-85852Y59619D01*
Y64007D01*
X-83312D01*
Y58743D01*
X-83280Y58710D01*
X-83010Y57120D01*
X-83217Y56484D01*
X-85164Y56355D01*
X-85472D01*
X-86548Y55909D01*
X-102160D01*
X-103236Y56355D01*
X-104537D01*
X-105738Y55857D01*
X-106658Y54937D01*
X-107156Y53735D01*
Y52434D01*
X-106658Y51233D01*
X-105738Y50313D01*
X-104537Y49815D01*
X-103236D01*
X-102160Y50261D01*
X-86548D01*
X-85472Y49815D01*
X-84171D01*
X-82970Y50313D01*
X-82050Y51233D01*
X-81552Y52434D01*
X-81552Y53735D01*
X-81921Y54863D01*
X-81908Y54886D01*
X-80329Y56063D01*
X-79248Y55848D01*
X-79248Y55849D01*
X-35600D01*
X-34576Y54824D01*
X-32907Y54133D01*
X-31890D01*
X-31033Y52161D01*
X-65893Y17301D01*
X-100330D01*
X-101411Y17086D01*
X-102327Y16474D01*
X-102327Y16474D01*
X-108677Y10124D01*
X-109290Y9208D01*
X-109504Y8127D01*
X-109504Y8127D01*
Y-32767D01*
X-109504Y-32767D01*
X-109290Y-33848D01*
X-108677Y-34764D01*
X-102392Y-41049D01*
X-103158Y-42897D01*
X-116586D01*
X-117667Y-43112D01*
X-118583Y-43724D01*
X-118583Y-43724D01*
X-122647Y-47788D01*
X-123259Y-48704D01*
X-123475Y-49785D01*
X-123475Y-49785D01*
Y-84530D01*
X-125475Y-85358D01*
X-126029Y-84804D01*
X-128108Y-83603D01*
X-130428Y-82982D01*
X-132829D01*
X-133361Y-83124D01*
X-135361Y-81589D01*
Y56536D01*
X-134915Y57612D01*
Y58913D01*
X-135232Y59677D01*
X-135053Y60139D01*
X-134478Y60292D01*
X-132881Y60215D01*
X-132553Y59724D01*
X-105552Y32722D01*
X-105106Y31646D01*
X-104186Y30726D01*
X-102984Y30228D01*
X-101683D01*
X-100481Y30726D01*
X-99562Y31646D01*
X-99064Y32848D01*
Y34149D01*
X-99562Y35351D01*
X-100481Y36270D01*
X-101558Y36716D01*
X-127732Y62891D01*
Y64866D01*
X-127510Y65036D01*
X-125732Y65602D01*
X-122139Y62010D01*
D02*
G37*
G36*
X50056Y44376D02*
X50073Y44351D01*
X51324Y43099D01*
X56589D01*
Y40559D01*
X52524D01*
Y38099D01*
X56589D01*
Y35559D01*
X52524D01*
Y33099D01*
X56589D01*
Y30559D01*
X52524D01*
Y28099D01*
X56589D01*
Y25559D01*
X52524D01*
Y23099D01*
X56589D01*
Y20559D01*
X52524D01*
Y18099D01*
X56589D01*
Y15559D01*
X52524D01*
Y13099D01*
X56589D01*
Y10559D01*
X52524D01*
Y9106D01*
X52105Y8826D01*
X52105Y8826D01*
X49819Y6540D01*
X49207Y5624D01*
X49093Y5052D01*
X47232Y4716D01*
X47142Y4716D01*
X43833D01*
Y39838D01*
X48020Y44025D01*
X49096Y44471D01*
X50056Y44376D01*
D02*
G37*
G36*
X71597Y-14067D02*
X67985D01*
Y-19401D01*
X74589D01*
Y-21941D01*
X67985D01*
Y-27275D01*
X71765D01*
Y-34067D01*
X67985D01*
Y-39401D01*
X74589D01*
Y-41941D01*
X67985D01*
Y-47275D01*
X71852D01*
Y-49878D01*
X71280Y-50347D01*
X71280Y-50347D01*
X60652D01*
Y-49107D01*
X59383D01*
Y-42587D01*
X60295Y-40965D01*
X65883D01*
Y-30965D01*
Y-20377D01*
X65883D01*
X64484Y-18940D01*
Y-17639D01*
X63986Y-16437D01*
X63066Y-15517D01*
X63909Y-13746D01*
X64784Y-12871D01*
X65860Y-12425D01*
X66780Y-11506D01*
X67278Y-10304D01*
Y-9003D01*
X67268Y-8978D01*
X68727Y-7275D01*
X71597D01*
Y-14067D01*
D02*
G37*
G36*
X-296410Y26904D02*
X-292224Y25609D01*
X-288296Y23669D01*
X-284724Y21131D01*
X-281599Y18060D01*
X-278999Y14534D01*
X-276990Y10640D01*
X-275622Y6478D01*
X-274930Y2152D01*
X-274932Y-2230D01*
X-275627Y-6556D01*
X-276997Y-10717D01*
X-279008Y-14610D01*
X-281611Y-18134D01*
X-284738Y-21203D01*
X-288311Y-23739D01*
X-292240Y-25677D01*
X-296427Y-26968D01*
X-300765Y-27582D01*
X-302955Y-27541D01*
Y-27541D01*
X-302938Y27480D01*
X-300748Y27520D01*
X-296410Y26904D01*
D02*
G37*
G36*
X2306Y-67589D02*
X5615Y-68726D01*
X8669Y-70432D01*
X11371Y-72655D01*
X13634Y-75323D01*
X15387Y-78351D01*
X16573Y-81642D01*
X17155Y-85092D01*
X17114Y-88590D01*
X16452Y-92025D01*
X15189Y-95288D01*
X14278Y-96781D01*
X-2400Y-87176D01*
X-19079Y-96781D01*
X-19990Y-95288D01*
X-21253Y-92025D01*
X-21915Y-88590D01*
X-21956Y-85092D01*
X-21374Y-81642D01*
X-20187Y-78351D01*
X-18435Y-75323D01*
X-16171Y-72655D01*
X-13470Y-70432D01*
X-10416Y-68726D01*
X-7107Y-67589D01*
X-3649Y-67059D01*
X-2400Y-67093D01*
X-1152Y-67059D01*
X2306Y-67589D01*
D02*
G37*
G36*
X99985Y-26786D02*
Y-27275D01*
X101199D01*
X103602Y-29678D01*
Y-34067D01*
X99985D01*
Y-39401D01*
X106589D01*
Y-41941D01*
X99985D01*
Y-47275D01*
X103765D01*
Y-54067D01*
X99985D01*
Y-59401D01*
X106589D01*
X113193D01*
Y-57705D01*
X113985Y-57041D01*
X115985Y-57975D01*
Y-59401D01*
X122589D01*
Y-61941D01*
X115985D01*
Y-67275D01*
X119765D01*
Y-74067D01*
X115985D01*
Y-79401D01*
X122589D01*
Y-81941D01*
X115985D01*
Y-87275D01*
X117669D01*
X118207Y-87948D01*
X118907Y-89275D01*
X118764Y-89994D01*
X118764Y-89994D01*
Y-92621D01*
X117525Y-94107D01*
X116052Y-95377D01*
X111995D01*
X110653Y-94107D01*
X110653Y-94107D01*
X110653Y-94107D01*
X107859D01*
Y-98171D01*
X105319D01*
Y-94107D01*
X102525D01*
Y-94107D01*
X100653D01*
Y-94107D01*
X97859D01*
Y-98171D01*
X95319D01*
Y-94107D01*
X94413D01*
Y-89812D01*
X94306Y-89275D01*
X95194Y-87718D01*
X95630Y-87275D01*
X97193D01*
Y-83495D01*
X99985D01*
Y-87275D01*
X105319D01*
Y-80671D01*
X106589D01*
Y-79401D01*
X113193D01*
Y-74067D01*
X109413D01*
Y-67275D01*
X113193D01*
Y-61941D01*
X106589D01*
X99985D01*
Y-67275D01*
X103765D01*
Y-74067D01*
X99985D01*
Y-77847D01*
X97193D01*
Y-74067D01*
X93413D01*
Y-67275D01*
X97193D01*
Y-61941D01*
X90589D01*
Y-59401D01*
X97193D01*
Y-54067D01*
X93413D01*
Y-47275D01*
X97193D01*
Y-41941D01*
X90589D01*
Y-39401D01*
X97193D01*
Y-34067D01*
X93248D01*
Y-27275D01*
X97193D01*
Y-27168D01*
X99193Y-26180D01*
X99985Y-26786D01*
D02*
G37*
G36*
X298152Y-68069D02*
X298152Y-68069D01*
X298130Y-86890D01*
X281842Y-96320D01*
X280971Y-94901D01*
X279762Y-91798D01*
X279125Y-88529D01*
X279080Y-85200D01*
X279629Y-81915D01*
X280753Y-78781D01*
X282419Y-75897D01*
X284571Y-73355D01*
X287141Y-71238D01*
X290047Y-69612D01*
X293196Y-68529D01*
X296488Y-68025D01*
X298152Y-68069D01*
D02*
G37*
G36*
X-297964Y-68529D02*
X-294814Y-69612D01*
X-291908Y-71238D01*
X-289338Y-73355D01*
X-287186Y-75897D01*
X-285521Y-78781D01*
X-284396Y-81915D01*
X-283847Y-85200D01*
X-283892Y-88529D01*
X-284529Y-91798D01*
X-285738Y-94901D01*
X-286609Y-96320D01*
X-286609Y-96320D01*
X-302897Y-86890D01*
X-302920Y-68069D01*
X-301255Y-68025D01*
X-297964Y-68529D01*
D02*
G37*
G36*
X14278Y-96781D02*
X14278D01*
D01*
X14278D01*
D02*
G37*
G36*
X218918Y-98653D02*
X185774Y-131797D01*
X169614D01*
Y-129315D01*
X163574D01*
Y-126775D01*
X169614D01*
Y-125999D01*
X171923Y-123690D01*
X171923Y-123690D01*
X172535Y-122774D01*
X172750Y-121693D01*
X172750Y-121693D01*
Y-86493D01*
X174598Y-85727D01*
X186152Y-97281D01*
Y-102035D01*
X186152Y-102036D01*
X186367Y-103116D01*
X186979Y-104033D01*
X190081Y-107135D01*
X190997Y-107747D01*
X192078Y-107962D01*
X192078Y-107962D01*
X198647D01*
X198647Y-107962D01*
X199728Y-107747D01*
X200644Y-107135D01*
X207730Y-100049D01*
X207730Y-100049D01*
X208342Y-99133D01*
X208417Y-98758D01*
X209773D01*
Y-95976D01*
X210531Y-95470D01*
X215746Y-90255D01*
X215746Y-90255D01*
X216359Y-89338D01*
X216574Y-88258D01*
X216574Y-88257D01*
Y-67469D01*
X218918D01*
Y-98653D01*
D02*
G37*
G36*
X160653Y-102235D02*
X160749Y-104195D01*
Y-109275D01*
X158804D01*
Y-114821D01*
X154975Y-118650D01*
X154362Y-119566D01*
X154148Y-120647D01*
X154148Y-120647D01*
Y-152549D01*
X154036Y-152661D01*
X152148Y-153799D01*
X149509Y-153322D01*
X149383Y-153349D01*
X149264Y-153300D01*
X145934D01*
X145815Y-153349D01*
X145689Y-153322D01*
X142413Y-153915D01*
X142304Y-153985D01*
X142176Y-153980D01*
X140865Y-154471D01*
X118919Y-132525D01*
X119748Y-130525D01*
X133046D01*
X133206Y-131795D01*
X140749D01*
Y-121974D01*
X142019D01*
Y-120704D01*
X150832D01*
Y-112153D01*
X150832D01*
X150189Y-110600D01*
X158554Y-102235D01*
X160653D01*
D02*
G37*
G36*
X122859D02*
X125653D01*
Y-100965D01*
X132525D01*
Y-102235D01*
X132646D01*
X133764Y-103887D01*
X133980Y-104968D01*
X134592Y-105884D01*
X138861Y-110153D01*
X138388Y-112153D01*
X133206D01*
X133046Y-113423D01*
X119413D01*
Y-102235D01*
X120319D01*
Y-98171D01*
X122859D01*
Y-102235D01*
D02*
G37*
G36*
X-72140Y-102804D02*
X-67918Y-103978D01*
X-63936Y-105805D01*
X-60293Y-108239D01*
X-57081Y-111219D01*
X-54381Y-114669D01*
X-53321Y-116586D01*
X-100979Y-144082D01*
X-102108Y-142205D01*
X-103744Y-138140D01*
X-104716Y-133868D01*
X-105000Y-129496D01*
X-104588Y-125134D01*
X-103491Y-120892D01*
X-101737Y-116877D01*
X-99369Y-113190D01*
X-96449Y-109925D01*
X-93048Y-107162D01*
X-89253Y-104973D01*
X-85159Y-103411D01*
X-80870Y-102517D01*
X-76493Y-102313D01*
X-72140Y-102804D01*
D02*
G37*
G36*
X-223860Y-102550D02*
X-219572Y-103447D01*
X-215479Y-105011D01*
X-211685Y-107202D01*
X-208286Y-109967D01*
X-205368Y-113234D01*
X-203002Y-116923D01*
X-201251Y-120939D01*
X-200157Y-125181D01*
X-199748Y-129543D01*
X-200034Y-133915D01*
X-201009Y-138187D01*
X-202647Y-142250D01*
X-203777Y-144127D01*
Y-144127D01*
X-251418Y-116601D01*
X-250357Y-114685D01*
X-247655Y-111236D01*
X-244441Y-108259D01*
X-240796Y-105827D01*
X-236813Y-104003D01*
X-232591Y-102831D01*
X-228237Y-102343D01*
X-223860Y-102550D01*
D02*
G37*
G36*
X37205Y-95168D02*
X37205Y-95168D01*
X38121Y-95780D01*
X39202Y-95995D01*
X39202Y-95995D01*
X52524D01*
Y-96901D01*
X56589D01*
Y-99441D01*
X52524D01*
Y-102235D01*
X53764Y-102254D01*
X53979Y-103335D01*
X54591Y-104251D01*
X60289Y-109948D01*
X61205Y-110561D01*
X62286Y-110775D01*
X74366D01*
X74366Y-110775D01*
X75447Y-110561D01*
X76363Y-109948D01*
X78586Y-107725D01*
X79198Y-106809D01*
X79413Y-105728D01*
X79413Y-105728D01*
Y-102235D01*
X80319D01*
Y-98171D01*
X82859D01*
Y-102235D01*
X85319D01*
Y-98171D01*
X87859D01*
Y-102235D01*
X90319D01*
Y-98171D01*
X92859D01*
Y-102235D01*
X93765D01*
Y-131492D01*
X93765Y-131492D01*
X93980Y-132573D01*
X94592Y-133489D01*
X96809Y-135706D01*
X96809Y-135706D01*
X97725Y-136318D01*
X98806Y-136533D01*
X99628Y-138206D01*
Y-139527D01*
X104898D01*
Y-133709D01*
X107438D01*
Y-139527D01*
X112708D01*
Y-137130D01*
X114708Y-136302D01*
X134595Y-156189D01*
X134526Y-158188D01*
X133263Y-159288D01*
X133205Y-159403D01*
X133092Y-159465D01*
X131297Y-161704D01*
X16590Y-95478D01*
X17734Y-92521D01*
X17731Y-92393D01*
X17802Y-92285D01*
X18464Y-88850D01*
X18438Y-88724D01*
X18489Y-88606D01*
X18530Y-85108D01*
X18482Y-84988D01*
X18511Y-84863D01*
X18086Y-82345D01*
X19306Y-80543D01*
X19620Y-80345D01*
X22382D01*
X37205Y-95168D01*
D02*
G37*
G36*
X152541Y-155268D02*
X155660Y-156435D01*
X158522Y-158139D01*
X161034Y-160324D01*
X163116Y-162923D01*
X163910Y-164387D01*
X147599Y-173778D01*
X131289Y-164387D01*
X132082Y-162923D01*
X134165Y-160324D01*
X136677Y-158139D01*
X139538Y-156435D01*
X142657Y-155268D01*
X145934Y-154675D01*
X149264D01*
X152541Y-155268D01*
D02*
G37*
G36*
X-147458D02*
X-144339Y-156435D01*
X-141478Y-158139D01*
X-138966Y-160324D01*
X-136883Y-162923D01*
X-136089Y-164387D01*
X-152400Y-173778D01*
X-168711Y-164387D01*
X-167917Y-162923D01*
X-165834Y-160324D01*
X-163322Y-158139D01*
X-160461Y-156435D01*
X-157342Y-155268D01*
X-154065Y-154675D01*
X-150735D01*
X-147458Y-155268D01*
D02*
G37*
%LPC*%
G36*
X-260595Y29846D02*
Y26728D01*
X-257477D01*
X-258016Y28030D01*
X-259293Y29307D01*
X-260595Y29846D01*
D02*
G37*
G36*
X-176022Y-60383D02*
Y-63501D01*
X-172904D01*
X-173443Y-62200D01*
X-174720Y-60922D01*
X-176022Y-60383D01*
D02*
G37*
G36*
X-172904Y-66041D02*
X-176022D01*
Y-69159D01*
X-174720Y-68620D01*
X-173443Y-67343D01*
X-172904Y-66041D01*
D02*
G37*
G36*
X-178562D02*
X-181680D01*
X-181141Y-67343D01*
X-179864Y-68620D01*
X-178562Y-69159D01*
Y-66041D01*
D02*
G37*
G36*
X-155828Y-82982D02*
X-158229D01*
X-160549Y-83603D01*
X-162628Y-84804D01*
X-164326Y-86502D01*
X-165527Y-88581D01*
X-166149Y-90901D01*
Y-93302D01*
X-165527Y-95622D01*
X-164326Y-97701D01*
X-162628Y-99399D01*
X-160549Y-100600D01*
X-158229Y-101222D01*
X-155828D01*
X-153508Y-100600D01*
X-151429Y-99399D01*
X-149731Y-97701D01*
X-148530Y-95622D01*
X-147909Y-93302D01*
Y-90901D01*
X-148530Y-88581D01*
X-149731Y-86502D01*
X-151429Y-84804D01*
X-153508Y-83603D01*
X-155828Y-82982D01*
D02*
G37*
G36*
X-173309D02*
X-191549D01*
Y-101222D01*
X-173309D01*
Y-82982D01*
D02*
G37*
G36*
X97193Y45933D02*
X91859D01*
Y40599D01*
X97193D01*
Y45933D01*
D02*
G37*
G36*
X129193Y38059D02*
X122589D01*
X115985D01*
Y32725D01*
X119604D01*
Y25933D01*
X115985D01*
Y20599D01*
X122589D01*
X129193D01*
Y25933D01*
X125252D01*
Y32725D01*
X129193D01*
Y38059D01*
D02*
G37*
G36*
X113193D02*
X106589D01*
X99985D01*
Y32725D01*
X103602D01*
Y25933D01*
X99985D01*
Y20599D01*
X106589D01*
X113193D01*
Y25933D01*
X109250D01*
Y32725D01*
X113193D01*
Y38059D01*
D02*
G37*
G36*
X97193D02*
X90589D01*
X83985D01*
Y32725D01*
X87765D01*
Y25933D01*
X83985D01*
Y20599D01*
X90589D01*
X97193D01*
Y25933D01*
X93413D01*
Y32725D01*
X97193D01*
Y38059D01*
D02*
G37*
G36*
X129193Y18059D02*
X123859D01*
Y12725D01*
X129193D01*
Y18059D01*
D02*
G37*
G36*
X121319D02*
X115985D01*
Y12725D01*
X121319D01*
Y18059D01*
D02*
G37*
G36*
X129193Y5933D02*
X123859D01*
Y599D01*
X129193D01*
Y5933D01*
D02*
G37*
G36*
X121319D02*
X115985D01*
Y599D01*
X121319D01*
Y5933D01*
D02*
G37*
G36*
X113193Y18059D02*
X106589D01*
X99985D01*
Y12725D01*
X103765D01*
Y5933D01*
X99985D01*
Y599D01*
X106589D01*
X113193D01*
Y5933D01*
X109413D01*
Y12725D01*
X113193D01*
Y18059D01*
D02*
G37*
G36*
X-77191Y5445D02*
X-83211D01*
Y175D01*
X-77191D01*
Y5445D01*
D02*
G37*
G36*
X17514Y4716D02*
X5068D01*
Y-7730D01*
X17514D01*
Y4716D01*
D02*
G37*
G36*
X129193Y-1941D02*
X122589D01*
X115985D01*
Y-7275D01*
X119858D01*
Y-14067D01*
X115985D01*
Y-19401D01*
X122589D01*
X129193D01*
Y-14067D01*
X125506D01*
Y-7275D01*
X129193D01*
Y-1941D01*
D02*
G37*
G36*
X38469Y-9762D02*
X13831D01*
Y-22716D01*
X38469D01*
Y-9762D01*
D02*
G37*
G36*
X145193Y-21941D02*
X138589D01*
X131985D01*
Y-27275D01*
X135605D01*
Y-34067D01*
X131985D01*
Y-39401D01*
X138589D01*
X145193D01*
Y-34067D01*
X141254D01*
Y-27275D01*
X145193D01*
Y-21941D01*
D02*
G37*
G36*
X-78272Y96755D02*
Y93637D01*
X-75154D01*
X-75693Y94939D01*
X-76970Y96216D01*
X-78272Y96755D01*
D02*
G37*
G36*
X-75154Y91097D02*
X-78272D01*
Y87979D01*
X-76970Y88519D01*
X-75693Y89796D01*
X-75154Y91097D01*
D02*
G37*
G36*
X235569Y85195D02*
X230800D01*
Y80424D01*
X235569D01*
Y85195D01*
D02*
G37*
G36*
X-281940Y60267D02*
X-283242Y59728D01*
X-284519Y58450D01*
X-285058Y57149D01*
X-281940D01*
Y60267D01*
D02*
G37*
G36*
X113193Y-81941D02*
X107859D01*
Y-87275D01*
X113193D01*
Y-81941D01*
D02*
G37*
G36*
X150832Y-123244D02*
X143289D01*
Y-131795D01*
X150832D01*
Y-123244D01*
D02*
G37*
%LPD*%
D18*
X194777Y-92906D02*
D03*
Y-85350D02*
D03*
X205733Y-93440D02*
D03*
Y-85884D02*
D03*
D19*
X63089Y-78171D02*
D03*
Y-73171D02*
D03*
Y-68171D02*
D03*
Y-63171D02*
D03*
Y-38171D02*
D03*
Y-33171D02*
D03*
Y-28171D02*
D03*
Y-23171D02*
D03*
Y11829D02*
D03*
Y16829D02*
D03*
Y21829D02*
D03*
Y26829D02*
D03*
X150089D02*
D03*
Y21829D02*
D03*
Y16829D02*
D03*
Y11829D02*
D03*
Y-23171D02*
D03*
Y-28171D02*
D03*
Y-33171D02*
D03*
Y-38171D02*
D03*
Y-63171D02*
D03*
Y-68171D02*
D03*
Y-73171D02*
D03*
Y-78171D02*
D03*
X56589Y-93171D02*
D03*
Y-88171D02*
D03*
Y-83171D02*
D03*
Y-78171D02*
D03*
Y-73171D02*
D03*
Y-68171D02*
D03*
Y-63171D02*
D03*
Y-58171D02*
D03*
Y-53171D02*
D03*
Y-48171D02*
D03*
Y-43171D02*
D03*
Y-38171D02*
D03*
Y-33171D02*
D03*
Y-28171D02*
D03*
Y-23171D02*
D03*
Y-18171D02*
D03*
Y-13171D02*
D03*
Y-8171D02*
D03*
Y-3171D02*
D03*
Y1829D02*
D03*
Y6829D02*
D03*
Y11829D02*
D03*
Y16829D02*
D03*
Y21829D02*
D03*
Y26829D02*
D03*
Y31829D02*
D03*
Y36829D02*
D03*
Y41829D02*
D03*
Y46829D02*
D03*
Y51829D02*
D03*
X156589D02*
D03*
Y46829D02*
D03*
Y41829D02*
D03*
Y36829D02*
D03*
Y31829D02*
D03*
Y26829D02*
D03*
Y21829D02*
D03*
Y16829D02*
D03*
Y11829D02*
D03*
Y6829D02*
D03*
Y1829D02*
D03*
Y-3171D02*
D03*
Y-8171D02*
D03*
Y-13171D02*
D03*
Y-18171D02*
D03*
Y-23171D02*
D03*
Y-28171D02*
D03*
Y-33171D02*
D03*
Y-38171D02*
D03*
Y-43171D02*
D03*
Y-48171D02*
D03*
Y-53171D02*
D03*
Y-58171D02*
D03*
Y-63171D02*
D03*
Y-68171D02*
D03*
Y-73171D02*
D03*
Y-78171D02*
D03*
Y-83171D02*
D03*
Y-88171D02*
D03*
Y-93171D02*
D03*
D20*
X138589Y39329D02*
D03*
Y19329D02*
D03*
Y-671D02*
D03*
Y-20671D02*
D03*
Y-40671D02*
D03*
Y-60671D02*
D03*
Y-80671D02*
D03*
X122589Y39329D02*
D03*
Y19329D02*
D03*
Y-671D02*
D03*
Y-20671D02*
D03*
Y-40671D02*
D03*
Y-60671D02*
D03*
Y-80671D02*
D03*
X106589Y39329D02*
D03*
Y19329D02*
D03*
Y-671D02*
D03*
Y-20671D02*
D03*
Y-40671D02*
D03*
Y-60671D02*
D03*
Y-80671D02*
D03*
X90589Y39329D02*
D03*
Y19329D02*
D03*
Y-671D02*
D03*
Y-20671D02*
D03*
Y-40671D02*
D03*
Y-60671D02*
D03*
Y-80671D02*
D03*
X74589Y39329D02*
D03*
Y19329D02*
D03*
Y-671D02*
D03*
Y-20671D02*
D03*
Y-40671D02*
D03*
Y-60671D02*
D03*
Y-80671D02*
D03*
D21*
X56589Y56829D02*
D03*
X61589D02*
D03*
X66589D02*
D03*
X71589D02*
D03*
X76589D02*
D03*
X81589D02*
D03*
X86589D02*
D03*
X91589D02*
D03*
X96589D02*
D03*
X101589D02*
D03*
X106589D02*
D03*
X111589D02*
D03*
X116589D02*
D03*
X121589D02*
D03*
X126589D02*
D03*
X131589D02*
D03*
X136589D02*
D03*
X141589D02*
D03*
X146589D02*
D03*
X151588D02*
D03*
X156589D02*
D03*
Y-98171D02*
D03*
X151588D02*
D03*
X146589D02*
D03*
X141589D02*
D03*
X136589D02*
D03*
X131589D02*
D03*
X126589D02*
D03*
X121589D02*
D03*
X116589D02*
D03*
X111589D02*
D03*
X106589D02*
D03*
X101589D02*
D03*
X96589D02*
D03*
X91589D02*
D03*
X86589D02*
D03*
X81589D02*
D03*
X76589D02*
D03*
X71589D02*
D03*
X66589D02*
D03*
X61589D02*
D03*
X56589D02*
D03*
D22*
X106168Y-117153D02*
D03*
Y-133709D02*
D03*
D23*
X125503Y-121974D02*
D03*
X142019D02*
D03*
D24*
X163574Y-128045D02*
D03*
Y-114045D02*
D03*
X229529Y86465D02*
D03*
Y100464D02*
D03*
D25*
X239149Y58532D02*
D03*
X264550D02*
D03*
X213750D02*
D03*
X264550Y-59468D02*
D03*
X213750D02*
D03*
X239149D02*
D03*
D26*
X-138185Y87983D02*
D03*
X-124185D02*
D03*
D27*
X121795Y76988D02*
D03*
Y90488D02*
D03*
D28*
X-1679Y77521D02*
D03*
X-152400Y-165199D02*
D03*
X-1679Y-77521D02*
D03*
X147599Y165199D02*
D03*
Y-165199D02*
D03*
X-80899Y-123901D02*
D03*
X-152400Y165199D02*
D03*
X-223901Y123901D02*
D03*
D29*
X-75921Y-1095D02*
D03*
Y-13595D02*
D03*
D30*
X112313Y126495D02*
D03*
X202223Y114033D02*
D03*
X194421Y93465D02*
D03*
X184621D02*
D03*
X192423Y114033D02*
D03*
X122113Y126495D02*
D03*
D31*
X292149Y-468D02*
D03*
X186149D02*
D03*
D32*
X290700Y82601D02*
D03*
X-295468Y-82601D02*
D03*
X-223901Y-123901D02*
D03*
X-80899Y123901D02*
D03*
D33*
X-295501Y-0D02*
D03*
X290700Y-82601D02*
D03*
X-295468Y82601D02*
D03*
D34*
X-99495Y-14564D02*
D03*
Y436D02*
D03*
D41*
X283149Y41032D02*
D03*
D42*
X193149Y-41968D02*
D03*
D43*
X-131629Y-92102D02*
D03*
X-157029D02*
D03*
D44*
X-182429D02*
D03*
D46*
X57383Y73994D02*
D03*
Y103712D02*
D03*
D47*
X42651Y88853D02*
D03*
X72115D02*
D03*
D48*
X41009Y-1507D02*
D03*
X11291D02*
D03*
D49*
X26150Y-16239D02*
D03*
Y13225D02*
D03*
D50*
X-280790Y-34838D02*
X-272469Y-17926D01*
X-272160Y-16602D02*
Y12539D01*
X-272469Y-17926D02*
X-272160Y-16602D01*
X-280790Y-61177D02*
Y-34838D01*
X-277288Y17666D02*
X-272160Y12539D01*
X-277288Y17666D02*
Y52497D01*
X-266635Y17993D02*
Y53767D01*
X-295468Y82601D02*
X-266635Y53767D01*
X-281073Y-74244D02*
X-261026Y-54197D01*
X-266635Y17993D02*
X-261026Y12384D01*
Y-54197D02*
Y12384D01*
X-261673Y19610D02*
Y25267D01*
Y19610D02*
X-177292Y-64771D01*
X-284043Y-64430D02*
X-280790Y-61177D01*
X-261865Y25458D02*
X-261673Y25267D01*
X-289798Y-65421D02*
X-286019Y-69200D01*
X-289798Y-24200D02*
X-287377Y-21780D01*
X-289798Y-65421D02*
Y-24200D01*
X-286019Y-69200D02*
X-282067D01*
X-287377Y-21780D02*
Y-17523D01*
X-282067Y-69200D02*
X-271864Y-58997D01*
X-295501Y-9399D02*
X-287377Y-17523D01*
X-295468Y-82601D02*
X-287112Y-74244D01*
X-281073D01*
X-271864Y-58997D02*
Y-49913D01*
X-280670Y55879D02*
X-277288Y52497D01*
X-105687Y92367D02*
X-79542D01*
X-110071Y87983D02*
X-105687Y92367D01*
X-124185Y87983D02*
X-110071D01*
X-130556Y96773D02*
X-124816Y102513D01*
X-102288D02*
X-80899Y123901D01*
X-124816Y102513D02*
X-102288D01*
X-83665Y-93080D02*
X-80899Y-95845D01*
Y-123901D02*
Y-95845D01*
X-83665Y-93080D02*
Y-92809D01*
X-295501Y-9399D02*
Y-0D01*
X-93726Y-45721D02*
X-33479D01*
X-1679Y-77521D01*
X39202Y-93171D02*
X56589D01*
X23552Y-77521D02*
X39202Y-93171D01*
X-1679Y-77521D02*
X23552D01*
X202223Y97027D02*
Y114033D01*
Y56387D02*
Y97027D01*
X151638Y46227D02*
X152240Y46829D01*
X138589Y33178D02*
X151638Y46227D01*
X161036Y46829D02*
X192665D01*
X152146D02*
X152240D01*
X151638Y46227D02*
Y46321D01*
Y34543D02*
Y46227D01*
X136589Y47306D02*
Y53329D01*
X138589Y33178D02*
Y39329D01*
Y19329D02*
Y33178D01*
X138430Y-671D02*
Y14318D01*
X122428Y19329D02*
Y34128D01*
X90589Y-12671D02*
Y-671D01*
Y-20671D02*
Y-12671D01*
X169926Y-77061D02*
X188976Y-96111D01*
X138430Y-76512D02*
X147599Y-85681D01*
X122589Y-60671D02*
X138430Y-76512D01*
X205733Y-93473D02*
X208534D01*
X205733Y-98052D02*
Y-93473D01*
X138430Y-76512D02*
Y-60512D01*
Y-80512D02*
Y-76512D01*
X122428Y-44510D02*
Y-40832D01*
Y-60510D02*
Y-44510D01*
X106426Y-28508D02*
Y-25818D01*
Y-40671D02*
Y-28508D01*
X120795Y-42877D02*
X122428Y-40832D01*
X106589Y-60671D02*
X120795Y-42877D01*
X136589Y-94671D02*
Y-82671D01*
X96589Y-131492D02*
Y-100400D01*
X71589Y56829D02*
X74589Y53829D01*
X56388Y42030D02*
X56589Y41829D01*
X52070Y46348D02*
X56388Y42030D01*
X78589Y-671D02*
X90589D01*
X74589D02*
X78589D01*
X74589Y3329D02*
Y19329D01*
Y-671D02*
Y3329D01*
X138430Y-60512D02*
X138589Y-60671D01*
X122428Y-44510D02*
X138430Y-60512D01*
X120795Y-42877D02*
X122428Y-44510D01*
X106426Y-28508D02*
X120795Y-42877D01*
X90589Y-12671D02*
X106426Y-28508D01*
X78589Y-671D02*
X90589Y-12671D01*
X74589Y3329D02*
X78589Y-671D01*
X68834Y9084D02*
X74589Y3329D01*
X51816Y-10457D02*
Y4543D01*
X5926Y-53171D02*
X54102D01*
X51816Y-60885D02*
Y-55457D01*
Y-70885D02*
Y-60885D01*
X-138185Y58263D02*
Y87983D01*
Y-85545D02*
Y58263D01*
X218694Y-50039D02*
X249428D01*
X208534D02*
X218694D01*
X194777Y-63796D02*
X205733Y-52840D01*
X122113Y90488D02*
Y126495D01*
X194777Y-84583D02*
X205733D01*
X194777D02*
Y-63796D01*
X156972Y-120647D02*
X157226Y-120393D01*
X-262636Y82601D02*
X-188416D01*
X-167894Y103123D01*
X-116586Y-45721D02*
X-93726D01*
X117856Y68325D02*
Y76988D01*
X-99495Y-14564D02*
X-88731D01*
X-87762Y-13595D01*
X-75921D01*
X-97536Y2395D02*
Y7365D01*
X-99495Y436D02*
X-97536Y2395D01*
X-73406Y70611D02*
X-66802Y64007D01*
X-100584Y70611D02*
X-73406D01*
X147599Y138458D02*
Y165199D01*
X135636Y126495D02*
X147599Y138458D01*
X122113Y126495D02*
X135636D01*
X184621Y76988D02*
Y93465D01*
X121795Y76988D02*
X184621D01*
X156589Y36829D02*
X210058D01*
X221742Y48513D01*
Y62737D01*
X230378Y71373D01*
X269479D01*
X272288Y68564D01*
Y50306D02*
Y68564D01*
X264550Y42568D02*
X272288Y50306D01*
X264550Y-59468D02*
Y42568D01*
X56589Y-13171D02*
X60490D01*
X64008Y-9653D01*
X56707Y-18289D02*
X61214D01*
X56589Y-18171D02*
X56707Y-18289D01*
X71589Y-101894D02*
Y-98171D01*
X70866Y-102617D02*
X71589Y-101894D01*
X66589Y-98171D02*
Y-93219D01*
X77216Y-90425D01*
X81788Y-85853D01*
Y-35561D01*
X-79248Y58673D02*
X-32004D01*
X-84582Y64007D02*
X-79248Y58673D01*
X74589Y39329D02*
Y53829D01*
X76589Y56829D01*
X-124185Y68050D02*
Y87983D01*
Y68050D02*
X-120142Y64007D01*
X-84582D01*
X168468Y16829D02*
X170180Y18541D01*
X156589Y16829D02*
X168468D01*
X122428Y-60510D02*
X122589Y-60671D01*
X122428Y-40832D02*
X122589Y-40671D01*
X138589Y-69597D02*
Y-60671D01*
X156589Y-100206D02*
Y-98171D01*
X142494Y-114301D02*
X156589Y-100206D01*
X142019Y-121974D02*
X142494Y-114301D01*
X138430Y-80512D02*
X138589Y-80671D01*
X116589Y45329D02*
Y56829D01*
Y45329D02*
X122589Y39329D01*
X-103886Y53085D02*
X-84822D01*
X-130556Y61721D02*
X-102334Y33498D01*
X-130556Y61721D02*
Y96773D01*
X-238506Y-109296D02*
X-223901Y-123901D01*
X-238506Y-109296D02*
Y-34799D01*
X-167894Y103123D02*
X-152400Y118617D01*
X-167894Y-149705D02*
X-152400Y-165199D01*
Y118617D02*
Y165199D01*
X-295468Y82601D02*
X-262636D01*
X-152400Y-165199D02*
X-120650Y-133449D01*
Y-49785D01*
X-116586Y-45721D01*
X56589Y-88171D02*
X62452D01*
X67564Y-83059D01*
Y-59945D01*
X66040Y-58421D02*
X67564Y-59945D01*
X194310Y-99823D02*
X194777Y-99356D01*
Y-92906D01*
X61589Y-100198D02*
Y-98171D01*
Y-100198D02*
X64516Y-103125D01*
X65278D01*
X156589Y-23171D02*
X158694D01*
X161036Y-20829D01*
Y-509D01*
X158698Y1829D02*
X161036Y-509D01*
X156589Y1829D02*
X158698D01*
X154352Y31829D02*
X156589D01*
X151638Y34543D02*
X154352Y31829D01*
X151638Y46321D02*
X152146Y46829D01*
X156589Y56829D02*
X158562D01*
X161036Y54355D01*
Y46829D02*
Y54355D01*
X156589Y46829D02*
X161036D01*
X54102Y-8171D02*
X56589D01*
X51816Y-10457D02*
X54102Y-8171D01*
X51816Y-30885D02*
Y-10457D01*
X54102Y-33171D02*
X56589D01*
X51816Y-30885D02*
X54102Y-33171D01*
X51816Y4543D02*
X54102Y6829D01*
X56589D01*
X202223Y114033D02*
Y120504D01*
X202078Y120649D02*
X202223Y120504D01*
X185819Y120649D02*
X202078D01*
X149243Y84073D02*
X185819Y120649D01*
X117094Y84073D02*
X149243D01*
X112313Y88853D02*
X117094Y84073D01*
X112313Y88853D02*
Y126495D01*
X161036Y-68171D02*
Y-48171D01*
X156589D02*
X161036D01*
X56589Y-102254D02*
Y-98171D01*
Y-102254D02*
X62286Y-107951D01*
X74366D01*
X76589Y-105728D01*
Y-98171D01*
X54102Y-63171D02*
X56589D01*
X51816Y-60885D02*
X54102Y-63171D01*
Y-53171D02*
X56589D01*
X54102Y-73171D02*
X56589D01*
X51816Y-70885D02*
X54102Y-73171D01*
X51816Y-55457D02*
X54102Y-53171D01*
X161036Y-68171D02*
X169926Y-77061D01*
Y-121693D02*
Y-77061D01*
X163574Y-128045D02*
X169926Y-121693D01*
X156589Y-68171D02*
X161036D01*
X188976Y-102036D02*
Y-96111D01*
Y-102036D02*
X192078Y-105138D01*
X198647D01*
X205733Y-98052D01*
X96589Y-100400D02*
Y-98171D01*
Y-100400D02*
X99060Y-102871D01*
X106065D01*
X106589Y-102347D01*
Y-98171D01*
X-190450Y123901D02*
X-181102Y114553D01*
X-223901Y123901D02*
X-190450D01*
X-1679Y77521D02*
X9196D01*
X34544Y102869D01*
X40386D01*
X49276Y111759D01*
X65532D01*
X86868Y133095D01*
X122113D01*
Y126495D02*
Y133095D01*
X-64723Y14477D02*
X-1679Y77521D01*
X-100330Y14477D02*
X-64723D01*
X-106680Y8127D02*
X-100330Y14477D01*
X-106680Y-32767D02*
Y8127D01*
Y-32767D02*
X-93726Y-45721D01*
X147599Y-165199D02*
X156972Y-155827D01*
Y-120647D01*
X205733Y-52840D02*
X208534Y-50039D01*
X218694D02*
X221742Y-53087D01*
Y-99823D02*
Y-53087D01*
X186944Y-134621D02*
X221742Y-99823D01*
X157480Y-134621D02*
X186944D01*
X157226Y-134367D02*
X157480Y-134621D01*
X157226Y-134367D02*
Y-120393D01*
X163574Y-114045D01*
X265430Y-82601D02*
X290700D01*
X256540Y-73711D02*
X265430Y-82601D01*
X256540Y-73711D02*
Y-57151D01*
X249428Y-50039D02*
X256540Y-57151D01*
X256032Y58532D02*
X264550D01*
X247509Y67055D02*
X256032Y58532D01*
X232410Y67055D02*
X247509D01*
X229608Y64253D02*
X232410Y67055D01*
X229608Y35805D02*
Y64253D01*
X220632Y26829D02*
X229608Y35805D01*
X156589Y26829D02*
X220632D01*
X57383Y73994D02*
X103042D01*
X111589Y65448D01*
Y56829D02*
Y65448D01*
X194421Y72754D02*
Y93465D01*
X176022Y54355D02*
X194421Y72754D01*
X82042Y49275D02*
Y56376D01*
X81589Y56829D02*
X82042Y56376D01*
X117856Y76988D02*
X121795D01*
X41009Y41008D02*
X47244Y47243D01*
X41009Y-1507D02*
Y41008D01*
X-124185Y87983D02*
Y95757D01*
X156589Y11829D02*
X170326D01*
X176276Y17779D01*
X224925D01*
X239149Y32003D01*
Y58532D01*
X-46150Y-1095D02*
X5926Y-53171D01*
X-75921Y-1095D02*
X-46150D01*
X187403Y114033D02*
X192423D01*
X184621Y111251D02*
X187403Y114033D01*
X184621Y93465D02*
Y111251D01*
X147599Y165199D02*
X187174Y125624D01*
X204370D01*
X229529Y100464D01*
X74589Y-40671D02*
X74676Y-40758D01*
Y-60584D02*
Y-40758D01*
X74589Y-60671D02*
X74676Y-60584D01*
X74589Y-65324D02*
Y-60671D01*
X74256Y-65657D02*
X74589Y-65324D01*
X74256Y-80338D02*
Y-65657D01*
Y-80338D02*
X74589Y-80671D01*
X56589Y-53171D02*
X71280D01*
X74589Y-56480D01*
Y-60671D02*
Y-56480D01*
X290700Y62303D02*
Y82601D01*
X275844Y47446D02*
X290700Y62303D01*
X275844Y-67744D02*
Y47446D01*
Y-67744D02*
X290700Y-82601D01*
X156589Y41829D02*
X208534D01*
X213750Y47045D01*
Y58532D01*
X152240Y46829D02*
X156589D01*
X101589Y54090D02*
Y56829D01*
X98806Y51307D02*
X101589Y54090D01*
X94637Y51307D02*
X98806D01*
X91589Y54355D02*
X94637Y51307D01*
X91589Y54355D02*
Y56829D01*
X138589Y-671D02*
X149645D01*
X152146Y1829D01*
X156589D01*
X56589Y46829D02*
X67089D01*
X74589Y39329D01*
X247393Y82601D02*
X290700D01*
X229529Y100464D02*
X247393Y82601D01*
X192665Y46829D02*
X202223Y56387D01*
X163574Y-114045D02*
Y-94439D01*
X162306Y-93171D02*
X163574Y-94439D01*
X156589Y-93171D02*
X162306D01*
X106168Y-117153D02*
Y-112523D01*
X111589Y-107102D01*
Y-98171D01*
X116589Y-114865D02*
Y-98171D01*
Y-114865D02*
X123698Y-121974D01*
X125503D01*
X205733Y-85884D02*
Y-84583D01*
X194777Y-85350D02*
Y-84583D01*
X138589Y-40671D02*
X146088Y-48171D01*
X156589D01*
X115062Y-132662D02*
X147599Y-165199D01*
X115062Y-132662D02*
Y-121217D01*
X110998Y-117153D02*
X115062Y-121217D01*
X106168Y-117153D02*
X110998D01*
X121795Y90488D02*
X122113D01*
X-138185Y-85545D02*
X-131629Y-92102D01*
X74422Y-20504D02*
X74589Y-20671D01*
X74422Y-20504D02*
Y-838D01*
X74589Y-671D01*
X90589Y-80671D02*
X106589D01*
X136589Y-82671D02*
X138589Y-80671D01*
X86589Y-98171D02*
X91589D01*
X96589D01*
X81589D02*
X86589D01*
X91589D02*
Y-89812D01*
X90589Y-88812D02*
X91589Y-89812D01*
X90589Y-88812D02*
Y-80671D01*
X122589Y-88994D02*
Y-80671D01*
X121589Y-89994D02*
X122589Y-88994D01*
X121589Y-98171D02*
Y-89994D01*
X96589Y-131492D02*
X98806Y-133709D01*
X106168D01*
X136589Y-98171D02*
Y-94671D01*
X122589Y-80671D02*
X136589Y-94671D01*
X142019Y-121974D02*
Y-109317D01*
X136589Y-103887D02*
X142019Y-109317D01*
X136589Y-103887D02*
Y-98171D01*
X76589D02*
X81589D01*
X213750Y-88258D02*
Y-59468D01*
X208534Y-93473D02*
X213750Y-88258D01*
X205733Y-93473D02*
Y-93440D01*
X90589Y-80671D02*
Y-60671D01*
X106589Y-80671D02*
Y-60671D01*
X122589Y-80671D02*
Y-60671D01*
X138430Y-40830D02*
X138589Y-40671D01*
X138430Y-60512D02*
Y-40830D01*
X90424Y-20836D02*
X90589Y-20671D01*
X90424Y-40506D02*
Y-20836D01*
Y-40506D02*
X90589Y-40671D01*
Y-60671D02*
Y-40671D01*
X106426D02*
X106589D01*
X106426Y-25818D02*
X106589Y-25655D01*
Y-20671D01*
Y-60671D02*
Y-40671D01*
X74589D02*
Y-20671D01*
X138430Y-40512D02*
X138589Y-40671D01*
X138430Y-40512D02*
Y-20830D01*
X138589Y-20671D01*
X122589Y-40671D02*
Y-20671D01*
X106589D02*
Y-671D01*
X54102Y56829D02*
X56589D01*
X52070Y54797D02*
X54102Y56829D01*
X52070Y46348D02*
Y54797D01*
X138589Y-20671D02*
Y-671D01*
X122589Y-20671D02*
X122682Y-20578D01*
Y-764D01*
X122589Y-671D02*
X122682Y-764D01*
X138430Y-671D02*
X138589D01*
X138430Y14318D02*
X138589Y14477D01*
Y19329D01*
X86589Y56829D02*
X91589D01*
X106426Y39166D02*
X106589Y39329D01*
X106426Y19492D02*
Y39166D01*
Y19492D02*
X106589Y19329D01*
X101589Y56829D02*
X106589D01*
Y39329D02*
Y56829D01*
X212786Y86465D02*
X229529D01*
X202223Y97027D02*
X212786Y86465D01*
X56589Y21829D02*
Y26829D01*
Y31829D01*
Y16829D02*
Y21829D01*
Y31829D02*
Y36829D01*
Y41829D01*
Y11829D02*
Y16829D01*
Y6829D02*
Y11829D01*
X56388Y42030D02*
Y46628D01*
X56589Y46829D01*
X90589Y-671D02*
Y19329D01*
X136589Y47306D02*
X138589Y45306D01*
Y39329D02*
Y45306D01*
X136589Y53329D02*
Y56829D01*
X122589Y39329D02*
X136589Y53329D01*
X74589Y19329D02*
Y39329D01*
X106589Y-671D02*
Y19329D01*
X90589D02*
Y39329D01*
X122428Y19329D02*
X122589D01*
X122428Y34128D02*
X122589Y34289D01*
Y39329D01*
D51*
X-261865Y25458D02*
D03*
X-284043Y-64430D02*
D03*
X-271864Y-49913D02*
D03*
X-79542Y92367D02*
D03*
X-83665Y-92809D02*
D03*
X-97536Y7365D02*
D03*
X-66802Y64007D02*
D03*
X-100584Y70611D02*
D03*
X64008Y-9653D02*
D03*
X61214Y-18289D02*
D03*
X70866Y-102617D02*
D03*
X81788Y-35561D02*
D03*
X-280670Y55879D02*
D03*
X-32004Y58673D02*
D03*
X-84582Y64007D02*
D03*
X68834Y9084D02*
D03*
X170180Y18541D02*
D03*
X138589Y-69597D02*
D03*
X147599Y-85681D02*
D03*
X-103886Y53085D02*
D03*
X-84822D02*
D03*
X-102334Y33498D02*
D03*
X-238506Y-34799D02*
D03*
X-262636Y82601D02*
D03*
X66040Y-58421D02*
D03*
X194310Y-99823D02*
D03*
X65278Y-103125D02*
D03*
X-181102Y114553D02*
D03*
X176022Y54355D02*
D03*
X82042Y49275D02*
D03*
X117856Y68325D02*
D03*
X47244Y47243D02*
D03*
X-138185Y58263D02*
D03*
X-124185Y95757D02*
D03*
X-177292Y-64771D02*
D03*
M02*
