M48
;Layer_Color=9474304
;FILE_FORMAT=4:4
METRIC,LZ
;TYPE=PLATED
T01F00S00C0.2000
T02F00S00C1.0200
;TYPE=NON_PLATED
T03F00S00C0.7112
T04F00S00C0.8890
%
T01
X0019431Y-00099823
X00147599Y-00085681
X00138589Y-00069597
X0006604Y-00058421
X00081788Y-00035561
X00061214Y-00018289
X00064008Y-00009653
X00068834Y00009084
X00082042Y00049275
X00047244Y00047243
X-00032004Y00058673
X-00066802Y00064007
X-00084582
X-00084822Y00053085
X-00103886
X-00102334Y00033498
X-00097536Y00007365
X-00138185Y00058263
X-00177292Y-00064771
X-00083665Y-00092809
X00065278Y-00103125
X00070866Y-00102617
X00117856Y00068325
X00176022Y00054355
X0017018Y00018541
X-00261865Y00025458
X-0028067Y00055879
X-00271864Y-00049913
X-00284043Y-0006443
X-00238506Y-00034799
X-00262636Y00082601
X-00181102Y00114553
X-00124185Y00095757
X-00079542Y00092367
X-00100584Y00070611
T02
X-00182429Y-00092102
X-00157029
X-00131629
T03
X00193149Y-00041968
T04
X00283149Y00041032
M30
