G04*
G04 #@! TF.GenerationSoftware,Altium Limited,Altium Designer,25.8.1 (18)*
G04*
G04 Layer_Color=8388736*
%FSLAX44Y44*%
%MOMM*%
G71*
G04*
G04 #@! TF.SameCoordinates,2BA7E10B-6E93-4220-B227-DF091A9E169F*
G04*
G04*
G04 #@! TF.FilePolarity,Negative*
G04*
G01*
G75*
%ADD18R,0.3000X0.5556*%
%ADD19R,0.3048X0.3048*%
%ADD20R,0.8128X0.8128*%
%ADD21R,0.3048X0.3048*%
%ADD22R,0.8000X0.6556*%
%ADD23R,1.2546X1.4562*%
%ADD24R,0.7000X0.7000*%
%ADD25R,0.9906X1.0922*%
%ADD27R,0.7000X0.6500*%
%ADD31R,0.9906X2.9972*%
%ADD34R,0.8000X0.8000*%
%ADD35R,0.7400X0.9900*%
G04:AMPARAMS|DCode=36|XSize=1.2032mm|YSize=1.2032mm|CornerRadius=0.6016mm|HoleSize=0mm|Usage=FLASHONLY|Rotation=90.000|XOffset=0mm|YOffset=0mm|HoleType=Round|Shape=RoundedRectangle|*
%AMROUNDEDRECTD36*
21,1,1.2032,0.0000,0,0,90.0*
21,1,0.0000,1.2032,0,0,90.0*
1,1,1.2032,0.0000,0.0000*
1,1,1.2032,0.0000,0.0000*
1,1,1.2032,0.0000,0.0000*
1,1,1.2032,0.0000,0.0000*
%
%ADD36ROUNDEDRECTD36*%
%ADD37R,1.1532X1.0032*%
%ADD38R,0.9832X0.9432*%
G04:AMPARAMS|DCode=39|XSize=1.2032mm|YSize=1.2032mm|CornerRadius=0.6016mm|HoleSize=0mm|Usage=FLASHONLY|Rotation=30.000|XOffset=0mm|YOffset=0mm|HoleType=Round|Shape=RoundedRectangle|*
%AMROUNDEDRECTD39*
21,1,1.2032,0.0000,0,0,30.0*
21,1,0.0000,1.2032,0,0,30.0*
1,1,1.2032,0.0000,0.0000*
1,1,1.2032,0.0000,0.0000*
1,1,1.2032,0.0000,0.0000*
1,1,1.2032,0.0000,0.0000*
%
%ADD39ROUNDEDRECTD39*%
G04:AMPARAMS|DCode=40|XSize=1.2032mm|YSize=1.2032mm|CornerRadius=0.6016mm|HoleSize=0mm|Usage=FLASHONLY|Rotation=150.000|XOffset=0mm|YOffset=0mm|HoleType=Round|Shape=RoundedRectangle|*
%AMROUNDEDRECTD40*
21,1,1.2032,0.0000,0,0,150.0*
21,1,0.0000,1.2032,0,0,150.0*
1,1,1.2032,0.0000,0.0000*
1,1,1.2032,0.0000,0.0000*
1,1,1.2032,0.0000,0.0000*
1,1,1.2032,0.0000,0.0000*
%
%ADD40ROUNDEDRECTD40*%
%ADD41C,0.8890*%
%ADD42C,0.7112*%
%ADD43C,1.5700*%
%ADD44R,1.5700X1.5700*%
%ADD45C,0.6032*%
G36*
X153602Y191945D02*
X157319Y190313D01*
X160621Y187953D01*
X163369Y184964D01*
X165443Y181474D01*
X166757Y177633D01*
X167254Y173604D01*
X166912Y169559D01*
X165747Y165671D01*
X164778Y163887D01*
Y163887D01*
X147599Y173778D01*
X163910Y164387D01*
X163116Y162923D01*
X161034Y160324D01*
X158522Y158138D01*
X155660Y156435D01*
X152541Y155268D01*
X149264Y154675D01*
X145934D01*
X142657Y155268D01*
X139538Y156435D01*
X136677Y158138D01*
X134165Y160324D01*
X132082Y162923D01*
X131289Y164387D01*
X130421Y163887D01*
X129452Y165671D01*
X128287Y169559D01*
X127945Y173604D01*
X128442Y177633D01*
X129755Y181474D01*
X131830Y184964D01*
X134577Y187953D01*
X137880Y190313D01*
X141597Y191945D01*
X145570Y192779D01*
X149629D01*
X153602Y191945D01*
D02*
G37*
G36*
X-146397D02*
X-142680Y190313D01*
X-139378Y187953D01*
X-136631Y184964D01*
X-134556Y181474D01*
X-133243Y177633D01*
X-132746Y173604D01*
X-133087Y169559D01*
X-134252Y165671D01*
X-135222Y163887D01*
Y163887D01*
X-152400Y173778D01*
X-136089Y164387D01*
X-136883Y162923D01*
X-138966Y160324D01*
X-141478Y158138D01*
X-144339Y156435D01*
X-147458Y155268D01*
X-150735Y154675D01*
X-154065D01*
X-157342Y155268D01*
X-160461Y156435D01*
X-163322Y158138D01*
X-165834Y160324D01*
X-167917Y162923D01*
X-168711Y164387D01*
X-169578Y163887D01*
X-170548Y165671D01*
X-171713Y169559D01*
X-172054Y173604D01*
X-171558Y177633D01*
X-170244Y181474D01*
X-168169Y184964D01*
X-165422Y187953D01*
X-162120Y190313D01*
X-158403Y191945D01*
X-154430Y192779D01*
X-150370D01*
X-146397Y191945D01*
D02*
G37*
G36*
X-92289Y139060D02*
X-92277Y139080D01*
X-77174Y130346D01*
X-62065Y121637D01*
X-62076Y121617D01*
X-62023Y121586D01*
X-62856Y120043D01*
X-65104Y117351D01*
X-67840Y115159D01*
X-70958Y113554D01*
X-74333Y112600D01*
X-77829Y112336D01*
X-81309Y112771D01*
X-84633Y113888D01*
X-86165Y114774D01*
X-87704Y115661D01*
X-90333Y117981D01*
X-92450Y120777D01*
X-93969Y123937D01*
X-94830Y127337D01*
X-94999Y130839D01*
X-94469Y134305D01*
X-93261Y137598D01*
X-92343Y139091D01*
X-92289Y139060D01*
D02*
G37*
G36*
X-211602Y137587D02*
X-210390Y134297D01*
X-209856Y130831D01*
X-210020Y127328D01*
X-210877Y123928D01*
X-212392Y120765D01*
X-214505Y117967D01*
X-217131Y115644D01*
X-220167Y113888D01*
X-223491Y112771D01*
X-226971Y112336D01*
X-230467Y112600D01*
X-233842Y113554D01*
X-236960Y115159D01*
X-239697Y117351D01*
X-241944Y120043D01*
X-242778Y121586D01*
X-242778D01*
X-212523Y139080D01*
X-211602Y137587D01*
D02*
G37*
G36*
X-285740Y96820D02*
D01*
X-285740D01*
X-285740D01*
D02*
G37*
G36*
X-284825Y95325D02*
X-283556Y92057D01*
X-282889Y88616D01*
X-282844Y85111D01*
X-283423Y81654D01*
X-284608Y78355D01*
X-286361Y75319D01*
X-288626Y72643D01*
X-291330Y70413D01*
X-294388Y68700D01*
X-297702Y67557D01*
X-301166Y67023D01*
X-302918Y67067D01*
X-302917Y68069D01*
X-302920Y68069D01*
Y68069D01*
X-302897Y86890D01*
X-286609Y96320D01*
X-286608Y96318D01*
X-285740Y96820D01*
X-284825Y95325D01*
D02*
G37*
G36*
X281810Y96269D02*
X281842Y96320D01*
X281842D01*
X298130Y86890D01*
X298152Y68069D01*
X298099Y68068D01*
Y67106D01*
X296351Y67059D01*
X292893Y67589D01*
X289584Y68726D01*
X286530Y70432D01*
X283828Y72655D01*
X281565Y75323D01*
X279812Y78351D01*
X278626Y81642D01*
X278044Y85092D01*
X278084Y88590D01*
X278747Y92025D01*
X280009Y95288D01*
X280921Y96781D01*
Y96781D01*
X281810Y96269D01*
D02*
G37*
G36*
X-2400Y87176D02*
X14278Y96781D01*
X15189Y95288D01*
X16452Y92025D01*
X17114Y88590D01*
X17155Y85092D01*
X16573Y81642D01*
X15387Y78351D01*
X13634Y75323D01*
X11371Y72655D01*
X8669Y70432D01*
X5615Y68726D01*
X2306Y67589D01*
X-1152Y67059D01*
X-2400Y67093D01*
X-3649Y67059D01*
X-7107Y67589D01*
X-10416Y68726D01*
X-13470Y70432D01*
X-16171Y72655D01*
X-18435Y75323D01*
X-20187Y78351D01*
X-21374Y81642D01*
X-21956Y85092D01*
X-21915Y88590D01*
X-21253Y92025D01*
X-19990Y95288D01*
X-19079Y96781D01*
Y96781D01*
X-2400Y87176D01*
D02*
G37*
G36*
X-297687Y16945D02*
X-294415Y15672D01*
X-291462Y13774D01*
X-288944Y11327D01*
X-286963Y8429D01*
X-285596Y5196D01*
X-284899Y1755D01*
Y-1755D01*
X-285596Y-5196D01*
X-286963Y-8429D01*
X-288944Y-11327D01*
X-291462Y-13774D01*
X-294415Y-15672D01*
X-297687Y-16945D01*
X-297715Y-16950D01*
X-297726Y-16954D01*
X-301182Y-17555D01*
X-302934Y-17506D01*
X-302934D01*
X-302957Y17443D01*
X-302900Y17444D01*
Y17493D01*
X-301146Y17544D01*
X-297687Y16945D01*
D02*
G37*
G36*
X2306Y-67589D02*
X5615Y-68726D01*
X8669Y-70432D01*
X11371Y-72655D01*
X13634Y-75323D01*
X15387Y-78351D01*
X16573Y-81642D01*
X17155Y-85092D01*
X17114Y-88590D01*
X16452Y-92025D01*
X15189Y-95288D01*
X14278Y-96781D01*
X6020Y-92025D01*
X-2400Y-87176D01*
X-19079Y-96781D01*
X-19990Y-95288D01*
X-21253Y-92025D01*
X-21915Y-88590D01*
X-21956Y-85092D01*
X-21374Y-81642D01*
X-20187Y-78351D01*
X-18435Y-75323D01*
X-16171Y-72655D01*
X-13470Y-70432D01*
X-10416Y-68726D01*
X-7107Y-67589D01*
X-3649Y-67059D01*
X-2400Y-67093D01*
X-1152Y-67059D01*
X2306Y-67589D01*
D02*
G37*
G36*
X298099Y-67106D02*
Y-68068D01*
X298152Y-68069D01*
X298152Y-68069D01*
X298130Y-86890D01*
X281842Y-96320D01*
X281810Y-96269D01*
X280921Y-96781D01*
X280009Y-95288D01*
X278747Y-92025D01*
X278084Y-88590D01*
X278044Y-85092D01*
X278626Y-81642D01*
X279812Y-78351D01*
X281565Y-75323D01*
X283828Y-72655D01*
X286530Y-70432D01*
X289584Y-68726D01*
X292893Y-67589D01*
X296351Y-67059D01*
X298099Y-67106D01*
D02*
G37*
G36*
X14278Y-96781D02*
X14278D01*
D01*
X14278D01*
D02*
G37*
G36*
X-302917Y-68069D02*
X-301255Y-68025D01*
X-297964Y-68529D01*
X-294814Y-69612D01*
X-291908Y-71238D01*
X-289338Y-73355D01*
X-287186Y-75897D01*
X-285521Y-78781D01*
X-284396Y-81915D01*
X-283847Y-85200D01*
X-283892Y-88529D01*
X-284529Y-91798D01*
X-285738Y-94901D01*
X-286608Y-96318D01*
X-285740Y-96820D01*
X-286800Y-98551D01*
X-289585Y-101504D01*
X-292917Y-103823D01*
X-296655Y-105407D01*
X-300638Y-106190D01*
X-304697Y-106138D01*
X-308659Y-105253D01*
X-312354Y-103574D01*
X-315626Y-101171D01*
X-318335Y-98147D01*
X-320365Y-94632D01*
X-321629Y-90774D01*
X-322074Y-86740D01*
X-321681Y-82699D01*
X-320466Y-78826D01*
X-318482Y-75285D01*
X-315812Y-72226D01*
X-312571Y-69782D01*
X-308898Y-68055D01*
X-304947Y-67120D01*
X-302918Y-67067D01*
X-302918Y-67067D01*
X-302917Y-68069D01*
D02*
G37*
G36*
X-74333Y-112600D02*
X-70958Y-113554D01*
X-67840Y-115159D01*
X-65104Y-117351D01*
X-62856Y-120043D01*
X-62023Y-121586D01*
D01*
Y-121586D01*
X-77150Y-130333D01*
X-92277Y-139080D01*
X-93198Y-137587D01*
X-94410Y-134297D01*
X-94944Y-130831D01*
X-94780Y-127329D01*
X-93923Y-123928D01*
X-92408Y-120766D01*
X-90295Y-117967D01*
X-87669Y-115644D01*
X-84633Y-113888D01*
X-81309Y-112771D01*
X-77829Y-112336D01*
X-74333Y-112600D01*
D02*
G37*
G36*
X-223491Y-112771D02*
X-220167Y-113888D01*
X-218636Y-114774D01*
X-217097Y-115661D01*
X-214467Y-117981D01*
X-212350Y-120777D01*
X-210831Y-123937D01*
X-209970Y-127337D01*
X-209801Y-130839D01*
X-210331Y-134305D01*
X-211539Y-137598D01*
X-212457Y-139091D01*
D01*
X-212457Y-139091D01*
X-212457Y-139091D01*
X-212511Y-139060D01*
X-212523Y-139080D01*
D01*
X-212523Y-139080D01*
X-212523Y-139080D01*
X-227626Y-130346D01*
X-242735Y-121637D01*
X-242724Y-121617D01*
X-242778Y-121586D01*
X-241944Y-120043D01*
X-239697Y-117351D01*
X-236960Y-115159D01*
X-233842Y-113554D01*
X-230467Y-112600D01*
X-226971Y-112336D01*
X-223491Y-112771D01*
D02*
G37*
G36*
X152541Y-155268D02*
X155660Y-156435D01*
X158522Y-158139D01*
X161034Y-160324D01*
X163116Y-162923D01*
X163910Y-164387D01*
X147599Y-173778D01*
X131289Y-164387D01*
X132082Y-162923D01*
X134165Y-160324D01*
X136677Y-158139D01*
X139538Y-156435D01*
X142657Y-155268D01*
X145934Y-154675D01*
X149264D01*
X152541Y-155268D01*
D02*
G37*
G36*
X-147458D02*
X-144339Y-156435D01*
X-141478Y-158139D01*
X-138966Y-160324D01*
X-136883Y-162923D01*
X-136089Y-164387D01*
X-152400Y-173778D01*
X-168711Y-164387D01*
X-167917Y-162923D01*
X-165834Y-160324D01*
X-163322Y-158139D01*
X-160461Y-156435D01*
X-157342Y-155268D01*
X-154065Y-154675D01*
X-150735D01*
X-147458Y-155268D01*
D02*
G37*
D18*
X194777Y-92906D02*
D03*
Y-85350D02*
D03*
X205733Y-93440D02*
D03*
Y-85884D02*
D03*
D19*
X63089Y-78171D02*
D03*
Y-73171D02*
D03*
Y-68171D02*
D03*
Y-63171D02*
D03*
Y-38171D02*
D03*
Y-33171D02*
D03*
Y-28171D02*
D03*
Y-23171D02*
D03*
Y11829D02*
D03*
Y16829D02*
D03*
Y21829D02*
D03*
Y26829D02*
D03*
X150089D02*
D03*
Y21829D02*
D03*
Y16829D02*
D03*
Y11829D02*
D03*
Y-23171D02*
D03*
Y-28171D02*
D03*
Y-33171D02*
D03*
Y-38171D02*
D03*
Y-63171D02*
D03*
Y-68171D02*
D03*
Y-73171D02*
D03*
Y-78171D02*
D03*
X56589Y-93171D02*
D03*
Y-88171D02*
D03*
Y-83171D02*
D03*
Y-78171D02*
D03*
Y-73171D02*
D03*
Y-68171D02*
D03*
Y-63171D02*
D03*
Y-58171D02*
D03*
Y-53171D02*
D03*
Y-48171D02*
D03*
Y-43171D02*
D03*
Y-38171D02*
D03*
Y-33171D02*
D03*
Y-28171D02*
D03*
Y-23171D02*
D03*
Y-18171D02*
D03*
Y-13171D02*
D03*
Y-8171D02*
D03*
Y-3171D02*
D03*
Y1829D02*
D03*
Y6829D02*
D03*
Y11829D02*
D03*
Y16829D02*
D03*
Y21829D02*
D03*
Y26829D02*
D03*
Y31829D02*
D03*
Y36829D02*
D03*
Y41829D02*
D03*
Y46829D02*
D03*
Y51829D02*
D03*
X156589D02*
D03*
Y46829D02*
D03*
Y41829D02*
D03*
Y36829D02*
D03*
Y31829D02*
D03*
Y26829D02*
D03*
Y21829D02*
D03*
Y16829D02*
D03*
Y11829D02*
D03*
Y6829D02*
D03*
Y1829D02*
D03*
Y-3171D02*
D03*
Y-8171D02*
D03*
Y-13171D02*
D03*
Y-18171D02*
D03*
Y-23171D02*
D03*
Y-28171D02*
D03*
Y-33171D02*
D03*
Y-38171D02*
D03*
Y-43171D02*
D03*
Y-48171D02*
D03*
Y-53171D02*
D03*
Y-58171D02*
D03*
Y-63171D02*
D03*
Y-68171D02*
D03*
Y-73171D02*
D03*
Y-78171D02*
D03*
Y-83171D02*
D03*
Y-88171D02*
D03*
Y-93171D02*
D03*
D20*
X138589Y39329D02*
D03*
Y19329D02*
D03*
Y-671D02*
D03*
Y-20671D02*
D03*
Y-40671D02*
D03*
Y-60671D02*
D03*
Y-80671D02*
D03*
X122589Y39329D02*
D03*
Y19329D02*
D03*
Y-671D02*
D03*
Y-20671D02*
D03*
Y-40671D02*
D03*
Y-60671D02*
D03*
Y-80671D02*
D03*
X106589Y39329D02*
D03*
Y19329D02*
D03*
Y-671D02*
D03*
Y-20671D02*
D03*
Y-40671D02*
D03*
Y-60671D02*
D03*
Y-80671D02*
D03*
X90589Y39329D02*
D03*
Y19329D02*
D03*
Y-671D02*
D03*
Y-20671D02*
D03*
Y-40671D02*
D03*
Y-60671D02*
D03*
Y-80671D02*
D03*
X74589Y39329D02*
D03*
Y19329D02*
D03*
Y-671D02*
D03*
Y-20671D02*
D03*
Y-40671D02*
D03*
Y-60671D02*
D03*
Y-80671D02*
D03*
D21*
X56589Y56829D02*
D03*
X61589D02*
D03*
X66589D02*
D03*
X71589D02*
D03*
X76589D02*
D03*
X81589D02*
D03*
X86589D02*
D03*
X91589D02*
D03*
X96589D02*
D03*
X101589D02*
D03*
X106589D02*
D03*
X111589D02*
D03*
X116589D02*
D03*
X121589D02*
D03*
X126589D02*
D03*
X131589D02*
D03*
X136589D02*
D03*
X141589D02*
D03*
X146589D02*
D03*
X151588D02*
D03*
X156589D02*
D03*
Y-98171D02*
D03*
X151588D02*
D03*
X146589D02*
D03*
X141589D02*
D03*
X136589D02*
D03*
X131589D02*
D03*
X126589D02*
D03*
X121589D02*
D03*
X116589D02*
D03*
X111589D02*
D03*
X106589D02*
D03*
X101589D02*
D03*
X96589D02*
D03*
X91589D02*
D03*
X86589D02*
D03*
X81589D02*
D03*
X76589D02*
D03*
X71589D02*
D03*
X66589D02*
D03*
X61589D02*
D03*
X56589D02*
D03*
D22*
X106168Y-117153D02*
D03*
Y-133709D02*
D03*
D23*
X125503Y-121974D02*
D03*
X142019D02*
D03*
D24*
X163574Y-128045D02*
D03*
Y-114045D02*
D03*
X229529Y86465D02*
D03*
Y100464D02*
D03*
D25*
X239149Y58532D02*
D03*
X264550D02*
D03*
X213750D02*
D03*
X264550Y-59468D02*
D03*
X213750D02*
D03*
X239149D02*
D03*
D27*
X121795Y76988D02*
D03*
Y90488D02*
D03*
D31*
X292149Y-468D02*
D03*
X186149D02*
D03*
D34*
X-99495Y-14564D02*
D03*
Y436D02*
D03*
D35*
X-138185Y87983D02*
D03*
X-124185D02*
D03*
D36*
X-1679Y77521D02*
D03*
X-152400Y-165199D02*
D03*
X-1679Y-77521D02*
D03*
X147599Y165199D02*
D03*
Y-165199D02*
D03*
X-80899Y-123901D02*
D03*
X-152400Y165199D02*
D03*
X-223901Y123901D02*
D03*
D37*
X-75921Y-1095D02*
D03*
Y-13595D02*
D03*
D38*
X112313Y126495D02*
D03*
X202223Y114033D02*
D03*
X194421Y93465D02*
D03*
X184621D02*
D03*
X192423Y114033D02*
D03*
X122113Y126495D02*
D03*
D39*
X290700Y82601D02*
D03*
X-295468Y-82601D02*
D03*
X-223901Y-123901D02*
D03*
X-80899Y123901D02*
D03*
D40*
X-295501Y-0D02*
D03*
X290700Y-82601D02*
D03*
X-295468Y82601D02*
D03*
D41*
X283149Y41032D02*
D03*
D42*
X193149Y-41968D02*
D03*
D43*
X-131629Y-92102D02*
D03*
X-157029D02*
D03*
D44*
X-182429D02*
D03*
D45*
X-261865Y25458D02*
D03*
X-284043Y-64430D02*
D03*
X-271864Y-49913D02*
D03*
X-79542Y92367D02*
D03*
X-83665Y-92809D02*
D03*
X-97536Y7365D02*
D03*
X-66802Y64007D02*
D03*
X-100584Y70611D02*
D03*
X64008Y-9653D02*
D03*
X61214Y-18289D02*
D03*
X70866Y-102617D02*
D03*
X81788Y-35561D02*
D03*
X-280670Y55879D02*
D03*
X-32004Y58673D02*
D03*
X-84582Y64007D02*
D03*
X68834Y9084D02*
D03*
X170180Y18541D02*
D03*
X138589Y-69597D02*
D03*
X147599Y-85681D02*
D03*
X-103886Y53085D02*
D03*
X-84822D02*
D03*
X-102334Y33498D02*
D03*
X-238506Y-34799D02*
D03*
X-262636Y82601D02*
D03*
X66040Y-58421D02*
D03*
X194310Y-99823D02*
D03*
X65278Y-103125D02*
D03*
X-181102Y114553D02*
D03*
X176022Y54355D02*
D03*
X82042Y49275D02*
D03*
X117856Y68325D02*
D03*
X47244Y47243D02*
D03*
X-138185Y58263D02*
D03*
X-124185Y95757D02*
D03*
X-177292Y-64771D02*
D03*
M02*
