G04*
G04 #@! TF.GenerationSoftware,Altium Limited,Altium Designer,25.8.1 (18)*
G04*
G04 Layer_Color=8421504*
%FSLAX44Y44*%
%MOMM*%
G71*
G04*
G04 #@! TF.SameCoordinates,2BA7E10B-6E93-4220-B227-DF091A9E169F*
G04*
G04*
G04 #@! TF.FilePolarity,Positive*
G04*
G01*
G75*
%ADD18R,0.3000X0.5556*%
%ADD19R,0.3048X0.3048*%
%ADD20R,0.8128X0.8128*%
%ADD21R,0.3048X0.3048*%
%ADD22R,0.8000X0.6556*%
%ADD23R,1.2546X1.4562*%
%ADD24R,0.7000X0.7000*%
%ADD25R,0.9906X1.0922*%
%ADD26R,0.6400X0.8900*%
%ADD27R,0.7000X0.6500*%
G04:AMPARAMS|DCode=28|XSize=1mm|YSize=1mm|CornerRadius=0.5mm|HoleSize=0mm|Usage=FLASHONLY|Rotation=90.000|XOffset=0mm|YOffset=0mm|HoleType=Round|Shape=RoundedRectangle|*
%AMROUNDEDRECTD28*
21,1,1.0000,0.0000,0,0,90.0*
21,1,0.0000,1.0000,0,0,90.0*
1,1,1.0000,0.0000,0.0000*
1,1,1.0000,0.0000,0.0000*
1,1,1.0000,0.0000,0.0000*
1,1,1.0000,0.0000,0.0000*
%
%ADD28ROUNDEDRECTD28*%
%ADD29R,0.9500X0.8000*%
%ADD30R,0.7800X0.7400*%
%ADD31R,0.9906X2.9972*%
G04:AMPARAMS|DCode=32|XSize=1mm|YSize=1mm|CornerRadius=0.5mm|HoleSize=0mm|Usage=FLASHONLY|Rotation=30.000|XOffset=0mm|YOffset=0mm|HoleType=Round|Shape=RoundedRectangle|*
%AMROUNDEDRECTD32*
21,1,1.0000,0.0000,0,0,30.0*
21,1,0.0000,1.0000,0,0,30.0*
1,1,1.0000,0.0000,0.0000*
1,1,1.0000,0.0000,0.0000*
1,1,1.0000,0.0000,0.0000*
1,1,1.0000,0.0000,0.0000*
%
%ADD32ROUNDEDRECTD32*%
G04:AMPARAMS|DCode=33|XSize=1mm|YSize=1mm|CornerRadius=0.5mm|HoleSize=0mm|Usage=FLASHONLY|Rotation=150.000|XOffset=0mm|YOffset=0mm|HoleType=Round|Shape=RoundedRectangle|*
%AMROUNDEDRECTD33*
21,1,1.0000,0.0000,0,0,150.0*
21,1,0.0000,1.0000,0,0,150.0*
1,1,1.0000,0.0000,0.0000*
1,1,1.0000,0.0000,0.0000*
1,1,1.0000,0.0000,0.0000*
1,1,1.0000,0.0000,0.0000*
%
%ADD33ROUNDEDRECTD33*%
%ADD34R,0.8000X0.8000*%
D18*
X194777Y-92906D02*
D03*
Y-85350D02*
D03*
X205733Y-93440D02*
D03*
Y-85884D02*
D03*
D19*
X63089Y-78171D02*
D03*
Y-73171D02*
D03*
Y-68171D02*
D03*
Y-63171D02*
D03*
Y-38171D02*
D03*
Y-33171D02*
D03*
Y-28171D02*
D03*
Y-23171D02*
D03*
Y11829D02*
D03*
Y16829D02*
D03*
Y21829D02*
D03*
Y26829D02*
D03*
X150089D02*
D03*
Y21829D02*
D03*
Y16829D02*
D03*
Y11829D02*
D03*
Y-23171D02*
D03*
Y-28171D02*
D03*
Y-33171D02*
D03*
Y-38171D02*
D03*
Y-63171D02*
D03*
Y-68171D02*
D03*
Y-73171D02*
D03*
Y-78171D02*
D03*
X56589Y-93171D02*
D03*
Y-88171D02*
D03*
Y-83171D02*
D03*
Y-78171D02*
D03*
Y-73171D02*
D03*
Y-68171D02*
D03*
Y-63171D02*
D03*
Y-58171D02*
D03*
Y-53171D02*
D03*
Y-48171D02*
D03*
Y-43171D02*
D03*
Y-38171D02*
D03*
Y-33171D02*
D03*
Y-28171D02*
D03*
Y-23171D02*
D03*
Y-18171D02*
D03*
Y-13171D02*
D03*
Y-8171D02*
D03*
Y-3171D02*
D03*
Y1829D02*
D03*
Y6829D02*
D03*
Y11829D02*
D03*
Y16829D02*
D03*
Y21829D02*
D03*
Y26829D02*
D03*
Y31829D02*
D03*
Y36829D02*
D03*
Y41829D02*
D03*
Y46829D02*
D03*
Y51829D02*
D03*
X156589D02*
D03*
Y46829D02*
D03*
Y41829D02*
D03*
Y36829D02*
D03*
Y31829D02*
D03*
Y26829D02*
D03*
Y21829D02*
D03*
Y16829D02*
D03*
Y11829D02*
D03*
Y6829D02*
D03*
Y1829D02*
D03*
Y-3171D02*
D03*
Y-8171D02*
D03*
Y-13171D02*
D03*
Y-18171D02*
D03*
Y-23171D02*
D03*
Y-28171D02*
D03*
Y-33171D02*
D03*
Y-38171D02*
D03*
Y-43171D02*
D03*
Y-48171D02*
D03*
Y-53171D02*
D03*
Y-58171D02*
D03*
Y-63171D02*
D03*
Y-68171D02*
D03*
Y-73171D02*
D03*
Y-78171D02*
D03*
Y-83171D02*
D03*
Y-88171D02*
D03*
Y-93171D02*
D03*
D20*
X138589Y39329D02*
D03*
Y19329D02*
D03*
Y-671D02*
D03*
Y-20671D02*
D03*
Y-40671D02*
D03*
Y-60671D02*
D03*
Y-80671D02*
D03*
X122589Y39329D02*
D03*
Y19329D02*
D03*
Y-671D02*
D03*
Y-20671D02*
D03*
Y-40671D02*
D03*
Y-60671D02*
D03*
Y-80671D02*
D03*
X106589Y39329D02*
D03*
Y19329D02*
D03*
Y-671D02*
D03*
Y-20671D02*
D03*
Y-40671D02*
D03*
Y-60671D02*
D03*
Y-80671D02*
D03*
X90589Y39329D02*
D03*
Y19329D02*
D03*
Y-671D02*
D03*
Y-20671D02*
D03*
Y-40671D02*
D03*
Y-60671D02*
D03*
Y-80671D02*
D03*
X74589Y39329D02*
D03*
Y19329D02*
D03*
Y-671D02*
D03*
Y-20671D02*
D03*
Y-40671D02*
D03*
Y-60671D02*
D03*
Y-80671D02*
D03*
D21*
X56589Y56829D02*
D03*
X61589D02*
D03*
X66589D02*
D03*
X71589D02*
D03*
X76589D02*
D03*
X81589D02*
D03*
X86589D02*
D03*
X91589D02*
D03*
X96589D02*
D03*
X101589D02*
D03*
X106589D02*
D03*
X111589D02*
D03*
X116589D02*
D03*
X121589D02*
D03*
X126589D02*
D03*
X131589D02*
D03*
X136589D02*
D03*
X141589D02*
D03*
X146589D02*
D03*
X151588D02*
D03*
X156589D02*
D03*
Y-98171D02*
D03*
X151588D02*
D03*
X146589D02*
D03*
X141589D02*
D03*
X136589D02*
D03*
X131589D02*
D03*
X126589D02*
D03*
X121589D02*
D03*
X116589D02*
D03*
X111589D02*
D03*
X106589D02*
D03*
X101589D02*
D03*
X96589D02*
D03*
X91589D02*
D03*
X86589D02*
D03*
X81589D02*
D03*
X76589D02*
D03*
X71589D02*
D03*
X66589D02*
D03*
X61589D02*
D03*
X56589D02*
D03*
D22*
X106168Y-117153D02*
D03*
Y-133709D02*
D03*
D23*
X125503Y-121974D02*
D03*
X142019D02*
D03*
D24*
X163574Y-128045D02*
D03*
Y-114045D02*
D03*
X229529Y86465D02*
D03*
Y100464D02*
D03*
D25*
X239149Y58532D02*
D03*
X264550D02*
D03*
X213750D02*
D03*
X264550Y-59468D02*
D03*
X213750D02*
D03*
X239149D02*
D03*
D26*
X-138185Y87983D02*
D03*
X-124185D02*
D03*
D27*
X121795Y76988D02*
D03*
Y90488D02*
D03*
D28*
X-1679Y77521D02*
D03*
X-152400Y-165199D02*
D03*
X-1679Y-77521D02*
D03*
X147599Y165199D02*
D03*
Y-165199D02*
D03*
X-80899Y-123901D02*
D03*
X-152400Y165199D02*
D03*
X-223901Y123901D02*
D03*
D29*
X-75921Y-1095D02*
D03*
Y-13595D02*
D03*
D30*
X112313Y126495D02*
D03*
X202223Y114033D02*
D03*
X194421Y93465D02*
D03*
X184621D02*
D03*
X192423Y114033D02*
D03*
X122113Y126495D02*
D03*
D31*
X292149Y-468D02*
D03*
X186149D02*
D03*
D32*
X290700Y82601D02*
D03*
X-295468Y-82601D02*
D03*
X-223901Y-123901D02*
D03*
X-80899Y123901D02*
D03*
D33*
X-295501Y-0D02*
D03*
X290700Y-82601D02*
D03*
X-295468Y82601D02*
D03*
D34*
X-99495Y-14564D02*
D03*
Y436D02*
D03*
M02*
