G04*
G04 #@! TF.GenerationSoftware,Altium Limited,Altium Designer,25.8.1 (18)*
G04*
G04 Layer_Color=128*
%FSLAX44Y44*%
%MOMM*%
G71*
G04*
G04 #@! TF.SameCoordinates,2BA7E10B-6E93-4220-B227-DF091A9E169F*
G04*
G04*
G04 #@! TF.FilePolarity,Positive*
G04*
G01*
G75*
%ADD26R,0.6400X0.8900*%
G04:AMPARAMS|DCode=28|XSize=1mm|YSize=1mm|CornerRadius=0.5mm|HoleSize=0mm|Usage=FLASHONLY|Rotation=90.000|XOffset=0mm|YOffset=0mm|HoleType=Round|Shape=RoundedRectangle|*
%AMROUNDEDRECTD28*
21,1,1.0000,0.0000,0,0,90.0*
21,1,0.0000,1.0000,0,0,90.0*
1,1,1.0000,0.0000,0.0000*
1,1,1.0000,0.0000,0.0000*
1,1,1.0000,0.0000,0.0000*
1,1,1.0000,0.0000,0.0000*
%
%ADD28ROUNDEDRECTD28*%
G04:AMPARAMS|DCode=32|XSize=1mm|YSize=1mm|CornerRadius=0.5mm|HoleSize=0mm|Usage=FLASHONLY|Rotation=30.000|XOffset=0mm|YOffset=0mm|HoleType=Round|Shape=RoundedRectangle|*
%AMROUNDEDRECTD32*
21,1,1.0000,0.0000,0,0,30.0*
21,1,0.0000,1.0000,0,0,30.0*
1,1,1.0000,0.0000,0.0000*
1,1,1.0000,0.0000,0.0000*
1,1,1.0000,0.0000,0.0000*
1,1,1.0000,0.0000,0.0000*
%
%ADD32ROUNDEDRECTD32*%
G04:AMPARAMS|DCode=33|XSize=1mm|YSize=1mm|CornerRadius=0.5mm|HoleSize=0mm|Usage=FLASHONLY|Rotation=150.000|XOffset=0mm|YOffset=0mm|HoleType=Round|Shape=RoundedRectangle|*
%AMROUNDEDRECTD33*
21,1,1.0000,0.0000,0,0,150.0*
21,1,0.0000,1.0000,0,0,150.0*
1,1,1.0000,0.0000,0.0000*
1,1,1.0000,0.0000,0.0000*
1,1,1.0000,0.0000,0.0000*
1,1,1.0000,0.0000,0.0000*
%
%ADD33ROUNDEDRECTD33*%
%ADD53R,0.8500X0.3000*%
%ADD54R,1.9000X0.4001*%
%ADD55R,0.8000X0.9500*%
%ADD56R,5.7000X5.7000*%
%ADD57R,0.5000X0.9000*%
%ADD58R,0.3000X0.8500*%
%ADD59R,0.8900X0.6400*%
%ADD60R,1.0922X1.3970*%
%ADD61R,1.3970X1.0922*%
%ADD62R,0.6000X0.8000*%
D26*
X-252825Y34925D02*
D03*
X-238825D02*
D03*
D28*
X-1679Y-77521D02*
D03*
Y77521D02*
D03*
X-295468Y82601D02*
D03*
X290700Y-82601D02*
D03*
X-80899Y-123901D02*
D03*
X-223901Y123901D02*
D03*
D32*
X147599Y-165199D02*
D03*
Y165199D02*
D03*
X-152400Y-165199D02*
D03*
Y165199D02*
D03*
X-223901Y-123901D02*
D03*
X-80899Y123901D02*
D03*
D33*
X-295468Y-82601D02*
D03*
X290700Y82601D02*
D03*
X-295501Y-0D02*
D03*
D53*
X-192371Y21381D02*
D03*
X-123371Y16381D02*
D03*
X-192371D02*
D03*
Y11381D02*
D03*
X-123371Y21381D02*
D03*
Y11381D02*
D03*
X-192371Y31381D02*
D03*
Y26381D02*
D03*
Y6381D02*
D03*
Y1381D02*
D03*
Y-3619D02*
D03*
Y-8619D02*
D03*
Y-13619D02*
D03*
Y-18619D02*
D03*
Y-23619D02*
D03*
X-123371D02*
D03*
Y-18619D02*
D03*
Y-13619D02*
D03*
Y-8619D02*
D03*
Y-3619D02*
D03*
Y1381D02*
D03*
Y6381D02*
D03*
Y26381D02*
D03*
Y31381D02*
D03*
D54*
X-75836Y46495D02*
D03*
Y58494D02*
D03*
Y70493D02*
D03*
D55*
X-172465Y-50285D02*
D03*
X-252602Y57767D02*
D03*
X-184965Y-50285D02*
D03*
X-240102Y57767D02*
D03*
D56*
X-157871Y3881D02*
D03*
D57*
X-267886Y53844D02*
D03*
Y76844D02*
D03*
D58*
X-150371Y38381D02*
D03*
X-145371D02*
D03*
X-155371D02*
D03*
X-185370Y-30619D02*
D03*
X-180371D02*
D03*
X-175370D02*
D03*
X-170371D02*
D03*
X-165370D02*
D03*
X-160371D02*
D03*
X-155371D02*
D03*
X-150371D02*
D03*
X-145371D02*
D03*
X-140371D02*
D03*
X-135371D02*
D03*
X-130371D02*
D03*
Y38381D02*
D03*
X-135371D02*
D03*
X-140371D02*
D03*
X-160371D02*
D03*
X-165370D02*
D03*
X-170371D02*
D03*
X-175370D02*
D03*
X-180371D02*
D03*
X-185370D02*
D03*
D59*
X-226069Y72047D02*
D03*
Y58047D02*
D03*
D60*
X-232649Y12926D02*
D03*
X-251191D02*
D03*
D61*
X-202775Y63099D02*
D03*
Y81641D02*
D03*
D62*
X-253540Y76570D02*
D03*
X-239541D02*
D03*
M02*
